<svg xmlns="http://www.w3.org/2000/svg" viewBox="0 0 1083.32 366.66"><defs><style>.cls-1{fill:#ffe000;}.cls-2{fill:#bffb32;}.cls-3{fill:#fff;}.cls-4{fill:#7ed321;}.cls-5{fill:#8cdc52;}.cls-6{fill:#583a0b;}.cls-7{fill:#cc7400;}</style></defs><g id="Contents"><path class="cls-1" d="M186.32,90.24h-5.5s-.63-22.85-.81-32.56c0-1.77,7.11-1.77,7.09,0C187,66.5,186.32,90.24,186.32,90.24Z"/><path class="cls-1" d="M186.6,56.86a8.19,8.19,0,0,0-6.1,0,1,1,0,0,0-.58.82c.18,9.6.81,32.34.81,32.56v.08h5.66v-.08c0-.23.7-23.84.79-32.56A1,1,0,0,0,186.6,56.86Zm-5.7,33.3c-.05-1.51-.64-23.18-.8-32.48,0-.25.16-.48.49-.67a7.92,7.92,0,0,1,5.92,0c.34.19.52.43.51.68-.09,8.46-.74,30.94-.78,32.48Z"/><path class="cls-1" d="M196.1,91.05l-5.48-.58s1.76-22.79,2.61-32.46c.15-1.77,7.25-1,7.05.74C199.27,67.51,196.1,91.05,196.1,91.05Z"/><path class="cls-1" d="M199.86,57.87a8.24,8.24,0,0,0-6.06-.63,1,1,0,0,0-.66.76c-.83,9.56-2.58,32.24-2.6,32.47v.08l5.64.59v-.08c0-.24,3.18-23.64,4.18-32.3A1,1,0,0,0,199.86,57.87ZM190.72,90.4c.11-1.51,1.78-23.12,2.59-32.39,0-.24.21-.46.56-.61a7.9,7.9,0,0,1,5.89.61c.32.23.47.47.44.73-1,8.41-4,30.68-4.18,32.22Z"/><path class="cls-1" d="M205.73,92.87l-5.38-1.14s4.14-22.49,6-32c.34-1.74,7.33-.25,6.94,1.48C211.35,69.8,205.73,92.87,205.73,92.87Z"/><path class="cls-1" d="M213,60.27A8.24,8.24,0,0,0,207,59a.94.94,0,0,0-.73.69c-1.83,9.42-5.94,31.79-6,32l0,.09L205.72,93l.08,0,0-.08c.05-.23,5.64-23.17,7.53-31.68A1,1,0,0,0,213,60.27Zm.24.9c-1.84,8.26-7.16,30.1-7.52,31.61l-5.22-1.12c.27-1.49,4.19-22.8,6-31.93.05-.25.27-.44.63-.56a8,8,0,0,1,5.8,1.22A.83.83,0,0,1,213.19,61.17Z"/><path class="cls-1" d="M215.13,95.69,209.89,94s6.47-21.93,9.3-31.21c.52-1.7,7.31.51,6.75,2.19C223.13,73.33,215.13,95.69,215.13,95.69Z"/><path class="cls-1" d="M225.72,64a8.17,8.17,0,0,0-5.81-1.88,1,1,0,0,0-.8.6c-2.8,9.18-9.23,31-9.3,31.22l0,.07,5.31,1.73.08,0,0-.08c.07-.23,8-22.45,10.81-30.72A1,1,0,0,0,225.72,64Zm.14.91c-2.7,8-10.26,29.2-10.78,30.65L210,93.94c.43-1.45,6.56-22.24,9.27-31.14a.81.81,0,0,1,.68-.49,8,8,0,0,1,5.63,1.83A.81.81,0,0,1,225.86,64.94Z"/><path class="cls-1" d="M224.17,99.48l-5-2.24s8.72-21.13,12.51-30.07c.69-1.63,7.22,1.28,6.48,2.89C234.47,78.08,224.17,99.48,224.17,99.48Z"/><path class="cls-1" d="M238,69.1a8.4,8.4,0,0,0-5.29-2.5,1.27,1.27,0,0,0-.28,0,1,1,0,0,0-.86.51C227.83,76,219.16,97,219.07,97.21l0,.07,5.17,2.31,0-.07c.11-.21,10.34-21.5,14-29.43A.94.94,0,0,0,238,69.1Zm.05.93c-3.51,7.68-13.25,28-13.93,29.35l-4.87-2.18c.57-1.4,8.85-21.43,12.47-30a.82.82,0,0,1,.73-.42,7.93,7.93,0,0,1,5.42,2.4A.85.85,0,0,1,238.06,70Z"/><path class="cls-1" d="M232.78,104.2,228,101.45s10.88-20.11,15.59-28.6c.86-1.56,7,2,6.14,3.54C245.25,84,232.78,104.2,232.78,104.2Z"/><path class="cls-1" d="M249.72,75.42a8.23,8.23,0,0,0-5.27-3h0a.93.93,0,0,0-.91.43c-4.65,8.39-15.48,28.4-15.6,28.59l0,.07,4.91,2.84,0-.07c.12-.2,12.53-20.29,17-27.8A1,1,0,0,0,249.72,75.42Zm-21.59,26c.71-1.33,11-20.39,15.54-28.52a.79.79,0,0,1,.77-.34h0a8,8,0,0,1,5.12,3,.83.83,0,0,1,.1.84c-4.3,7.28-16.12,26.42-16.92,27.74Z"/><path class="cls-1" d="M240.84,109.79l-4.45-3.24s12.92-18.86,18.49-26.81c1-1.46,6.79,2.74,5.74,4.17C255.36,91,240.84,109.79,240.84,109.79Z"/><path class="cls-1" d="M260.7,82.94a8.25,8.25,0,0,0-4.94-3.58,1,1,0,0,0-.95.33c-5.51,7.86-18.36,26.63-18.5,26.81l0,.07,4.52,3.28.06.05.05-.07C241,109.65,255.48,91,260.69,84A1,1,0,0,0,260.7,82.94Zm-24.2,23.59c.86-1.25,13.11-19.12,18.44-26.74a.8.8,0,0,1,.8-.26,8.06,8.06,0,0,1,4.8,3.48.78.78,0,0,1,0,.84c-5,6.8-18.78,24.6-19.72,25.82Z"/><path class="cls-1" d="M248.27,116.19l-4.09-3.69S259,95.1,265.38,87.77c1.16-1.34,6.47,3.44,5.27,4.75C264.68,99,248.27,116.19,248.27,116.19Z"/><path class="cls-1" d="M270.82,91.56a8.28,8.28,0,0,0-4.53-4.08.94.94,0,0,0-1,.24c-6.3,7.24-21.06,24.55-21.2,24.73l-.06.06,4.15,3.74.06,0,.06-.06c.16-.16,16.47-17.24,22.38-23.67A.94.94,0,0,0,270.82,91.56Zm-22.55,24.51-4-3.58c1-1.15,15-17.64,21.15-24.67a.81.81,0,0,1,.82-.16,7.9,7.9,0,0,1,4.4,4,.83.83,0,0,1-.07.85C264.86,98.69,249.33,115,248.27,116.07Z"/><path class="cls-1" d="M255,123.33l-3.68-4.09S267.88,103.48,275,96.86c1.29-1.21,6.07,4.1,4.74,5.27C273.11,108,255,123.33,255,123.33Z"/><path class="cls-1" d="M280,101.2a8.27,8.27,0,0,0-4.09-4.53,1,1,0,0,0-1,.12c-7,6.55-23.5,22.23-23.67,22.38l-.06.06,3.79,4.21.06,0c.19-.15,18.2-15.43,24.74-21.19A1,1,0,0,0,280,101.2Zm-25,22-3.57-4c1.1-1,16.8-16,23.6-22.33a.81.81,0,0,1,.83-.08,8,8,0,0,1,4,4.41.83.83,0,0,1-.18.83C273.32,107.67,256.18,122.21,255,123.21Z"/><path class="cls-1" d="M260.93,131.13l-3.23-4.45s18.12-13.94,25.87-19.78c1.42-1.07,5.62,4.71,4.17,5.74C280.55,117.75,260.93,131.13,260.93,131.13Z"/><path class="cls-1" d="M288.11,111.74a8.23,8.23,0,0,0-3.58-4.93.93.93,0,0,0-1,0c-7.67,5.78-25.71,19.65-25.88,19.78l-.07,0,3.28,4.52.05.07.07-.05c.2-.13,19.7-13.44,26.81-18.5A.94.94,0,0,0,288.11,111.74ZM261,131l-3.14-4.33c1.21-.92,18.39-14.12,25.82-19.73a.81.81,0,0,1,.83,0,8,8,0,0,1,3.49,4.79.87.87,0,0,1-.25.82C280.8,117.48,262.23,130.15,261,131Z"/><path class="cls-1" d="M266,139.52l-2.75-4.77s19.48-12,27.8-17c1.52-.91,5.09,5.28,3.55,6.15C286.93,128.26,266,139.52,266,139.52Z"/><path class="cls-1" d="M292,117.79a1,1,0,0,0-1-.08c-8.23,5-27.61,16.85-27.8,17l-.07.06,2.79,4.83,0,.07.07,0c.22-.11,21-11.31,28.59-15.59a1,1,0,0,0,.43-.92A8.26,8.26,0,0,0,292,117.79Zm-26,21.62-2.67-4.63c1.29-.79,19.76-12.13,27.74-16.93a.79.79,0,0,1,.83.1,8,8,0,0,1,3,5.13.8.8,0,0,1-.34.77C287.2,128,267.41,138.67,266.05,139.41Z"/><path class="cls-1" d="M270.21,148.39l-2.24-5s20.63-9.87,29.43-14c1.6-.75,4.51,5.78,2.88,6.48C292.18,139.38,270.21,148.39,270.21,148.39Z"/><path class="cls-1" d="M298.34,129.5a1,1,0,0,0-1-.19c-8.69,4.06-29.21,13.88-29.43,14l-.07,0,2.27,5.1,0,.08.08,0c.22-.08,22.06-9,30.08-12.51a1,1,0,0,0,.51-.88A8.24,8.24,0,0,0,298.34,129.5Zm-28.09,18.78-2.17-4.88c1.36-.65,20.91-10,29.35-13.94a.84.84,0,0,1,.82.18,8,8,0,0,1,2.41,5.41.83.83,0,0,1-.42.75C292.48,139.15,271.68,147.69,270.25,148.28Z"/><path class="cls-1" d="M273.44,157.65l-1.7-5.24s21.55-7.65,30.73-10.81c1.67-.58,3.88,6.21,2.19,6.75C296.24,151,273.44,157.65,273.44,157.65Z"/><path class="cls-1" d="M303.4,141.81a1,1,0,0,0-1-.29c-9.07,3.12-30.5,10.73-30.73,10.81l-.07,0,1.73,5.32,0,.07.08,0c.22-.07,22.89-6.69,31.21-9.3a1,1,0,0,0,.61-.83A8.21,8.21,0,0,0,303.4,141.81Zm1.72,5.76a.85.85,0,0,1-.49.7c-8.07,2.52-29.65,8.84-31.13,9.28l-1.64-5.08c1.42-.51,21.83-7.76,30.63-10.8a.84.84,0,0,1,.8.27A8,8,0,0,1,305.12,147.57Z"/><path class="cls-1" d="M307.7,161.2c-3.11.63-8.14,1.59-13.3,2.55l-.32,0q-4.21-.28-8.43-.28c-3.55,0-7.09.15-10.58.43H275l-.44-2.07s22.23-5.36,31.68-7.54C308,153.87,309.44,160.86,307.7,161.2Z"/><path class="cls-1" d="M307.14,154.57a1,1,0,0,0-.93-.39c-9.35,2.17-31.45,7.49-31.68,7.55l-.08,0,.45,2.14h.17l-.41-2c1.47-.36,22.53-5.44,31.59-7.53a.83.83,0,0,1,.77.34,8,8,0,0,1,1.24,5.8q-.19.56-.57.63c-3.15.65-8.32,1.62-13.61,2.61l.32,0,.35,0c5-.94,9.93-1.87,13-2.48a1,1,0,0,0,.69-.75A8.23,8.23,0,0,0,307.14,154.57Z"/><path class="cls-1" d="M62.17,145.07l-.09,0c.45-2,1.62-4.2,2.61-3.86s2.43.82,3.93,1.34l-.13,0Q65.31,143.76,62.17,145.07Z"/><path class="cls-1" d="M64.71,141.16a1,1,0,0,0-1,.31A7.73,7.73,0,0,0,62,145.14l.1,0,.09,0a7.51,7.51,0,0,1,1.68-3.48,1,1,0,0,1,.64-.29.47.47,0,0,1,.17,0c1.07.36,2.37.8,3.83,1.31l.13,0,.14-.05Z"/><path class="cls-1" d="M87.55,137.46a.28.28,0,0,0-.13,0q-5.07,1-10.06,2.36l-.12,0h0c-3.93-1.65-7.67-3.22-10.33-4.36-1.63-.69,1.29-7.21,2.9-6.47C73.82,130.89,81.19,134.41,87.55,137.46Z"/><path class="cls-1" d="M69.83,129a1,1,0,0,0-1,.21,8.22,8.22,0,0,0-2.48,5.57.93.93,0,0,0,.52.85c2.62,1.12,6.31,2.67,10.23,4.32l.13,0h0l.12,0c-4-1.67-7.76-3.25-10.43-4.4a.83.83,0,0,1-.41-.72,8.06,8.06,0,0,1,2.41-5.42,1.13,1.13,0,0,1,.6-.24.6.6,0,0,1,.23.06c4,1.83,11.31,5.32,17.66,8.36a.28.28,0,0,1,.13,0l.14,0C81.29,134.37,73.85,130.82,69.83,129Z"/><path class="cls-1" d="M103.93,134.47l-.54.94h-.11q-3.81.26-7.58.75h-.14c-6.59-3.58-17.33-9.45-23-12.58-1.54-.86,2-7,3.57-6.14C83.74,122,103.93,134.47,103.93,134.47Z"/><path class="cls-1" d="M104,134.4c-.2-.12-20.27-12.56-27.77-17a1,1,0,0,0-1,.11,8.17,8.17,0,0,0-3.06,5.27.94.94,0,0,0,.42.91c5.57,3.1,16.25,8.93,22.86,12.53l.15,0h.14c-6.59-3.6-17.44-9.52-23.07-12.64a.86.86,0,0,1-.33-.77,8,8,0,0,1,3-5.13,1.19,1.19,0,0,1,.55-.17.54.54,0,0,1,.3.08c7.27,4.31,26.38,16.15,27.69,17l-.53.92h.2l.53-.89,0-.06Z"/><path class="cls-1" d="M109.53,126.42l-3.24,4.45s-18.84-13-26.78-18.54c-1.45-1,2.76-6.79,4.18-5.73C90.76,111.87,109.53,126.42,109.53,126.42Z"/><path class="cls-1" d="M109.58,126.36c-.19-.15-18.85-14.62-25.84-19.83a1,1,0,0,0-1,0,8.27,8.27,0,0,0-3.59,4.93,1,1,0,0,0,.33,1c7.86,5.52,26.59,18.41,26.78,18.53l.06.06,3.3-4.52.05-.06Zm-30-14.1a.79.79,0,0,1-.26-.79,8,8,0,0,1,3.49-4.8,1.25,1.25,0,0,1,.49-.12.64.64,0,0,1,.36.11c6.78,5.06,24.56,18.83,25.77,19.78l-3.15,4.31C105,129.89,87.17,117.61,79.56,112.26Z"/><path class="cls-1" d="M115.94,119l-3.69,4.08s-17.37-14.86-24.69-21.23c-1.34-1.17,3.45-6.47,4.76-5.27C98.8,102.56,115.94,119,115.94,119Z"/><path class="cls-1" d="M116,118.94c-.17-.17-17.22-16.51-23.62-22.42a1,1,0,0,0-1-.12,8.2,8.2,0,0,0-4.08,4.53,1,1,0,0,0,.22,1c7.24,6.31,24.53,21.08,24.7,21.24l.06,0,3.74-4.14.06-.06ZM87.61,101.78a.82.82,0,0,1-.17-.82,8,8,0,0,1,4-4.39,1.29,1.29,0,0,1,.4-.08.58.58,0,0,1,.44.16c6.22,5.73,22.45,21.29,23.57,22.36L112.24,123C111.1,122,94.62,107.9,87.61,101.78Z"/><path class="cls-1" d="M123.1,112.29,119,116s-15.73-16.59-22.34-23.7c-1.21-1.3,4.11-6.07,5.28-4.74C107.77,94.15,123.1,112.29,123.1,112.29Z"/><path class="cls-1" d="M123.17,112.23C123,112.05,107.77,94,102,87.47a1,1,0,0,0-1-.22,8.21,8.21,0,0,0-4.54,4.07,1,1,0,0,0,.13,1c6.54,7,22.18,23.53,22.34,23.7l.06.07,4.16-3.73.06-.07ZM119,115.84C118,114.75,103.05,99,96.72,92.2a.81.81,0,0,1-.08-.82,8,8,0,0,1,4.4-4l.32,0a.65.65,0,0,1,.52.2c5.59,6.35,20.1,23.52,21.1,24.7Z"/><path class="cls-1" d="M130.91,106.36l-4.45,3.23s-13.91-18.15-19.74-25.91c-1.07-1.42,4.72-5.6,5.75-4.16C117.56,86.72,130.91,106.36,130.91,106.36Z"/><path class="cls-1" d="M131,106.32c-.13-.2-13.4-19.73-18.44-26.85a1,1,0,0,0-1-.32,8.19,8.19,0,0,0-4.94,3.58,1,1,0,0,0,0,1c5.77,7.68,19.6,25.73,19.74,25.91l0,.07,4.52-3.28.06,0Zm-4.5,3.15c-.93-1.2-14.11-18.4-19.7-25.84a.83.83,0,0,1,0-.84,8,8,0,0,1,4.81-3.47h.17a.75.75,0,0,1,.64.26c4.89,6.9,17.53,25.5,18.4,26.78Z"/><path class="cls-1" d="M139.31,101.29,134.54,104S122.6,84.53,117.61,76.2c-.91-1.52,5.29-5.08,6.16-3.53C128.08,80.36,139.31,101.29,139.31,101.29Z"/><path class="cls-1" d="M139.38,101.25c-.11-.21-11.27-21-15.54-28.63a1,1,0,0,0-.93-.43,8.23,8.23,0,0,0-5.28,3,1,1,0,0,0-.08,1c4.92,8.24,16.8,27.63,16.91,27.84l0,.06,4.84-2.78.06,0Zm-4.82,2.67c-.79-1.29-12.09-19.78-16.87-27.76a.82.82,0,0,1,.09-.84,8,8,0,0,1,5.13-2.95.8.8,0,0,1,.78.34c4.15,7.37,14.77,27.19,15.5,28.55Z"/><path class="cls-1" d="M148.18,97.12l-5,2.23S133.32,78.7,129.24,69.9c-.75-1.61,5.78-4.5,6.48-2.87C139.21,75.13,148.18,97.12,148.18,97.12Z"/><path class="cls-1" d="M148.26,97.09c-.09-.23-9-22.09-12.46-30.1a1,1,0,0,0-.88-.52h-.27a8.46,8.46,0,0,0-5.3,2.48,1,1,0,0,0-.2,1c4,8.7,13.83,29.23,13.92,29.44l0,.08,5.1-2.26.09,0Zm-5.06,2.14c-.66-1.36-10-20.92-13.89-29.37a.82.82,0,0,1,.18-.81,8.14,8.14,0,0,1,5.15-2.42l.27,0a.8.8,0,0,1,.73.41c3.36,7.77,11.85,28.59,12.44,30Z"/><path class="cls-1" d="M157.45,93.9l-5.24,1.69S144.6,74,141.45,64.85c-.57-1.68,6.22-3.87,6.75-2.18C150.83,71.09,157.45,93.9,157.45,93.9Z"/><path class="cls-1" d="M157.53,93.88c-.07-.24-6.65-22.91-9.24-31.24a1,1,0,0,0-.82-.6,8.19,8.19,0,0,0-5.81,1.88,1,1,0,0,0-.29,1c3.11,9.07,10.69,30.52,10.77,30.74l0,.08L157.47,94l.08,0Zm-5.27,1.6c-.5-1.43-7.72-21.85-10.73-30.66a.8.8,0,0,1,.26-.79,8.31,8.31,0,0,1,5-1.89,3.1,3.1,0,0,1,.64.06c.39.08.62.25.69.49,2.52,8.08,8.79,29.68,9.23,31.16Z"/><path class="cls-1" d="M167,91.67l-5.38,1.13s-5.32-22.24-7.49-31.7c-.4-1.73,6.59-3.2,6.94-1.46C162.8,68.29,167,91.67,167,91.67Z"/><path class="cls-1" d="M167.09,91.65c-.05-.23-4.23-23.47-5.94-32a1,1,0,0,0-.74-.7,8.21,8.21,0,0,0-6,1.27,1,1,0,0,0-.39.92c2.13,9.36,7.43,31.47,7.49,31.7v.08L167,91.75l.08,0Zm-5.41,1c-.36-1.48-5.39-22.55-7.47-31.61a.79.79,0,0,1,.34-.77,8.16,8.16,0,0,1,4.62-1.38,4,4,0,0,1,1.18.15c.37.13.59.32.64.57,1.65,8.29,5.64,30.42,5.91,31.94Z"/><path class="cls-1" d="M176.73,90.45l-5.47.56s-3-22.67-4.13-32.31c-.22-1.76,6.89-2.49,7.05-.72C175,66.76,176.73,90.45,176.73,90.45Z"/><path class="cls-1" d="M176.82,90.44c0-.24-1.75-23.78-2.55-32.47a1,1,0,0,0-.67-.77,8.25,8.25,0,0,0-6.07.64,1,1,0,0,0-.49.88c1.15,9.52,4.11,32.07,4.14,32.3v.08l5.56-.57h.08Zm-5.49.48c-.19-1.51-3-23-4.12-32.22a.8.8,0,0,1,.42-.73,7.59,7.59,0,0,1,3.92-.93,5.06,5.06,0,0,1,2,.32c.35.16.55.36.57.62.79,8.43,2.43,30.85,2.54,32.39Z"/><path class="cls-1" d="M183.36,96.85a87,87,0,0,0-72.08,38.24h1.45a131.77,131.77,0,0,1,93.8,38.86,134,134,0,0,1,9,10,129.61,129.61,0,0,1,52.59-19.27h.08A87,87,0,0,0,183.36,96.85Z"/><path class="cls-1" d="M263.61,150a87.15,87.15,0,0,0-152.43-14.87h.26a86.92,86.92,0,0,1,156.7,29.54h.08l.1,0A85.8,85.8,0,0,0,263.61,150Z"/><path class="cls-2" d="M90.76,171.5c1.91,1.54,3.85,3.12,5.83,4.77l.08.07.08.06c22.34,18.64,47.95,43.65,68.62,66.72A129.36,129.36,0,0,0,157.85,267a.29.29,0,0,1,0,.09.3.3,0,0,1,0,.1c-.44,2.09-.83,4.21-1.16,6.34a.19.19,0,0,0,0,.07.34.34,0,0,0,0,.1c-.12.76-.24,1.53-.34,2.31a4.53,4.53,0,0,1-.08.49v0l-.06.52a0,0,0,0,0,0,0,132.66,132.66,0,0,0-1.1,17c0,1.83,0,3.66.11,5.5l0,.61c.14,2.68.34,5.37.64,8.05a205784106813.65,205784106813.65,0,0,0,0,.16c0,.29.06.57.09.86a128.81,128.81,0,0,1-93.81-86.1A125.13,125.13,0,0,1,58.88,211a10,10,0,0,1-.38-1.81h0q-1.09-5.43-1.72-11h0a11,11,0,0,1-.24-2.49Q56,190.4,56,185a9.52,9.52,0,0,1,0-2.77c0-3.58.22-7.14.57-10.65a11,11,0,0,1,.26-2.56c.42-3.7,1-7.35,1.75-10.93v0A10.27,10.27,0,0,1,59,156.2q.66-3,1.46-5.95c1.27-.56,2.54-1.1,3.82-1.63l.13-.05.12,0q5-2,10.3-3.66l.13,0h0l.14,0c2.72-.83,5.49-1.57,8.29-2.23a.29.29,0,0,1,.14,0l.15,0c3.32-.76,6.69-1.41,10.12-1.92l.14,0h0l.14,0a132,132,0,0,1,14.44-1.27.28.28,0,0,1,.13,0h.13c1.31,0,2.62-.06,3.94-.06a128.25,128.25,0,0,1,99.38,47A131.25,131.25,0,0,0,167,239.53a556.55,556.55,0,0,0-57.75-55.36q-6.65-5.44-12.3-9.72l-.08,0-.08-.07c-4.45-3.37-8.41-6.21-11.82-8.57l-.18-.12a.88.88,0,0,1-.17-.12h0c-8.64-5.94-13.7-8.7-14.21-9,3.81,2.46,7.9,5.35,12.24,8.61l.14.11.16.12Q86.39,168,90.07,171Z"/><path class="cls-3" d="M56,183.29c0-.36,0-.72,0-1.08A9.52,9.52,0,0,0,56,185c0-.36,0-.74,0-1.11v-.18C56,183.55,56,183.42,56,183.29Zm.58-11.73c.07-.86.16-1.71.26-2.56A11,11,0,0,0,56.59,171.56Zm-.05,24.13a11,11,0,0,0,.24,2.49Q56.65,196.94,56.54,195.69Zm2,13.54a10,10,0,0,0,.38,1.81C58.74,210.44,58.62,209.84,58.5,209.23Zm.1-51.2q.19-.93.39-1.83A10.27,10.27,0,0,0,58.6,158Z"/><path class="cls-4" d="M304.7,223.58c-.1.36-.22.71-.35,1a9.71,9.71,0,0,0,.79-2.37C305,222.7,304.85,223.14,304.7,223.58Zm3.41-12.31a9.8,9.8,0,0,0,.33-1.54C308.33,210.25,308.23,210.76,308.11,211.27ZM310.33,170c.05.47.1.94.14,1.41A9.62,9.62,0,0,0,310.33,170Zm.77,13.92v.76C311.12,184.38,311.1,184.13,311.1,183.87Z"/><path class="cls-4" d="M311.1,183.33c0,.18,0,.36,0,.54v.76c0,4.09-.25,8.15-.66,12.15v0l-.12,1.15s0,0,0,.06q-.66,6-1.87,11.72c-.11.52-.21,1-.33,1.54a.64.64,0,0,0,0,.07c-.82,3.7-1.81,7.35-2.95,10.92-.14.44-.29.88-.44,1.32s-.22.71-.35,1q-1.69,5-3.82,9.86a0,0,0,0,0,0,0c-.07.15-.14.29-.2.45a.14.14,0,0,0,0,.06l-.86,1.85v0c-.07.16-.15.32-.23.48q-2.06,4.4-4.44,8.61c-.07.14-.15.26-.22.39l0,.06c-.1.17-.19.34-.29.5s0,0,0,0c-.27.48-.56,1-.83,1.44l0,.06c-.13.2-.25.39-.36.59h0c-.08.13-.17.26-.24.39h0c-1.55,2.55-3.2,5-4.92,7.48-.06.08-.13.15-.19.24h0v0h0c-.08.13-.17.25-.26.37-.62.85-1.24,1.7-1.87,2.54l-.24.3h0a1.51,1.51,0,0,1-.18.26c-1.71,2.22-3.49,4.38-5.32,6.48l-.17.18s0,0,0,0l-.27.32c-.86,1-1.75,1.94-2.63,2.88h0l-.23.24h0l-.19.21q-2.73,2.85-5.62,5.54h0c-.05.05-.12.1-.17.16h0c-.07,0-.12.12-.19.18-1.14,1-2.28,2.06-3.45,3,0,0,0,0,0,0a1.57,1.57,0,0,1-.19.18l-.16.13q-2.86,2.45-5.88,4.71l-.16.12-.2.15q-2,1.5-4.08,2.93a1.64,1.64,0,0,0-.22.14l-.17.11c-2,1.36-4,2.66-6.09,3.9a.75.75,0,0,1-.15.09l-.18.11c-1.54.93-3.12,1.82-4.71,2.68l-.21.11-.13.07-1.9,1-2.38,1.18c-.65.33-1.32.63-2,1l-.14.06-.16.07-.09,0q-2.58,1.2-5.2,2.27l-.16.07h0l-.14.06c-2.07.84-4.18,1.63-6.31,2.37l-.15,0-.13.05c-1.91.64-3.85,1.26-5.81,1.82l-.14,0h0l-.1,0c-2.09.6-4.19,1.14-6.32,1.64a.2.2,0,0,0-.11,0l-.13,0c-2.08.47-4.16.88-6.27,1.25l-.11,0-.12,0c-2.07.36-4.14.68-6.23.92l-.12,0h-.1c-2.19.27-4.38.47-6.59.63h-.2c-2.05.14-4.1.22-6.17.26h-.18l-2.14,0c-1.54,0-3.08,0-4.64-.09a.1.1,0,0,1-.09,0h-.09c-2-.06-4-.19-6-.37h-.09a.11.11,0,0,1-.08,0c-2.28-.18-4.56-.45-6.83-.77a.11.11,0,0,1-.08,0h-.09c-.43-.05-.87-.13-1.3-.2q.74-1.38,1.65-2.88h0l.11-.16a1.51,1.51,0,0,1,.1-.17,135.56,135.56,0,0,1,7.75-11.17l.1-.11h0a.76.76,0,0,1,.08-.11h0c1.61-2.11,3.35-4.29,5.19-6.54l.09-.1a.44.44,0,0,1,.08-.11q2.7-3.28,5.72-6.76a.38.38,0,0,1,.09-.09.46.46,0,0,1,.07-.1q2.44-2.82,5.09-5.75c1-1.1,2-2.22,3-3.34l1.27-1.38.09-.1h0a.5.5,0,0,1,.1-.11h0c11.94-12.92,25.92-26.67,39.94-39.37l1.68-1.5,1.71-1.52c9.91-8.85,19.75-17.09,28.85-24.06l.11-.08.12-.09c3-2.34,6-4.54,8.89-6.56h0l.11-.09.09-.07h0q3.74-2.64,7.17-4.84l.11-.08h0l.11-.07c1-.65,2-1.26,2.95-1.85-.23.11-1.36.69-3.34,1.81l-.13.08h0l-.11.08h0c-1.88,1.07-4.49,2.62-7.72,4.68l-.09.06-.09.06q-3.36,2.13-7.58,5l-.12.08-.11.07C263.63,205,258,209,251.72,214q-6.25,4.86-13.39,10.88l-1.73,1.46-1.66,1.42a553.6,553.6,0,0,0-42.66,41.16c-.49.52-1,1.06-1.48,1.6h0a.31.31,0,0,1-.1.1l-.09.1-1.27,1.38q-2.43,2.63-4.89,5.37l-.08.09a.18.18,0,0,0-.07.08h0c-1.24,1.36-2.48,2.75-3.71,4.15l-.09.1-.1.1c-1.58,1.8-3.18,3.62-4.8,5.48h0l-.09.09h0l-.1.13q-3.49,4-7,8.25a.45.45,0,0,0-.11.13l-.1.11h0c-1.53,1.83-3.08,3.69-4.63,5.58l-2.18,2.68a1.13,1.13,0,0,0-.1.13l-.12.14h0c-.49.59-1,1.18-1.38,1.73-.4-4.12-.61-8.27-.61-12.37a126.9,126.9,0,0,1,.67-13.14c0-.21.05-.42.07-.62h0c0-.2,0-.4.07-.59.43-3.87,1-7.67,1.83-11.42,0,0,0-.06,0-.09a.29.29,0,0,0,0-.09,126.58,126.58,0,0,1,6.6-21.58c.51-1.24,1-2.47,1.57-3.7a127.35,127.35,0,0,1,44.7-53.44l1.66-1.12,1.78-1.14a125.72,125.72,0,0,1,50.84-18.48H269l.1,0a128.64,128.64,0,0,1,16.52-1.07,126.28,126.28,0,0,1,14,.78l.36,0,.35,0c3.28.38,6.55.88,9.78,1.52h.08l.09,0c.05.47.1.94.14,1.41,0,0,0,0,0,.06C310.86,175.39,311.08,179.38,311.1,183.33Z"/><path class="cls-4" d="M310.33,170c.05.47.1.94.14,1.41A9.62,9.62,0,0,0,310.33,170Zm-2.22,41.32a9.8,9.8,0,0,0,.33-1.54C308.33,210.25,308.23,210.76,308.11,211.27Zm-3.41,12.31c-.1.36-.22.71-.35,1a9.71,9.71,0,0,0,.79-2.37C305,222.7,304.85,223.14,304.7,223.58Z"/><path class="cls-5" d="M366.23,157.55v30.24h41.45v4.92H366.23v33.18h-5.44V152.63h51.6v4.92Z"/><path class="cls-5" d="M482.3,225.89,473,205.38H429.76l-9.31,20.51h-5.66l34.12-73.79h5.24l34.12,73.79Zm-30.87-67.82-19.37,42.39h38.62Z"/><path class="cls-5" d="M556.51,225.89l-23.34-30.35h-24v30.35h-5.44V152.63h30.77a35.87,35.87,0,0,1,10.78,1.51,24.53,24.53,0,0,1,8.21,4.3,19.55,19.55,0,0,1,5.29,6.59,18.75,18.75,0,0,1,1.88,8.42v.21a19.9,19.9,0,0,1-1.62,8.22,18.64,18.64,0,0,1-4.5,6.23,23.3,23.3,0,0,1-6.8,4.24,34.58,34.58,0,0,1-8.53,2.25l24.17,31.29Zm-1.26-52.28a14.14,14.14,0,0,0-5.49-11.76q-5.5-4.31-15.55-4.3h-25v33.07h24.7a30.12,30.12,0,0,0,8.53-1.16,20.45,20.45,0,0,0,6.75-3.3,15.69,15.69,0,0,0,4.45-5.25,15.09,15.09,0,0,0,1.62-7.09Z"/><path class="cls-5" d="M643.06,225.89V162.26l-29,42.18h-.42l-29-42.18v63.63h-5.23V152.63h5.13L614,196l29.41-43.33h5.13v73.26Z"/><path class="cls-5" d="M717.53,215.06a18.89,18.89,0,0,1-5,6.33,23.35,23.35,0,0,1-7.64,4.08,31.08,31.08,0,0,1-9.79,1.47A41.12,41.12,0,0,1,679.22,224a48.79,48.79,0,0,1-13.65-8.8l3.55-4.08a51.67,51.67,0,0,0,6,4.87,34,34,0,0,0,6.12,3.35,35.26,35.26,0,0,0,6.6,2,39.25,39.25,0,0,0,7.53.68,24.84,24.84,0,0,0,7.54-1.1,17.66,17.66,0,0,0,5.86-3,14,14,0,0,0,3.77-4.6,12.71,12.71,0,0,0,1.36-5.81v-.21A14.48,14.48,0,0,0,713,202a10,10,0,0,0-3.25-4.19,23.34,23.34,0,0,0-6.33-3.4,65,65,0,0,0-10.25-2.77,71.56,71.56,0,0,1-11.31-3.2,27.93,27.93,0,0,1-7.69-4.29,14.68,14.68,0,0,1-4.34-5.7,19,19,0,0,1-1.36-7.43v-.21a16.5,16.5,0,0,1,1.78-7.59,19.11,19.11,0,0,1,4.91-6.12,23,23,0,0,1,7.44-4.08,28.88,28.88,0,0,1,9.41-1.47,38.77,38.77,0,0,1,13.77,2.2,41.2,41.2,0,0,1,11.35,6.7l-3.45,4.29a31.38,31.38,0,0,0-21.87-8.27,23.26,23.26,0,0,0-7.38,1.1,18,18,0,0,0-5.65,3,13.06,13.06,0,0,0-3.62,4.4,11.84,11.84,0,0,0-1.25,5.34v.2a14.71,14.71,0,0,0,.89,5.29,10.29,10.29,0,0,0,3.24,4.29,23.22,23.22,0,0,0,6.54,3.51,76.09,76.09,0,0,0,10.68,2.93q12.76,2.61,18.42,7.38t5.65,12.82V207A18.11,18.11,0,0,1,717.53,215.06Z"/><path class="cls-6" d="M385.86,127.6l-10.55-14.14h-10.4V127.6H360.8V91.2h15.65a17.62,17.62,0,0,1,5.43.78A12.32,12.32,0,0,1,386,94.19a9.85,9.85,0,0,1,2.65,3.43,10.46,10.46,0,0,1,.94,4.45,10.92,10.92,0,0,1-.73,4.09,9.43,9.43,0,0,1-2.06,3.12,11.58,11.58,0,0,1-3.14,2.21,14.59,14.59,0,0,1-3.95,1.25l11.18,14.86Zm-2.81-30.7a11,11,0,0,0-6.88-1.9H364.91v14.81h11.2a12.85,12.85,0,0,0,3.76-.52,9.19,9.19,0,0,0,3-1.48,6.91,6.91,0,0,0,2-2.38,7,7,0,0,0,.71-3.18A6.39,6.39,0,0,0,383.05,96.9Z"/><path class="cls-6" d="M424.71,94.94H402.5v12.43h19.87v3.74H402.5v12.74H425v3.75H398.39V91.2h26.32Z"/><path class="cls-6" d="M436.82,102.6a4.66,4.66,0,0,0,1.51,1.9,11.09,11.09,0,0,0,3,1.56,35.91,35.91,0,0,0,4.94,1.33q6.07,1.35,9,3.75a8.14,8.14,0,0,1,2.88,6.61,9.58,9.58,0,0,1-3.47,7.56,11.59,11.59,0,0,1-3.91,2.08,16.27,16.27,0,0,1-5,.73,21.8,21.8,0,0,1-8-1.41,22.59,22.59,0,0,1-6.89-4.36l2.55-3a21.66,21.66,0,0,0,5.77,3.88,16.77,16.77,0,0,0,6.71,1.27,9.32,9.32,0,0,0,5.9-1.72,5.45,5.45,0,0,0,2.21-4.53,6.23,6.23,0,0,0-.41-2.32,4.74,4.74,0,0,0-1.46-1.85,10.5,10.5,0,0,0-2.9-1.51,37.59,37.59,0,0,0-4.71-1.3,37.73,37.73,0,0,1-5.45-1.56,13.36,13.36,0,0,1-3.83-2.14,7.72,7.72,0,0,1-2.24-2.91,9.76,9.76,0,0,1-.73-4,9,9,0,0,1,.88-4,9.17,9.17,0,0,1,2.5-3.15,12.18,12.18,0,0,1,3.79-2.09,14.67,14.67,0,0,1,4.79-.75,20.27,20.27,0,0,1,7,1.1,21.33,21.33,0,0,1,5.8,3.32l-2.39,3.17a17.94,17.94,0,0,0-5.12-3,15.75,15.75,0,0,0-5.39-.93,10.23,10.23,0,0,0-3.19.47A8.07,8.07,0,0,0,438.51,96,5.49,5.49,0,0,0,437,97.91a5.23,5.23,0,0,0-.54,2.35A6.21,6.21,0,0,0,436.82,102.6Z"/><path class="cls-6" d="M470.62,111.22V127.6h-4.11V91.2h4.11v16.17h21V91.2h4.11v36.4h-4.11V111.22Z"/><path class="cls-6" d="M539.94,127.6h-4.42L531.25,118H511.44l-4.31,9.62h-4.22L519.5,90.94h3.85ZM521.37,95.77l-8.32,18.57h16.59Z"/><path class="cls-7" d="M374.58,276.56a3.73,3.73,0,0,1-1.27,1.44,6,6,0,0,1-2,.87,10.91,10.91,0,0,1-2.58.28h-8v-16.8h7.79a6.37,6.37,0,0,1,4.06,1.18,3.84,3.84,0,0,1,1.47,3.17v.05a3.95,3.95,0,0,1-.65,2.26,3.49,3.49,0,0,1-.7.78,4.34,4.34,0,0,1-.84.58,5.72,5.72,0,0,1,2.29,1.5,3.83,3.83,0,0,1,.84,2.63v.05A4.29,4.29,0,0,1,374.58,276.56Zm-4.14-9.24a1.48,1.48,0,0,0-.62-1.28,3.07,3.07,0,0,0-1.8-.45h-3.65v3.56h3.41a3.83,3.83,0,0,0,1.94-.42,1.46,1.46,0,0,0,.72-1.36Zm.94,6.72a1.59,1.59,0,0,0-.65-1.33,3.48,3.48,0,0,0-2.09-.49h-4.27v3.69h4.39a3.5,3.5,0,0,0,1.92-.44,1.52,1.52,0,0,0,.7-1.38Z"/><path class="cls-7" d="M386.52,272.46v6.69h-3.69v-6.62l-6.46-10.18h4.32l4,6.75,4.08-6.75H393Z"/><path class="cls-7" d="M412.68,279.15l-3.6-5.37h-2.9v5.37h-3.7v-16.8h7.68a6.83,6.83,0,0,1,4.67,1.47,5.13,5.13,0,0,1,1.67,4.08V268a5.23,5.23,0,0,1-1,3.32,5.71,5.71,0,0,1-2.6,1.88l4.1,6Zm.07-11.06a2.14,2.14,0,0,0-.76-1.8,3.42,3.42,0,0,0-2.14-.6h-3.67v4.82h3.74a3.08,3.08,0,0,0,2.1-.64,2.2,2.2,0,0,0,.73-1.73Z"/><path class="cls-7" d="M419.83,279.15v-16.8h12.65v3.29h-9v3.41h7.92v3.29h-7.92v3.53h9.12v3.28Z"/><path class="cls-7" d="M447.61,276.41a4.73,4.73,0,0,1-1.27,1.63,5.81,5.81,0,0,1-1.93,1,8.49,8.49,0,0,1-2.5.34,11.07,11.07,0,0,1-3.76-.66,9.83,9.83,0,0,1-3.36-2l2.18-2.62a11.45,11.45,0,0,0,2.36,1.49,6.33,6.33,0,0,0,2.66.55,3.21,3.21,0,0,0,1.78-.42,1.31,1.31,0,0,0,.64-1.16v-.05a1.47,1.47,0,0,0-.13-.64,1.37,1.37,0,0,0-.51-.51,5.31,5.31,0,0,0-1-.48c-.44-.16-1-.33-1.72-.51a23,23,0,0,1-2.31-.69,6.8,6.8,0,0,1-1.76-.95,4,4,0,0,1-1.12-1.41,4.91,4.91,0,0,1-.4-2.08v-.05a5,5,0,0,1,.43-2.08,4.71,4.71,0,0,1,1.21-1.59,5.3,5.3,0,0,1,1.85-1,7.46,7.46,0,0,1,2.37-.36,10.06,10.06,0,0,1,3.4.56,9.56,9.56,0,0,1,2.84,1.58L445.61,267a12.48,12.48,0,0,0-2.21-1.21,5.75,5.75,0,0,0-2.16-.44,2.61,2.61,0,0,0-1.62.42,1.28,1.28,0,0,0-.54,1v.05a1.46,1.46,0,0,0,.16.71,1.39,1.39,0,0,0,.56.54,5.39,5.39,0,0,0,1.12.45c.48.15,1.07.32,1.8.51a16.78,16.78,0,0,1,2.27.75,6.19,6.19,0,0,1,1.68,1,3.76,3.76,0,0,1,1,1.38,4.74,4.74,0,0,1,.35,1.9v.05A5.24,5.24,0,0,1,447.61,276.41Z"/><path class="cls-7" d="M461.79,279.15v-6.74H455v6.74h-3.7v-16.8H455V269h6.82v-6.65h3.69v16.8Z"/><path class="cls-7" d="M482,279.15l-1.54-3.76h-7.1l-1.54,3.76h-3.77l7.2-16.92h3.41l7.2,16.92Zm-5.09-12.48-2.23,5.45h4.46Z"/><path class="cls-7" d="M501.63,279.15v-11l-4.73,7.17h-.1l-4.68-7.1v10.89h-3.65v-16.8h4l4.41,7.11,4.42-7.11h4v16.8Z"/><path class="cls-7" d="M521.81,279.15l-1.54-3.76h-7.1l-1.54,3.76h-3.76l7.2-16.92h3.4l7.2,16.92Zm-5.09-12.48-2.23,5.45H519Z"/><path class="cls-7" d="M540.05,279.15l-8.14-10.68v10.68h-3.64v-16.8h3.4l7.88,10.35V262.35h3.64v16.8Z"/><path class="cls-7" d="M562.06,274.07a7.84,7.84,0,0,1-1.84,2.66,8.9,8.9,0,0,1-2.83,1.78,9.82,9.82,0,0,1-3.61.64h-6.55v-16.8h6.55a10,10,0,0,1,3.61.64,8.52,8.52,0,0,1,2.83,1.76,7.94,7.94,0,0,1,1.84,2.66,8.34,8.34,0,0,1,.65,3.3v0A8.51,8.51,0,0,1,562.06,274.07Zm-3.22-3.32a5.48,5.48,0,0,0-.37-2,4.74,4.74,0,0,0-1-1.6,4.55,4.55,0,0,0-1.6-1.05,5.47,5.47,0,0,0-2.06-.37h-2.86v10.13h2.86a5.68,5.68,0,0,0,2.06-.36,4.5,4.5,0,0,0,1.6-1,4.9,4.9,0,0,0,1-1.59,5.33,5.33,0,0,0,.37-2Z"/><path class="cls-7" d="M566.16,279.15v-16.8h3.7v16.8Z"/><path class="cls-6" d="M733.86,137.39h-1.1v-8.78h-3.29v-1h7.68v1h-3.29Z"/><path class="cls-6" d="M743.94,134.7h-.05l-3.57-5.24v7.93h-1.08v-9.8h1.12l3.57,5.35,3.57-5.35h1.12v9.8h-1.11v-7.94Z"/></g></svg>