<svg xmlns="http://www.w3.org/2000/svg" viewBox="0 0 1083.32 366.66"><defs><style>.cls-1{fill:#ffe000;}.cls-2{fill:#7ed321;}.cls-3{fill:#5b2812;}.cls-4{fill:#583a0b;}.cls-5{fill:#cc7400;}</style></defs><g id="Contents"><path class="cls-1" d="M212.1,210.62c.09-.09.15-.12.13-.05s-.16.46-.25.72c0,0-.84,2.48-1.41,3.93s-1.16,2.83-1.81,4.22a77,77,0,0,1-5.47,9.93c-.7,1.09-1.43,2.16-2.2,3.22s-1.53,2.07-2.33,3.08c-1.51,1.9-3.11,3.75-4.82,5.54a81.08,81.08,0,0,1-9.75,8.68c-1,.76-2,1.48-3,2.18s-2.1,1.41-3.17,2.06a79.56,79.56,0,0,1-27.43,10.58c-1.29.25-2.57.46-3.86.63s-2.65.32-4,.43q-3.45.32-6.92.31A80.2,80.2,0,0,1,107,260.75q-2.25-.86-4.44-1.86c-1.51-.68-3-1.42-4.45-2.19a80.75,80.75,0,0,1-28.77-25.85,76,76,0,0,1-4.66-7.77,79.53,79.53,0,0,1-3.88-8.6,80.54,80.54,0,0,1,.59-58.89.5.5,0,0,1,1,.16,88.17,88.17,0,0,0,2.44,15.19A86.94,86.94,0,0,0,68,181c.61,1.58,1.25,3.14,2,4.67s1.39,3,2.13,4.42a87.23,87.23,0,0,0,23,27.89c1,.85,2.13,1.66,3.22,2.44s2.17,1.54,3.28,2.27A86.69,86.69,0,0,0,130,234.79c1.25.3,2.51.55,3.78.78s2.49.42,3.75.59a86.85,86.85,0,0,0,11.91.81,88.17,88.17,0,0,0,10.76-.66c1.34-.17,2.7-.37,4-.6s2.61-.47,3.9-.76c.91-.2,1.81-.41,2.7-.64a86.82,86.82,0,0,0,11.69-3.82q2.24-.9,4.4-1.93c1.5-.7,3-1.44,4.4-2.23a86.09,86.09,0,0,0,7.37-4.48c2.31-1.58,4.55-3.28,6.71-5.07s5.94-5.46,5.94-5.46C211.59,211.13,212,210.72,212.1,210.62Z"/><path class="cls-1" d="M214.88,61.94a.5.5,0,0,1-.19,1,88.48,88.48,0,0,0-30.55,6.42c-1.52.63-3,1.28-4.5,2s-2.93,1.43-4.36,2.22a87,87,0,0,0-28.94,25.52c-.79,1.08-1.55,2.19-2.28,3.31s-1.43,2.22-2.11,3.37a87.78,87.78,0,0,0-9.81,24.13c-.31,1.24-.58,2.5-.83,3.77s-.46,2.49-.65,3.74a86.71,86.71,0,0,0-.4,22.67c.15,1.34.33,2.67.54,4s.46,2.64.74,3.95c.18.91.39,1.81.61,2.72a86.07,86.07,0,0,0,3.69,11.64c.61,1.54,1.27,3.06,2,4.56s1.39,2.89,2.14,4.31a81.45,81.45,0,0,0,4.36,7.31,82.81,82.81,0,0,0,5.14,7c1.37,1.69,4,4.57,4,4.57.19.2.13.28-.12.18,0,0-1.76-.72-2.87-1.22-1.46-.65-2.9-1.36-4.34-2.12s-2.81-1.53-4.2-2.37c-1.64-1-3.25-2-4.79-3.14-1.06-.74-2.09-1.51-3.1-2.29s-2.08-1.66-3.08-2.53a79.17,79.17,0,0,1-13.16-14.53c-.73-1-1.42-2.05-2.07-3.1s-1.33-2.13-2-3.22a80.57,80.57,0,0,1-9.59-27.17c-.21-1.28-.38-2.56-.52-3.84s-.26-2.65-.34-4a79.75,79.75,0,0,1,3.83-30c.49-1.47,1-2.92,1.59-4.38s1.18-2.87,1.85-4.29a78.45,78.45,0,0,1,4.16-7.82,79.69,79.69,0,0,1,22.34-24A68.07,68.07,0,0,1,143.89,66a76.87,76.87,0,0,1,7.43-3.72,80.74,80.74,0,0,1,32.2-6.7A79.74,79.74,0,0,1,214.88,61.94Z"/><path class="cls-1" d="M304.06,216.46a.5.5,0,0,1-1-.21,88.44,88.44,0,0,0-2.24-18.07A84.53,84.53,0,0,0,297,185.63c-.59-1.51-1.24-3-1.93-4.5s-1.39-2.91-2.16-4.33c-5.65-10.66-22.67-27.26-22.67-27.26l-.36-.36,0,0-.44-.34s-1.69-1.3-2.76-2.06-2.19-1.54-3.32-2.26a87.92,87.92,0,0,0-28-11.88c-1.25-.29-2.51-.55-3.77-.78s-2.52-.44-3.78-.61a86,86,0,0,0-11.9-.83,87.11,87.11,0,0,0-11.73.79c-1.36.19-2.71.4-4.06.66s-3.38.68-3.38.68l-.52.11-.54.15s-7.41,2-11.17,3.42q-2.32.89-4.57,1.89c-1.47.66-2.92,1.35-4.34,2.09a82.49,82.49,0,0,0-7.4,4.31,83.35,83.35,0,0,0-6.93,5c-1.7,1.37-4.57,3.94-4.57,3.94-.2.18-.28.13-.17-.13,0,0,.75-1.76,1.27-2.86.66-1.43,1.38-2.86,2.14-4.26s1.54-2.77,2.39-4.13c1-1.65,2.08-3.24,3.2-4.78.75-1.05,1.53-2.07,2.32-3.07s1.66-2,2.52-3a79,79,0,0,1,11.88-11c1-.76,2-1.49,3-2.17s2.1-1.41,3.17-2.07a80.46,80.46,0,0,1,28.16-10.71c1.27-.23,2.55-.42,3.84-.59s2.59-.3,3.9-.39c2.11-.18,4.22-.26,6.34-.26a80,80,0,0,1,28.67,5.32q2.16.82,4.3,1.8t4.28,2.09c1.66.87,3.29,1.81,4.91,2.81a80,80,0,0,1,23.8,22.6,77.89,77.89,0,0,1,4.26,6.89,76.19,76.19,0,0,1,3.64,7.5A80.22,80.22,0,0,1,304.06,216.46Z"/><path class="cls-1" d="M256.23,260.34c-.58,1.47-1.21,2.92-1.87,4.36s-1.37,2.81-2.11,4.2c-.89,1.64-1.84,3.28-2.86,4.88a80,80,0,0,1-22.8,23.54,76.71,76.71,0,0,1-6.92,4.19,74,74,0,0,1-7.54,3.56,80.55,80.55,0,0,1-30.66,6.07,79.73,79.73,0,0,1-34.94-8.05l1.61,0a88.28,88.28,0,0,0,18.79-2.05,89.21,89.21,0,0,0,12.65-3.78c1.53-.58,3-1.21,4.53-1.89s2.93-1.35,4.36-2.1a86.21,86.21,0,0,0,27.81-22.79c.85-1,1.66-2.11,2.45-3.2s1.55-2.15,2.27-3.26c.28-.4.53-.8.79-1.2a87.51,87.51,0,0,0,11.43-26.74c.31-1.25.58-2.5.82-3.76s.45-2.51.64-3.76a86.31,86.31,0,0,0,.4-22.26c-.14-1.32-.31-2.64-.54-3.95s-.43-2.67-.7-4c-.09-.46-.18-.9-.28-1.36a89.51,89.51,0,0,0-3.83-12.71c-.61-1.57-1.26-3.13-2-4.66s-1.37-2.94-2.13-4.38q-1.94-3.7-4.23-7.23a86.35,86.35,0,0,0-5.77-7.84c-.92-1.15-1.89-2.26-2.89-3.35.69.29,1.39.59,2.07.91q2.3,1,4.54,2.24c1.73.93,3.45,1.93,5.14,3q1.94,1.23,3.76,2.55c1.06.75,2.09,1.51,3.09,2.31s2.08,1.68,3.08,2.57a78.72,78.72,0,0,1,12.8,14.2c.73,1,1.41,2,2.08,3.1s1.31,2.13,1.94,3.21a80.54,80.54,0,0,1,9.5,26.72c.22,1.28.4,2.56.56,3.86s.28,2.6.36,3.91A79.75,79.75,0,0,1,256.23,260.34Z"/><path class="cls-2" d="M294.67,232.52a75.51,75.51,0,0,1-1.9,7.89,79.37,79.37,0,0,1-2.74,7.81,80.29,80.29,0,0,1-45.39,44.46.51.51,0,0,1-.56-.82,88.41,88.41,0,0,0,17.48-25.92q1-2.22,1.83-4.48c.58-1.54,1.12-3.11,1.61-4.67A86.33,86.33,0,0,0,268.36,221c-.15-1.33-.33-2.67-.55-4s-.64-3.45-.64-3.45c-.05-.27-.14-.71-.2-1,0,0-.09-.45-.19-.92a87.09,87.09,0,0,0-11-26.92c-.66-1.1-1.36-2.17-2.09-3.23s-1.45-2.09-2.22-3.1A86,86,0,0,0,236,162.5c-1.06-.85-2.15-1.68-3.27-2.48s-2.17-1.53-3.28-2.25c-.39-.26-.77-.51-1.17-.75a86.89,86.89,0,0,0-12.48-6.56q-2.4-1-4.85-1.9T206.17,147q-3-.88-6.07-1.56c-2.78-.59-5.59-1.07-8.42-1.39-2.17-.25-6.07-.49-6.07-.49-.27,0-.29-.11,0-.21,0,0,1.78-.71,2.93-1.12,1.48-.53,3-1,4.53-1.47s3.09-.87,4.68-1.24c1.1-.25,2.19-.48,3.29-.67,1.29-.25,2.57-.46,3.86-.63s2.65-.34,4-.45c2.33-.2,4.64-.31,6.94-.31a79.93,79.93,0,0,1,13.27,1.12c1.23.21,2.46.44,3.68.7s2.45.57,3.66.9a80.74,80.74,0,0,1,25.67,12c1.06.76,2.11,1.53,3.13,2.33s2,1.64,3,2.49a79.91,79.91,0,0,1,21,28.42c.62,1.43,1.21,2.87,1.75,4.34s1.06,3,1.52,4.52c.56,1.79,1,3.6,1.46,5.45A79.9,79.9,0,0,1,294.67,232.52Z"/><path class="cls-2" d="M181.16,223.17c.28,0,.29.11,0,.21,0,0-1.84.78-3,1.22-1.45.56-2.91,1.06-4.4,1.53s-3.07.93-4.63,1.32q-2.81.72-5.61,1.2c-1.27.24-2.54.43-3.81.59s-2.65.31-4,.4q-3.15.27-6.29.27a80.14,80.14,0,0,1-13.28-1.12c-1.23-.21-2.45-.44-3.66-.7s-2.46-.57-3.67-.9a80.87,80.87,0,0,1-26.05-12.29c-1-.75-2.08-1.53-3.09-2.33s-2-1.66-3-2.52a79.73,79.73,0,0,1-21-28.83c-.62-1.44-1.19-2.91-1.73-4.39s-1-3.07-1.51-4.65q-.43-1.47-.81-3a80.15,80.15,0,0,1-1.9-29.08c.3-2.54.73-5.06,1.26-7.53s1.24-5.1,2-7.59a80.33,80.33,0,0,1,46.07-49.75.51.51,0,0,1,.56.82,87.47,87.47,0,0,0-18.16,29.28q-.86,2.28-1.57,4.59c-.48,1.54-.91,3.09-1.3,4.64a87.39,87.39,0,0,0-2.08,30.59c.15,1.36.33,2.72.55,4.07s.43,2.61.7,3.92a87.53,87.53,0,0,0,11.34,28.69c.68,1.1,1.38,2.18,2.1,3.25s1.45,2.07,2.21,3.08a86.5,86.5,0,0,0,15.83,16.24c1.07.85,2.15,1.66,3.27,2.45s2.16,1.52,3.27,2.23c.78.51,1.57,1,2.37,1.49a87.24,87.24,0,0,0,10.88,5.58c1.53.66,3.07,1.26,4.64,1.82s3,1.06,4.56,1.51a83.11,83.11,0,0,0,8.3,2.06c2.73.55,5.49,1,8.26,1.23C177.15,223,181.16,223.17,181.16,223.17Z"/><path class="cls-2" d="M227.26,229.89c-.21,1.23-.46,2.44-.73,3.65s-.59,2.44-.93,3.66a80.72,80.72,0,0,1-12.3,25.54c-.75,1.05-1.53,2.08-2.32,3.09s-1.67,2-2.55,3a79.79,79.79,0,0,1-28.65,20.74c-1.42.6-2.88,1.18-4.35,1.7s-3,1-4.53,1.48c-1.79.52-3.63,1-5.49,1.4a80.26,80.26,0,0,1-40.61-1.6A82,82,0,0,1,117,289.7a80.3,80.3,0,0,1-42.15-41.39c.23.24.46.47.71.69a87.46,87.46,0,0,0,26.17,17.24c1.58.67,3.16,1.28,4.77,1.86s3.16,1.08,4.76,1.54a87.14,87.14,0,0,0,24.58,3.51,91,91,0,0,0,11.72-.77c1.36-.18,2.7-.39,4.05-.64s2.63-.5,3.95-.79a86.24,86.24,0,0,0,28.82-12.47c1.07-.71,2.12-1.46,3.16-2.22s2-1.53,3-2.33a89.71,89.71,0,0,0,8.52-7.85,86.94,86.94,0,0,0,7.58-9.09c.79-1.08,1.55-2.18,2.27-3.29s1.45-2.23,2.12-3.37a85.24,85.24,0,0,0,6.77-14.17c.56-1.47,1.06-3,1.53-4.47s.92-3.11,1.31-4.69a85.64,85.64,0,0,0,1.76-9.19c.37-2.68.61-5.4.73-8.14,0-.9.06-1.79.07-2.7.2.5.39,1,.56,1.51.56,1.54,1.06,3.09,1.52,4.67.52,1.76,1,3.56,1.38,5.38.32,1.48.6,3,.85,4.44.21,1.32.39,2.63.53,3.94s.25,2.58.34,3.86A79.52,79.52,0,0,1,227.26,229.89Z"/><path class="cls-2" d="M291.68,120.56a.5.5,0,0,1-.81.56A87.67,87.67,0,0,0,276.45,110a85.56,85.56,0,0,0-11.67-6.06c-1.5-.65-3-1.24-4.56-1.81s-3.06-1-4.61-1.52a86.93,86.93,0,0,0-35.83-3c-1.34.17-2.67.36-4,.59s-2.62.48-3.93.76a88.16,88.16,0,0,0-23.24,8.66c-2.26,1.24-4.47,2.57-6.6,4-1.08.71-2.13,1.45-3.17,2.21s-2,1.53-3,2.33a86.38,86.38,0,0,0-13.38,13.38c-.86,1-1.67,2.11-2.46,3.2s-1.56,2.16-2.28,3.26c-.52.78-1,1.56-1.51,2.34-2.16,3.5-5.47,10.35-5.47,10.35l-.22.45-.2.47s-1.1,2.57-1.66,4.09-1.12,3.09-1.61,4.65c-.86,2.74-1.57,5.53-2.16,8.34s-1,5.66-1.32,8.53c-.21,2.11-.39,5.86-.39,5.86,0,.28-.11.3-.22,0,0,0-.7-1.71-1.12-2.82-.55-1.49-1.07-3-1.53-4.57s-.89-3.07-1.28-4.65q-.67-2.81-1.14-5.61c-.22-1.29-.4-2.59-.55-3.88s-.29-2.63-.37-3.94A79,79,0,0,1,138,136.08c.22-1.22.47-2.44.75-3.64s.59-2.45.92-3.66a80.47,80.47,0,0,1,9.94-22.1c.7-1.09,1.43-2.16,2.18-3.21s1.54-2.1,2.36-3.12A79.76,79.76,0,0,1,184,77.08c1.44-.66,2.89-1.27,4.38-1.83s3-1.08,4.5-1.57q2.64-.83,5.38-1.49a80.15,80.15,0,0,1,18.88-2.25A79.3,79.3,0,0,1,231,71.16a80.41,80.41,0,0,1,60.64,49.4Z"/><path class="cls-3" d="M363.46,153l28.41,68.25,30.43-68.06,2.6,1.25-31.78,71-10.75,24.28H379.2l10.94-24.86L360.77,154Z"/><path class="cls-3" d="M469.63,152.69a35.61,35.61,0,0,1,29.95,16.41,30.44,30.44,0,0,1,2.88,5.38V154.42h2.88v71h-2.88V202.32a43.24,43.24,0,0,1-16.12,19.87h-.1a34.93,34.93,0,0,1-35.47-.14,35.79,35.79,0,0,1-11.28-10.42,36.33,36.33,0,0,1-5.91-14.16,37.92,37.92,0,0,1,.15-15.31,36.42,36.42,0,0,1,11.33-19.87A35.71,35.71,0,0,1,466,152.88,32.73,32.73,0,0,1,469.63,152.69Zm0,2.88a28.37,28.37,0,0,0-3.36.19A33.16,33.16,0,0,0,447,164.4a34.69,34.69,0,0,0-10.47,18.43,33.87,33.87,0,0,0-.09,14.11A34.75,34.75,0,0,0,441.89,210a32.76,32.76,0,0,0,10.37,9.5,31.92,31.92,0,0,0,13.34,4.42,30.54,30.54,0,0,0,19.1-4.13,40.93,40.93,0,0,0,13-14.3,35.75,35.75,0,0,0,4.71-17.76,32.79,32.79,0,0,0-32.74-32.16Z"/><path class="cls-3" d="M551,153.07h.38a10.91,10.91,0,0,1,2,.19l-.38,2.79a17.85,17.85,0,0,0-12.87,3.45,17.62,17.62,0,0,0-7.1,11.33c-.13.77-.23,1.54-.29,2.31v52.32h-2.88V154.61h2.88v8.83a20.4,20.4,0,0,1,5.66-6.24A20.61,20.61,0,0,1,551,153.07Z"/><path class="cls-3" d="M569,154.42h2.88v13.24a33.56,33.56,0,0,1,6.24-7.48,30.47,30.47,0,0,1,15.26-7.2,32.39,32.39,0,0,1,5-.39,26.13,26.13,0,0,1,8.35,1.35,24.53,24.53,0,0,1,11.13,7.58,27.4,27.4,0,0,1,5.86,12.1,68.5,68.5,0,0,1,1,13.15v38.69h-2.88V186.77a68.61,68.61,0,0,0-.86-12.48,24.27,24.27,0,0,0-5.28-10.85,20.83,20.83,0,0,0-9.8-6.72,25.27,25.27,0,0,0-12-1,27.89,27.89,0,0,0-22,18.91v50.79H569v-71Z"/><path class="cls-4" d="M385.86,127.6l-10.55-14.14h-10.4V127.6H360.8V91.2h15.65a17.62,17.62,0,0,1,5.43.78A12.32,12.32,0,0,1,386,94.19a9.85,9.85,0,0,1,2.65,3.43,10.46,10.46,0,0,1,.94,4.45,10.92,10.92,0,0,1-.73,4.09,9.43,9.43,0,0,1-2.06,3.12,11.58,11.58,0,0,1-3.14,2.21,14.59,14.59,0,0,1-3.95,1.25l11.18,14.86Zm-2.81-30.7a11,11,0,0,0-6.88-1.9H364.91v14.81h11.2a12.85,12.85,0,0,0,3.76-.52,9.19,9.19,0,0,0,3-1.48,6.91,6.91,0,0,0,2-2.38,7,7,0,0,0,.71-3.18A6.39,6.39,0,0,0,383.05,96.9Z"/><path class="cls-4" d="M424.71,94.94H402.5v12.43h19.87v3.74H402.5v12.74H425v3.75H398.39V91.2h26.32Z"/><path class="cls-4" d="M436.82,102.6a4.66,4.66,0,0,0,1.51,1.9,11.09,11.09,0,0,0,3,1.56,35.91,35.91,0,0,0,4.94,1.33q6.07,1.35,9,3.75a8.14,8.14,0,0,1,2.88,6.61,9.58,9.58,0,0,1-3.47,7.56,11.59,11.59,0,0,1-3.91,2.08,16.27,16.27,0,0,1-5,.73,21.8,21.8,0,0,1-8-1.41,22.59,22.59,0,0,1-6.89-4.36l2.55-3a21.66,21.66,0,0,0,5.77,3.88,16.77,16.77,0,0,0,6.71,1.27,9.32,9.32,0,0,0,5.9-1.72,5.45,5.45,0,0,0,2.21-4.53,6.23,6.23,0,0,0-.41-2.32,4.74,4.74,0,0,0-1.46-1.85,10.5,10.5,0,0,0-2.9-1.51,37.59,37.59,0,0,0-4.71-1.3,37.73,37.73,0,0,1-5.45-1.56,13.36,13.36,0,0,1-3.83-2.14,7.72,7.72,0,0,1-2.24-2.91,9.76,9.76,0,0,1-.73-4,9,9,0,0,1,.88-4,9.17,9.17,0,0,1,2.5-3.15,12.18,12.18,0,0,1,3.79-2.09,14.67,14.67,0,0,1,4.79-.75,20.27,20.27,0,0,1,7,1.1,21.33,21.33,0,0,1,5.8,3.32l-2.39,3.17a17.94,17.94,0,0,0-5.12-3,15.75,15.75,0,0,0-5.39-.93,10.23,10.23,0,0,0-3.19.47A8.07,8.07,0,0,0,438.51,96,5.49,5.49,0,0,0,437,97.91a5.23,5.23,0,0,0-.54,2.35A6.21,6.21,0,0,0,436.82,102.6Z"/><path class="cls-4" d="M470.62,111.22V127.6h-4.11V91.2h4.11v16.17h21V91.2h4.11v36.4h-4.11V111.22Z"/><path class="cls-4" d="M539.94,127.6h-4.42L531.25,118H511.44l-4.31,9.62h-4.22L519.5,90.94h3.85ZM521.37,95.77l-8.32,18.57h16.59Z"/><path class="cls-5" d="M374.58,276.56a3.73,3.73,0,0,1-1.27,1.44,6,6,0,0,1-2,.87,10.91,10.91,0,0,1-2.58.28h-8v-16.8h7.79a6.37,6.37,0,0,1,4.06,1.18,3.84,3.84,0,0,1,1.47,3.17v.05a3.95,3.95,0,0,1-.65,2.26,3.49,3.49,0,0,1-.7.78,4.34,4.34,0,0,1-.84.58,5.72,5.72,0,0,1,2.29,1.5,3.83,3.83,0,0,1,.84,2.63v.05A4.29,4.29,0,0,1,374.58,276.56Zm-4.14-9.24a1.48,1.48,0,0,0-.62-1.28,3.07,3.07,0,0,0-1.8-.45h-3.65v3.56h3.41a3.83,3.83,0,0,0,1.94-.42,1.46,1.46,0,0,0,.72-1.36Zm.94,6.72a1.59,1.59,0,0,0-.65-1.33,3.48,3.48,0,0,0-2.09-.49h-4.27v3.69h4.39a3.5,3.5,0,0,0,1.92-.44,1.52,1.52,0,0,0,.7-1.38Z"/><path class="cls-5" d="M386.52,272.46v6.69h-3.69v-6.62l-6.46-10.18h4.32l4,6.75,4.08-6.75H393Z"/><path class="cls-5" d="M412.68,279.15l-3.6-5.37h-2.9v5.37h-3.7v-16.8h7.68a6.83,6.83,0,0,1,4.67,1.47,5.13,5.13,0,0,1,1.67,4.08V268a5.23,5.23,0,0,1-1,3.32,5.71,5.71,0,0,1-2.6,1.88l4.1,6Zm.07-11.06a2.14,2.14,0,0,0-.76-1.8,3.42,3.42,0,0,0-2.14-.6h-3.67v4.82h3.74a3.08,3.08,0,0,0,2.1-.64,2.2,2.2,0,0,0,.73-1.73Z"/><path class="cls-5" d="M419.83,279.15v-16.8h12.65v3.29h-9v3.41h7.92v3.29h-7.92v3.53h9.12v3.28Z"/><path class="cls-5" d="M447.61,276.41a4.73,4.73,0,0,1-1.27,1.63,5.81,5.81,0,0,1-1.93,1,8.49,8.49,0,0,1-2.5.34,11.07,11.07,0,0,1-3.76-.66,9.83,9.83,0,0,1-3.36-2l2.18-2.62a11.45,11.45,0,0,0,2.36,1.49,6.33,6.33,0,0,0,2.66.55,3.21,3.21,0,0,0,1.78-.42,1.31,1.31,0,0,0,.64-1.16v-.05a1.47,1.47,0,0,0-.13-.64,1.37,1.37,0,0,0-.51-.51,5.31,5.31,0,0,0-1-.48c-.44-.16-1-.33-1.72-.51a23,23,0,0,1-2.31-.69,6.8,6.8,0,0,1-1.76-.95,4,4,0,0,1-1.12-1.41,4.91,4.91,0,0,1-.4-2.08v-.05a5,5,0,0,1,.43-2.08,4.71,4.71,0,0,1,1.21-1.59,5.3,5.3,0,0,1,1.85-1,7.46,7.46,0,0,1,2.37-.36,10.06,10.06,0,0,1,3.4.56,9.56,9.56,0,0,1,2.84,1.58L445.61,267a12.48,12.48,0,0,0-2.21-1.21,5.75,5.75,0,0,0-2.16-.44,2.61,2.61,0,0,0-1.62.42,1.28,1.28,0,0,0-.54,1v.05a1.46,1.46,0,0,0,.16.71,1.39,1.39,0,0,0,.56.54,5.39,5.39,0,0,0,1.12.45c.48.15,1.07.32,1.8.51a16.78,16.78,0,0,1,2.27.75,6.19,6.19,0,0,1,1.68,1,3.76,3.76,0,0,1,1,1.38,4.74,4.74,0,0,1,.35,1.9v.05A5.24,5.24,0,0,1,447.61,276.41Z"/><path class="cls-5" d="M461.79,279.15v-6.74H455v6.74h-3.7v-16.8H455V269h6.82v-6.65h3.69v16.8Z"/><path class="cls-5" d="M482,279.15l-1.54-3.76h-7.1l-1.54,3.76h-3.77l7.2-16.92h3.41l7.2,16.92Zm-5.09-12.48-2.23,5.45h4.46Z"/><path class="cls-5" d="M501.63,279.15v-11l-4.73,7.17h-.1l-4.68-7.1v10.89h-3.65v-16.8h4l4.41,7.11,4.42-7.11h4v16.8Z"/><path class="cls-5" d="M521.81,279.15l-1.54-3.76h-7.1l-1.54,3.76h-3.76l7.2-16.92h3.4l7.2,16.92Zm-5.09-12.48-2.23,5.45H519Z"/><path class="cls-5" d="M540.05,279.15l-8.14-10.68v10.68h-3.64v-16.8h3.4l7.88,10.35V262.35h3.64v16.8Z"/><path class="cls-5" d="M562.06,274.07a7.84,7.84,0,0,1-1.84,2.66,8.9,8.9,0,0,1-2.83,1.78,9.82,9.82,0,0,1-3.61.64h-6.55v-16.8h6.55a10,10,0,0,1,3.61.64,8.52,8.52,0,0,1,2.83,1.76,7.94,7.94,0,0,1,1.84,2.66,8.34,8.34,0,0,1,.65,3.3v0A8.51,8.51,0,0,1,562.06,274.07Zm-3.22-3.32a5.48,5.48,0,0,0-.37-2,4.74,4.74,0,0,0-1-1.6,4.55,4.55,0,0,0-1.6-1.05,5.47,5.47,0,0,0-2.06-.37h-2.86v10.13h2.86a5.68,5.68,0,0,0,2.06-.36,4.5,4.5,0,0,0,1.6-1,4.9,4.9,0,0,0,1-1.59,5.33,5.33,0,0,0,.37-2Z"/><path class="cls-5" d="M566.16,279.15v-16.8h3.7v16.8Z"/><path class="cls-4" d="M639.25,137.39h-1.1v-8.77h-3.29v-1h7.68v1h-3.29Z"/><path class="cls-4" d="M649.33,134.71h-.05l-3.57-5.24v7.92h-1.08v-9.8h1.12l3.57,5.35,3.57-5.35H654v9.8H652.9v-7.93Z"/></g></svg>