<svg xmlns="http://www.w3.org/2000/svg" viewBox="0 0 1083.32 366.66"><defs><style>.cls-1{fill:#ffbe00;}.cls-2{fill:#ffec00;}.cls-3{fill:#fd0;}.cls-4{fill:red;}.cls-5{fill:#fff;}.cls-6{fill:#583a0b;}.cls-7{fill:#cc7400;}.cls-8{fill:#5b2812;}</style></defs><g id="Contents"><circle class="cls-1" cx="183.58" cy="183.33" r="127.55"/><path class="cls-2" d="M183.58,84A100.23,100.23,0,1,1,83.35,184.18,100.35,100.35,0,0,1,183.58,84m0-2.06A102.3,102.3,0,1,0,285.87,184.18,102.3,102.3,0,0,0,183.58,81.89Z"/><path class="cls-2" d="M183.58,287a102.8,102.8,0,1,1,102.79-102.8A102.91,102.91,0,0,1,183.58,287Zm0-204.59A101.8,101.8,0,1,0,285.37,184.18,101.91,101.91,0,0,0,183.58,82.39Zm0,202.52A100.73,100.73,0,1,1,284.31,184.18,100.83,100.83,0,0,1,183.58,284.91Zm0-200.46a99.73,99.73,0,1,0,99.73,99.73A99.84,99.84,0,0,0,183.58,84.45Z"/><rect class="cls-3" x="182.08" y="61.78" width="2.26" height="12.77"/><path class="cls-3" d="M184.84,75.05h-3.26V61.28h3.26Zm-2.26-1h1.26V62.28h-1.26Z"/><rect class="cls-3" x="186.94" y="67.48" width="12.77" height="2.26" transform="translate(108.13 255.22) rotate(-85)"/><path class="cls-3" d="M194.35,75.61l-3.25-.28,1.2-13.72,3.25.28Zm-2.17-1.19,1.26.11,1-11.73-1.25-.11Z"/><rect class="cls-3" x="196.97" y="68.8" width="12.77" height="2.26" transform="translate(99.18 258.06) rotate(-80)"/><path class="cls-3" d="M203.77,77l-3.21-.56L203,62.87l3.21.56Zm-2.05-1.37,1.24.21,2-11.59L203.76,64Z"/><rect class="cls-3" x="206.86" y="70.99" width="12.77" height="2.26" transform="translate(88.4 259.44) rotate(-75)"/><path class="cls-3" d="M213,79.19l-3.14-.84,3.56-13.3,3.15.84Zm-1.92-1.55,1.22.33,3-11.37-1.21-.33Z"/><rect class="cls-3" x="216.51" y="74.03" width="12.77" height="2.26" transform="translate(76.05 258.93) rotate(-70.01)"/><path class="cls-3" d="M222.07,82.19,219,81.08l4.71-12.94,3.06,1.11Zm-1.78-1.71,1.19.43,4-11.06-1.18-.43Z"/><rect class="cls-3" x="225.86" y="77.91" width="12.77" height="2.26" transform="translate(62.47 256.13) rotate(-65)"/><path class="cls-3" d="M230.82,86l-3-1.37,5.82-12.48,2.95,1.37Zm-1.63-1.86,1.14.54,5-10.67-1.15-.53Z"/><rect class="cls-3" x="234.84" y="82.58" width="12.77" height="2.26" transform="translate(48.13 250.78) rotate(-60)"/><path class="cls-3" d="M239.2,90.49l-2.83-1.63,6.89-11.93,2.82,1.63Zm-1.46-2,1.09.63,5.88-10.19-1.09-.63Z"/><rect class="cls-3" x="243.38" y="88.02" width="12.77" height="2.26" transform="translate(33.5 242.64) rotate(-55.01)"/><path class="cls-3" d="M247.15,95.72l-2.67-1.87,7.9-11.28,2.67,1.87Zm-1.28-2.11,1,.72,6.75-9.64-1-.73Z"/><rect class="cls-3" x="251.41" y="94.18" width="12.77" height="2.26" transform="translate(19.1 231.57) rotate(-50.01)"/><path class="cls-3" d="M254.62,101.63l-2.5-2.09L261,89l2.5,2.1Zm-1.09-2.22,1,.81,7.56-9-1-.81Z"/><rect class="cls-3" x="258.88" y="101.02" width="12.77" height="2.26" transform="translate(5.49 217.54) rotate(-45.01)"/><path class="cls-3" d="M261.55,108.17l-2.31-2.31L269,96.12l2.3,2.31Zm-.89-2.31.89.89,8.32-8.32-.89-.89Z"/><rect class="cls-3" x="265.72" y="108.48" width="12.77" height="2.26" transform="translate(-6.78 200.6) rotate(-40.01)"/><path class="cls-3" d="M267.88,115.28l-2.1-2.49,10.55-8.86,2.09,2.5Zm-.69-2.37.81,1,9-7.57-.81-1Z"/><rect class="cls-3" x="271.88" y="116.51" width="12.77" height="2.26" transform="translate(-17.13 180.95) rotate(-35.01)"/><path class="cls-3" d="M273.56,122.92l-1.87-2.67,11.28-7.9,1.87,2.67Zm-.48-2.42.73,1,9.64-6.76-.72-1Z"/><rect class="cls-3" x="277.32" y="125.04" width="12.77" height="2.26" transform="translate(-25.07 158.83) rotate(-30.01)"/><path class="cls-3" d="M278.56,131l-1.63-2.83,11.92-6.88,1.63,2.82Zm-.26-2.46.63,1.09,10.19-5.89-.63-1.09Z"/><rect class="cls-3" x="282" y="134.02" width="12.77" height="2.26" transform="translate(-30.1 134.62) rotate(-25.01)"/><path class="cls-3" d="M282.83,139.54l-1.38-3,12.48-5.82,1.38,3Zm-.05-2.47.54,1.14,10.66-5-.53-1.14Z"/><rect class="cls-3" x="285.87" y="143.37" width="12.77" height="2.26" transform="translate(-31.81 108.77) rotate(-20.02)"/><path class="cls-3" d="M286.35,148.39l-1.12-3.06,12.94-4.72,1.12,3.06Zm.16-2.47.44,1.19,11.05-4-.43-1.19Z"/><rect class="cls-3" x="288.92" y="153.02" width="12.77" height="2.26" transform="translate(-29.86 81.78) rotate(-15.02)"/><path class="cls-3" d="M289.08,157.51l-.85-3.15,13.3-3.56.85,3.14Zm.38-2.44.33,1.22,11.36-3-.32-1.22Z"/><rect class="cls-3" x="291.11" y="162.91" width="12.77" height="2.26" transform="translate(-24 54.26) rotate(-10.02)"/><path class="cls-3" d="M291,166.84l-.56-3.21,13.56-2.4.56,3.21Zm.6-2.4.21,1.24,11.6-2.05-.22-1.24Z"/><rect class="cls-3" x="292.44" y="172.94" width="12.77" height="2.26" transform="translate(-14.08 26.81) rotate(-5.02)"/><path class="cls-3" d="M292.11,176.3l-.29-3.25,13.72-1.2.29,3.24Zm.8-2.34.11,1.25,11.72-1-.11-1.25Z"/><rect class="cls-3" x="292.88" y="183.05" width="12.77" height="2.26"/><path class="cls-3" d="M292.39,185.82v-3.26h13.77v3.26Zm1-2.26v1.26h11.77v-1.26Z"/><rect class="cls-3" x="297.7" y="187.91" width="2.26" height="12.77" transform="translate(79.34 475.15) rotate(-85.02)"/><path class="cls-3" d="M305.55,196.52l-13.72-1.2.28-3.24,13.72,1.19Zm-12.64-2.11,11.73,1,.11-1.25-11.73-1Z"/><rect class="cls-3" x="296.39" y="197.95" width="2.26" height="12.77" transform="translate(44.73 461.95) rotate(-80.02)"/><path class="cls-3" d="M304,207.13l-13.56-2.38.57-3.21,13.56,2.38Zm-12.4-3.2,11.59,2,.22-1.24-11.59-2Z"/><rect class="cls-3" x="294.2" y="207.83" width="2.26" height="12.77" transform="translate(12.07 444.16) rotate(-75.02)"/><path class="cls-3" d="M301.56,217.57,288.26,214l.84-3.15,13.3,3.56Zm-12.08-4.27,11.37,3,.33-1.22-11.37-3Z"/><rect class="cls-3" x="291.16" y="217.49" width="2.26" height="12.77" transform="translate(-17.96 422.1) rotate(-70.03)"/><path class="cls-3" d="M298.2,227.76l-12.94-4.71,1.11-3.06,12.95,4.7Zm-11.66-5.31,11.06,4,.44-1.18-11.07-4Z"/><rect class="cls-3" x="287.29" y="226.84" width="2.26" height="12.77" transform="translate(-44.77 396.21) rotate(-65.03)"/><path class="cls-3" d="M294,237.61l-12.48-5.81,1.38-3,12.48,5.82Zm-11.15-6.3,10.67,5,.53-1.14-10.67-5Z"/><rect class="cls-3" x="282.62" y="235.82" width="2.26" height="12.77" transform="translate(-67.82 367.01) rotate(-60.03)"/><path class="cls-3" d="M288.9,247.06,277,240.18l1.63-2.82,11.93,6.88Zm-10.56-7.25,10.19,5.88.63-1.09L279,238.72Z"/><rect class="cls-3" x="277.19" y="244.36" width="2.26" height="12.77" transform="translate(-86.68 335.09) rotate(-55.03)"/><path class="cls-3" d="M283,256l-11.28-7.89,1.87-2.67,11.28,7.89Zm-9.89-8.14,9.65,6.75.72-1-9.65-6.74Z"/><rect class="cls-3" x="271.03" y="252.4" width="2.26" height="12.77" transform="translate(-101 301.12) rotate(-50.03)"/><path class="cls-3" d="M276.39,264.45l-10.56-8.84,2.1-2.5L278.48,262Zm-9.15-9,9,7.56.81-1-9-7.56Z"/><rect class="cls-3" x="264.19" y="259.86" width="2.26" height="12.77" transform="translate(-110.55 265.8) rotate(-45.03)"/><path class="cls-3" d="M269,272.27l-9.74-9.74,2.3-2.3,9.75,9.73Zm-8.33-9.74,8.33,8.32.89-.89-8.33-8.32Z"/><rect class="cls-3" x="256.73" y="266.71" width="2.26" height="12.77" transform="translate(-115.24 229.85) rotate(-40.03)"/><path class="cls-3" d="M261,279.41l-8.85-10.54,2.49-2.1,8.86,10.54ZM253.6,269l7.57,9,1-.81-7.57-9Z"/><rect class="cls-3" x="248.71" y="272.87" width="2.26" height="12.77" transform="translate(-115.04 194.02) rotate(-35.03)"/><path class="cls-3" d="M252.45,285.83l-7.9-11.27,2.67-1.88,7.9,11.28Zm-6.51-11,6.76,9.64,1-.72L247,274.08Z"/><rect class="cls-3" x="240.17" y="278.32" width="2.26" height="12.77" transform="matrix(0.87, -0.5, 0.5, 0.87, -110.1, 159.01)"/><path class="cls-3" d="M243.34,291.48l-6.9-11.92,2.83-1.64,6.89,11.93Zm-5.53-11.56,5.89,10.19,1.09-.63-5.89-10.19Z"/><rect class="cls-3" x="231.2" y="283" width="2.26" height="12.77" transform="translate(-100.63 125.51) rotate(-25.04)"/><path class="cls-3" d="M233.76,296.31l-5.82-12.48,2.95-1.38,5.83,12.48Zm-4.5-12,5,10.66,1.14-.53-5-10.67Z"/><rect class="cls-3" x="221.85" y="286.88" width="2.26" height="12.77" transform="translate(-86.98 94.15) rotate(-20.04)"/><path class="cls-3" d="M223.8,300.29l-4.71-12.94,3.06-1.12,4.72,12.94ZM220.37,288l4,11.06,1.18-.44-4-11.05Z"/><rect class="cls-3" x="212.19" y="289.93" width="2.26" height="12.77" transform="translate(-69.58 65.5) rotate(-15.04)"/><path class="cls-3" d="M213.54,303.38,210,290.08l3.15-.84,3.57,13.3Zm-2.35-12.59,3.05,11.37,1.22-.33-3.05-11.37Z"/><rect class="cls-3" x="202.31" y="292.12" width="2.26" height="12.77" transform="translate(-48.92 40.04) rotate(-10.04)"/><path class="cls-3" d="M203,305.57,200.64,292l3.21-.56,2.4,13.55Zm-1.24-12.75,2,11.59,1.24-.22L203,292.6Z"/><rect class="cls-3" x="192.28" y="293.45" width="2.26" height="12.77" transform="matrix(1, -0.09, 0.09, 1, -25.6, 18.15)"/><path class="cls-3" d="M192.39,306.84l-1.21-13.72,3.25-.28,1.21,13.71ZM192.26,294l1,11.72,1.25-.11-1-11.72Z"/><rect class="cls-3" x="182.17" y="293.9" width="2.26" height="12.77"/><path class="cls-3" d="M181.67,307.17V293.4h3.26v13.77Zm1-12.77v11.77h1.26V294.4Z"/><rect class="cls-3" x="166.8" y="298.72" width="12.77" height="2.26" transform="translate(-140.51 446.47) rotate(-85.04)"/><path class="cls-3" d="M174.21,306.85l-3.25-.28,1.19-13.72,3.25.28Zm-2.16-1.19,1.25.11,1-11.73-1.26-.11Z"/><rect class="cls-3" x="156.76" y="297.41" width="12.77" height="2.26" transform="translate(-159.1 407.63) rotate(-80.05)"/><path class="cls-3" d="M163.56,305.6l-3.21-.56,2.38-13.57,3.21.57Zm-2.05-1.37,1.24.21,2-11.59-1.24-.22Z"/><rect class="cls-3" x="146.88" y="295.23" width="12.77" height="2.26" transform="translate(-172.6 367.96) rotate(-75.05)"/><path class="cls-3" d="M153.06,303.43l-3.15-.84,3.55-13.31,3.15.84Zm-1.93-1.55,1.22.32,3-11.37-1.22-.32Z"/><rect class="cls-3" x="137.22" y="292.19" width="12.77" height="2.26" transform="translate(-181.11 328.2) rotate(-70.05)"/><path class="cls-3" d="M142.79,300.35l-3.07-1.12,4.7-12.94,3.07,1.11ZM141,298.64l1.19.43,4-11.07-1.18-.43Z"/><rect class="cls-3" x="127.86" y="288.32" width="12.77" height="2.26" transform="translate(-184.82 289.09) rotate(-65.05)"/><path class="cls-3" d="M132.82,296.38,129.87,295l5.81-12.49,2.95,1.38Zm-1.62-1.86,1.14.53,5-10.67-1.14-.53Z"/><rect class="cls-3" x="118.88" y="283.66" width="12.77" height="2.26" transform="translate(-184.03 251.12) rotate(-60.05)"/><path class="cls-3" d="M123.24,291.57l-2.82-1.63L127.29,278l2.83,1.62Zm-1.46-2,1.09.63,5.88-10.2-1.09-.63Z"/><rect class="cls-3" x="110.34" y="278.23" width="12.77" height="2.26" transform="translate(-179.12 215) rotate(-55.05)"/><path class="cls-3" d="M114.12,285.93l-2.68-1.86,7.89-11.29,2.67,1.87Zm-1.28-2.11,1,.72,6.74-9.65-1-.72Z"/><rect class="cls-3" x="102.3" y="272.07" width="12.77" height="2.26" transform="translate(-170.54 181.1) rotate(-50.05)"/><path class="cls-3" d="M105.52,279.52l-2.5-2.09,8.84-10.55,2.5,2.09Zm-1.09-2.21,1,.81,7.56-9-1-.81Z"/><rect class="cls-3" x="94.83" y="265.24" width="12.77" height="2.26" transform="translate(-158.81 149.83) rotate(-45.05)"/><path class="cls-3" d="M97.51,272.39l-2.31-2.3,9.73-9.75,2.31,2.31Zm-.89-2.3.89.89,8.31-8.33-.89-.89Z"/><rect class="cls-3" x="87.99" y="257.78" width="12.77" height="2.26" transform="translate(-144.47 121.46) rotate(-40.05)"/><path class="cls-3" d="M90.15,264.59l-2.1-2.5,10.55-8.86,2.09,2.5Zm-.69-2.37.81,1,9-7.57-.81-1Z"/><rect class="cls-3" x="81.82" y="249.76" width="12.77" height="2.26" transform="translate(-128.1 96.17) rotate(-35.05)"/><path class="cls-3" d="M83.5,256.18l-1.87-2.67L92.9,245.6l1.88,2.67ZM83,253.75l.73,1L93.38,248l-.72-1Z"/><rect class="cls-3" x="76.37" y="241.22" width="12.77" height="2.26" transform="translate(-110.25 74.04) rotate(-30.06)"/><path class="cls-3" d="M77.61,247.21,76,244.39,87.9,237.5l1.63,2.82Zm-.26-2.45.63,1.09L88.17,240l-.63-1.09Z"/><rect class="cls-3" x="71.69" y="232.25" width="12.77" height="2.26" transform="translate(-91.49 55.03) rotate(-25.06)"/><path class="cls-3" d="M72.53,237.77l-1.38-3L83.62,229,85,231.94Zm0-2.47.53,1.14,10.66-5-.53-1.14Z"/><rect class="cls-3" x="67.8" y="222.9" width="12.77" height="2.26" transform="translate(-72.34 39.03) rotate(-20.06)"/><path class="cls-3" d="M68.28,227.92l-1.12-3.06,12.94-4.72,1.12,3.06Zm.17-2.46.43,1.18,11.05-4-.43-1.19Z"/><rect class="cls-3" x="64.75" y="213.25" width="12.77" height="2.26" transform="translate(-53.26 25.85) rotate(-15.06)"/><path class="cls-3" d="M64.91,217.74l-.85-3.14L77.36,211l.85,3.15Zm.38-2.44.33,1.22L77,213.46l-.32-1.22Z"/><rect class="cls-3" x="62.55" y="203.37" width="12.77" height="2.26" transform="translate(-34.67 15.19) rotate(-10.06)"/><path class="cls-3" d="M62.44,207.31l-.57-3.21,13.56-2.41L76,204.9Zm.59-2.4.22,1.24,11.59-2.06-.22-1.24Z"/><rect class="cls-3" x="61.22" y="193.34" width="12.77" height="2.26" transform="matrix(1, -0.09, 0.09, 1, -16.89, 6.72)"/><path class="cls-3" d="M60.89,196.7l-.29-3.25,13.72-1.21.29,3.24Zm.79-2.34.12,1.25,11.72-1-.11-1.25Z"/><rect class="cls-3" x="60.77" y="183.22" width="12.77" height="2.26" transform="translate(-0.21 0.07) rotate(-0.06)"/><path class="cls-3" d="M60.27,186v-3.26H74V186Zm1-2.26V185H73v-1.26Z"/><rect class="cls-3" x="66.45" y="167.86" width="2.26" height="12.77" transform="translate(-111.83 226.58) rotate(-85.06)"/><path class="cls-3" d="M74.3,176.46l-13.72-1.19.28-3.25,13.72,1.19Zm-12.64-2.1,11.73,1,.11-1.25-11.73-1Z"/><rect class="cls-3" x="67.76" y="157.82" width="2.26" height="12.77" transform="translate(-104.73 203.73) rotate(-80.07)"/><path class="cls-3" d="M75.39,167l-13.56-2.38.56-3.21L76,163.79ZM63,163.81l11.6,2,.22-1.24-11.6-2Z"/><rect class="cls-3" x="69.94" y="147.93" width="2.26" height="12.77" transform="translate(-96.35 183.22) rotate(-75.07)"/><path class="cls-3" d="M77.3,157.67,64,154.12l.84-3.15,13.3,3.55Zm-12.08-4.26,11.37,3,.33-1.21-11.37-3Z"/><rect class="cls-3" x="72.97" y="138.27" width="2.26" height="12.77" transform="translate(-87.15 165.01) rotate(-70.07)"/><path class="cls-3" d="M80,148.54l-13-4.69,1.12-3.07,12.94,4.7Zm-11.66-5.29,11.06,4,.43-1.19-11.06-4Z"/><rect class="cls-3" x="76.84" y="128.92" width="2.26" height="12.77" transform="translate(-77.59 148.97) rotate(-65.07)"/><path class="cls-3" d="M83.52,139.68,71,133.88l1.37-3,12.49,5.81Zm-11.16-6.29,10.68,5,.53-1.15-10.68-5Z"/><rect class="cls-3" x="81.5" y="119.93" width="2.26" height="12.77" transform="translate(-68.07 134.9) rotate(-60.07)"/><path class="cls-3" d="M87.78,131.17,75.85,124.3l1.62-2.83,11.94,6.87Zm-10.57-7.24,10.2,5.87.63-1.09-10.2-5.87Z"/><rect class="cls-3" x="86.93" y="111.39" width="2.26" height="12.77" transform="translate(-58.92 122.54) rotate(-55.07)"/><path class="cls-3" d="M92.77,123.05l-11.29-7.88,1.87-2.67,11.29,7.88Zm-9.9-8.13,9.65,6.74.72-1-9.65-6.74Z"/><rect class="cls-3" x="93.08" y="103.35" width="2.26" height="12.77" transform="translate(-50.41 111.55) rotate(-50.07)"/><path class="cls-3" d="M98.44,115.41l-10.56-8.84,2.1-2.5,10.56,8.84Zm-9.15-9,9,7.56.81-1-9-7.55Z"/><rect class="cls-3" x="99.91" y="95.88" width="2.26" height="12.77" transform="translate(-42.72 101.58) rotate(-45.07)"/><path class="cls-3" d="M104.76,108.28,95,98.56l2.3-2.31,9.75,9.72Zm-8.33-9.73,8.33,8.32.89-.89-8.33-8.32Z"/><rect class="cls-3" x="107.36" y="89.03" width="2.26" height="12.77" transform="translate(-35.95 92.25) rotate(-40.07)"/><path class="cls-3" d="M111.68,101.73,102.81,91.2l2.5-2.1,8.86,10.54Zm-7.46-10.41,7.58,9,1-.82-7.57-9Z"/><rect class="cls-3" x="115.39" y="82.86" width="2.26" height="12.77" transform="translate(-30.12 83.16) rotate(-35.08)"/><path class="cls-3" d="M119.14,95.82l-7.92-11.27,2.67-1.88,7.92,11.27Zm-6.52-11,6.76,9.63,1-.72-6.76-9.63Z"/><rect class="cls-3" x="123.92" y="77.41" width="2.26" height="12.77" transform="translate(-25.16 73.95) rotate(-30.08)"/><path class="cls-3" d="M127.09,90.57l-6.91-11.92L123,77l6.91,11.92ZM121.55,79l5.9,10.18,1.09-.63-5.9-10.18Z"/><rect class="cls-3" x="132.89" y="72.72" width="2.26" height="12.77" transform="translate(-20.9 64.26) rotate(-25.08)"/><path class="cls-3" d="M135.46,86l-5.84-12.47,3-1.38,5.83,12.47ZM131,74l5,10.66,1.14-.53-5-10.66Z"/><rect class="cls-3" x="142.23" y="68.84" width="2.26" height="12.77" transform="translate(-17.11 53.79) rotate(-20.08)"/><path class="cls-3" d="M144.2,82.25l-4.73-12.94,3.06-1.12,4.73,12.94Zm-3.45-12.34,4,11,1.19-.43-4-11Z"/><rect class="cls-3" x="151.88" y="65.78" width="2.26" height="12.77" transform="translate(-13.51 42.3) rotate(-15.08)"/><path class="cls-3" d="M153.23,79.24l-3.58-13.3,3.15-.85,3.58,13.3Zm-2.36-12.6L153.94,78l1.21-.33-3.06-11.36Z"/><rect class="cls-3" x="161.76" y="63.57" width="2.26" height="12.77" transform="translate(-9.73 29.6) rotate(-10.08)"/><path class="cls-3" d="M162.49,77l-2.41-13.56,3.21-.57,2.41,13.56Zm-1.25-12.75,2.06,11.59,1.24-.22-2.06-11.59Z"/><rect class="cls-3" x="171.8" y="62.24" width="2.26" height="12.77" transform="translate(-5.4 15.59) rotate(-5.08)"/><path class="cls-3" d="M171.91,75.63l-1.22-13.72,3.25-.29,1.22,13.72Zm-.13-12.81,1,11.72,1.26-.11L173,62.7Z"/><path class="cls-4" d="M269,184.27v.27c0-.23,0-.46,0-.7C269,184,269,184.13,269,184.27Zm0-1.7v0ZM269,181.5v0Zm0-.24,0-.31c0,.15,0,.3,0,.45a.34.34,0,0,1,0,.1C269,181.42,269,181.34,269,181.26Zm-.1-1.09a.28.28,0,0,1,0,.09l0,.27a2.45,2.45,0,0,1,0,.27Q268.9,180.49,268.85,180.17Zm-.12-1v.13a.09.09,0,0,1,0,.05A1.1,1.1,0,0,0,268.73,179.15Zm0,8.63a.59.59,0,0,0,0-.13l.06-.44,0-.22C268.78,187.25,268.74,187.52,268.7,187.78Zm-.39,2.16c0,.19-.08.38-.13.56a28.3,28.3,0,0,1-1,3.44c-.07.22-.16.44-.25.67-.18.45-.36.89-.56,1.33-.1.22-.2.44-.31.66a30.13,30.13,0,0,1-1.77,3.18,29.54,29.54,0,0,1-3.72,4.7l-1.16,1.2c.41-.37.8-.76,1.19-1.16a30,30,0,0,0,4.86-6.64l.27-.51c.09-.17.17-.35.25-.52s.17-.34.25-.52l.24-.52c.16-.35.31-.7.44-1.05s.37-1,.54-1.47.31-1,.46-1.48.29-1.12.42-1.69l.12-.56c0-.26.09-.51.14-.76v0l.09-.56Q268.51,189.07,268.31,189.94Zm-.38-14.7a.17.17,0,0,1,0,.07l0,.09C268,175.35,267.94,175.3,267.93,175.24Zm-.11-.36,0,.06a.65.65,0,0,1,0,.13A1.06,1.06,0,0,0,267.82,174.88Zm0-.13h0s0,.06,0,.09A.3.3,0,0,0,267.79,174.75Zm-.32-1,0-.1.07.2A.3.3,0,0,0,267.47,173.75Zm-.56-1.56.18.48a1.17,1.17,0,0,1,.09.24Q267.06,172.55,266.91,172.19Zm-.8-1.88c-.13-.28-.26-.55-.41-.82l.05.11c.27.54.53,1.08.77,1.63C266.39,170.92,266.25,170.61,266.11,170.31Zm-.95-1.84q-.3-.54-.63-1.08c.07.12.14.23.2.35l.37.62,0,.08,0,.06Zm-5.37-7,1.62,1.69C260.9,162.62,260.36,162.06,259.79,161.51Z"/><path class="cls-2" d="M259.78,206.12l-.84-.85,1.16-1.2a30.08,30.08,0,0,0,5.38-7.73l.3-.65c.19-.43.38-.86.55-1.3.09-.22.17-.44.25-.65a30.78,30.78,0,0,0,1-3.38l.12-.54h0q.19-.85.33-1.71l1.18.18c0,.19-.06.38-.09.57l0,.13c0,.13-.06.36-.11.58l-.05.3-.09.39c-.13.57-.27,1.14-.43,1.71s-.3,1-.46,1.51-.35,1-.55,1.5-.29.72-.46,1.08c-.07.17-.15.36-.24.54s-.16.34-.25.52l-.27.54c-.07.15-.17.33-.27.51a30.55,30.55,0,0,1-4.95,6.77C260.6,205.34,260.19,205.74,259.78,206.12Zm9.51-18.22-1.18-.21c0-.19.05-.4.08-.59l0-.18,1.19.14c0,.06,0,.12,0,.18v0c0,.18,0,.32-.06.46A1.57,1.57,0,0,0,269.29,187.9Zm.27-2.7-.21-.63-1,0v-.28h0l0-.43h.68l-.35-1.06h-.34v-.21l.26,0-.31-1.08c0-.15,0-.24,0-.32V181h0v-.15h-.05v-.11s0-.07,0-.11,0-.2,0-.27v-.11h.1v-.17l.15.15.94-.12v.06c0,.16,0,.33.05.48s0,.1,0,.15l-.41,0,.13.13.29,0,0,.33v1.25h0v.3h-.05v1.06h.06c0,.25,0,.49,0,.73h0Zm-.36-3.7h0Zm-1-2,.46-.14-.48,0,0-.17,1.2-.15a1.79,1.79,0,0,1,0,.23Zm-.78-3.91,0-.14,1.12-.41,0,.08a1.46,1.46,0,0,1,.05.2Zm-.09-.35-.05-.16.31-.11-.32.06-.05-.25V174l-.25.07-.07-.2.32-.12v-.81l-.57.2s0-.07,0-.11a.36.36,0,0,0,0-.09c-.07-.2-.13-.35-.19-.5l.84-.34v-.62l.2.54.08,0,.24.63s0,.08,0,.13l-.08,0,.26.69.06,0,0,.09h0v0h0c0,.06,0,.11,0,.16l0,0,.31.82a1,1,0,0,1,0,.16h0a.83.83,0,0,1,0,.15.24.24,0,0,1,0,.08ZM266,171.47c-.24-.54-.49-1.07-.75-1.6a1.22,1.22,0,0,1-.08-.17l1.09-.49c.15.28.29.56.42.85s.29.63.42.94Zm-1.27-2.61-.1-.15c-.14-.26-.26-.46-.38-.66a3.37,3.37,0,0,0-.21-.34l1-.64c.23.36.44.73.65,1.1l0,.07ZM261,163.62l-1.62-1.7.85-.84c.58.56,1.14,1.14,1.65,1.72Z"/><path class="cls-4" d="M266.11,170.31c.14.3.28.61.41.92-.24-.55-.5-1.09-.77-1.63Z"/><path class="cls-2" d="M266,171.47c-.24-.54-.49-1.07-.75-1.6l1.06-.55c.13.24.25.49.37.73h0c.15.31.29.63.42.94Z"/><path class="cls-4" d="M267.47,173.75a.3.3,0,0,1,0,.1l-.07-.2Z"/><path class="cls-2" d="M266.94,174l-.07-.2,1.12-.42,0,.09h0v0h0c0,.06,0,.11,0,.16Z"/><path class="cls-4" d="M268.7,187.78c0-.26.08-.53.11-.79l0,.22-.06.44A.59.59,0,0,1,268.7,187.78Z"/><path class="cls-2" d="M269.29,187.9l-1.18-.21c0-.2.05-.4.08-.6l0-.17,1.19.14a1.11,1.11,0,0,1,0,.17v.05c0,.18,0,.32-.06.46A1.57,1.57,0,0,0,269.29,187.9Z"/><path class="cls-4" d="M269,181.26c0,.08,0,.16,0,.24a.34.34,0,0,0,0-.1c0-.15,0-.3,0-.45Z"/><path class="cls-2" d="M268.36,181.58v-.11c0-.15,0-.24,0-.32V181l1.19-.09,0,.33v.24Z"/><path class="cls-4" d="M269,181.5h0v0Z"/><path class="cls-2" d="M269.56,185.2l-1.2-3.7v-1.45l1.2,1.21Zm-.48-3.7h0Zm-.12,0h0Z"/><path class="cls-4" d="M269,182.65v0Z"/><polygon class="cls-2" points="269.61 182.78 268.41 182.78 268.41 182.57 269.6 182.47 269.61 182.78"/><path class="cls-4" d="M265.18,168.5l0-.06,0,0Z"/><polygon class="cls-2" points="264.73 168.89 264.7 168.86 264.7 168.86 264.6 168.71 262.95 165.41 265.7 168.17 265.69 168.2 264.73 168.89"/><path class="cls-5" d="M269,184.27v.27c0-.23,0-.46,0-.7C269,184,269,184.13,269,184.27Zm0-1.7v0ZM269,181.5v0Zm0-.24,0-.31c0,.15,0,.3,0,.45a.34.34,0,0,1,0,.1C269,181.42,269,181.34,269,181.26Zm-.1-1.09a.28.28,0,0,1,0,.09l0,.27a2.45,2.45,0,0,1,0,.27Q268.9,180.49,268.85,180.17Zm-.12-1v.13a.09.09,0,0,1,0,.05A1.1,1.1,0,0,0,268.73,179.15Zm-.42,10.79c0,.19-.08.38-.13.56a28.3,28.3,0,0,1-1,3.44c-.07.22-.16.44-.25.67-.18.45-.36.89-.56,1.33-.1.22-.2.44-.31.66a30.13,30.13,0,0,1-1.77,3.18,29.54,29.54,0,0,1-3.72,4.7l-1.16,1.2c.41-.37.8-.76,1.19-1.16a30,30,0,0,0,4.86-6.64l.27-.51c.09-.17.17-.35.25-.52s.17-.34.25-.52l.24-.52c.16-.35.31-.7.44-1.05s.37-1,.54-1.47.31-1,.46-1.48.29-1.12.42-1.69l.12-.56c0-.26.09-.51.14-.76v0l.09-.56Q268.51,189.07,268.31,189.94Zm.39-2.16a.59.59,0,0,0,0-.13l.06-.44,0-.22C268.78,187.25,268.74,187.52,268.7,187.78Zm-.77-12.54a.17.17,0,0,1,0,.07l0,.09C268,175.35,267.94,175.3,267.93,175.24Zm-.11-.36,0,.06a.65.65,0,0,1,0,.13A1.06,1.06,0,0,0,267.82,174.88Zm0-.13h0s0,.06,0,.09A.3.3,0,0,0,267.79,174.75Zm-.32-1,0-.1.07.2A.3.3,0,0,0,267.47,173.75Zm-.56-1.56.18.48a1.17,1.17,0,0,1,.09.24Q267.06,172.55,266.91,172.19Zm-.8-1.88c-.13-.28-.26-.55-.41-.82l.05.11c.27.54.53,1.08.77,1.63C266.39,170.92,266.25,170.61,266.11,170.31Zm-.95-1.84q-.3-.54-.63-1.08c.07.12.14.23.2.35l.37.62,0,.08,0,.06Zm-3.87-8.57-.05-.05.08.08.57.57Zm-1.5,1.61,1.62,1.69C260.9,162.62,260.36,162.06,259.79,161.51Z"/><path class="cls-2" d="M259.78,206.12l-.84-.85,1.16-1.2a30.08,30.08,0,0,0,5.38-7.73l.3-.65c.19-.43.38-.86.55-1.3.09-.22.17-.44.25-.65a30.78,30.78,0,0,0,1-3.38l.12-.54h0q.19-.85.33-1.71l1.18.18c0,.19-.06.38-.09.57l0,.13c0,.13-.06.36-.11.58l-.05.3-.09.39c-.13.57-.27,1.14-.43,1.71s-.3,1-.46,1.51-.35,1-.55,1.5-.29.72-.46,1.08c-.07.17-.15.36-.24.54s-.16.34-.25.52l-.27.54c-.07.15-.17.33-.27.51a30.55,30.55,0,0,1-4.95,6.77C260.6,205.34,260.19,205.74,259.78,206.12Zm9.51-18.22-1.18-.21c0-.19.05-.4.08-.59l0-.18,1.19.14c0,.06,0,.12,0,.18v0c0,.18,0,.32-.06.46A1.57,1.57,0,0,0,269.29,187.9Zm.27-2.7-.21-.63-1,0v-.28h0l0-.43h.68l-.35-1.06h-.34v-.21l.26,0-.31-1.08c0-.15,0-.24,0-.32V181h0v-.15h-.05v-.11s0-.07,0-.11,0-.2,0-.27v-.11h.1v-.17l.15.15.94-.12v.06c0,.17,0,.33.05.48s0,.1,0,.15l-.41,0,.13.13.29,0,0,.33v1.25h0v.3h-.05v1.06h.06c0,.25,0,.49,0,.73h0Zm-.36-3.7h0Zm-1-2,.46-.14-.48,0,0-.17,1.2-.15a1.79,1.79,0,0,1,0,.23Zm-.78-3.91,0-.14,1.12-.41,0,.08a1.46,1.46,0,0,1,.05.2Zm-.09-.35-.05-.16.31-.11-.32.06-.05-.25V174l-.25.07-.07-.2.32-.12v-.81l-.57.2s0-.07,0-.11a.36.36,0,0,0,0-.09c-.07-.2-.13-.35-.19-.5l.84-.34v-.62l.2.54.08,0,.24.63s0,.08,0,.13l-.08,0,.26.69.06,0,0,.09h0v0h0c0,.06,0,.11,0,.16l0,0,.31.82a1,1,0,0,1,0,.16h0a.83.83,0,0,1,0,.15.24.24,0,0,1,0,.08ZM266,171.47c-.24-.54-.49-1.07-.75-1.6a1.22,1.22,0,0,1-.08-.17l1.09-.49c.15.28.29.56.42.85s.29.63.42.94Zm-1.27-2.61-.1-.15c-.14-.26-.26-.46-.38-.66a3.37,3.37,0,0,0-.21-.34l1-.64c.23.36.44.73.65,1.1l0,.07ZM261,163.62l-1.62-1.7.85-.84c.58.56,1.14,1.14,1.65,1.72Zm.48-2.7-.56-.56-.09-.08h0l.07-.06.71-.83.11.09q.33.31.63.63Z"/><path class="cls-2" d="M183.38,97.47q-.7,0-1.41,0l-.46,0-1.24.09-.56.06h-.13l-.53.07h0l-.57.09-.66.1-.66.12q-1.31.25-2.58.6l-.64.19-.62.2-.63.2-.62.22-.92.36c-.31.12-.61.25-.91.39l-.6.26-1.18.58-.58.31-.58.32-.57.33-.56.34-.64.41-.47.32c-.38.25-.75.52-1.12.8l-.49.37c-.35.27-.7.55-1,.84-.85.72-1.67,1.49-2.46,2.3l-.63.65s0,0,0,0a32.42,32.42,0,0,0-4.44,6.18h0a29.4,29.4,0,0,0-1.52,3.15h0a32.66,32.66,0,0,0-2.5,13.2c0,.64,0,1.27.09,1.91,0,.48.08,1,.14,1.43s.12.93.19,1.39a32.26,32.26,0,0,0,9.51,18.16l14,13.52-8.06,8.36-14-13.54A32.39,32.39,0,0,0,134.19,153c-.46-.06-.92-.11-1.39-.15l-1.44-.09q-.68,0-1.35,0a32.15,32.15,0,0,0-16.72,4.57,31.73,31.73,0,0,0-5.58,4.2l0,0-1.11,1.16a32.72,32.72,0,0,0,.82,46.12,33,33,0,0,0,6.75,5A33,33,0,0,0,130,217.92c.83,0,1.65,0,2.46-.08.49,0,1-.09,1.45-.15s.92-.11,1.38-.19A32.13,32.13,0,0,0,153.51,208L167,194l8.32,8-13.51,14a32.42,32.42,0,0,0-8.87,18.5q-.09.69-.15,1.38c0,.48-.07,1-.08,1.44a32.64,32.64,0,0,0,3,15.06,30.29,30.29,0,0,0,1.66,3.13,32.68,32.68,0,0,0,51.39,5.78l.86-.9a32.74,32.74,0,0,0,4.24-6,31.6,31.6,0,0,0,1.52-3.16,32.76,32.76,0,0,0,2.49-13.18c0-.65,0-1.28-.09-1.92,0-.48-.08-1-.14-1.44s-.12-.92-.19-1.38a32.35,32.35,0,0,0-9.51-18.15l-14-13.53,8.07-8.36,14,13.55a32.3,32.3,0,0,0,18.45,8.84c.46.06.92.11,1.39.15s.95.07,1.43.09l1.36,0a32.68,32.68,0,0,0,13.59-2.92h0a30.27,30.27,0,0,0,3.09-1.62h0a32.74,32.74,0,0,0,5.55-4.17l1.2-1.25a32.79,32.79,0,0,0,3.9-40.4c-.1-.14-.18-.27-.27-.41l-.27-.4-.57-.79-.39-.51c-.32-.41-.64-.82-1-1.21-.17-.21-.35-.41-.53-.61-.36-.4-.72-.8-1.11-1.18l-.57-.57-.13-.12-.09-.09s0,0,0,0h0a32.56,32.56,0,0,0-6.61-4.85h0a33.8,33.8,0,0,0-3.15-1.51,32.61,32.61,0,0,0-12.65-2.53c-.84,0-1.66,0-2.49.09h0c-.48,0-1,.08-1.44.14h0c-.47,0-.92.12-1.38.19a32.2,32.2,0,0,0-18.17,9.51l-13.52,14-8.31-8,13.52-14a32.35,32.35,0,0,0,8.86-18.48q.09-.69.15-1.38t.09-1.44a32.65,32.65,0,0,0-3-15,30,30,0,0,0-1.64-3.12h0a32.64,32.64,0,0,0-4.7-6.06h0l-.62-.61a33.4,33.4,0,0,0-4-3.27c-.7-.49-1.41-1-2.15-1.38-.36-.21-.73-.42-1.11-.62s-.75-.39-1.13-.58l-.61-.29c-.59-.27-1.19-.52-1.79-.76l-.68-.25L193.19,99c-.35-.1-.7-.21-1.05-.3l-1.06-.28-.71-.16-.71-.14-.68-.13-.17,0-.17,0c-.43-.07-.87-.14-1.31-.19l-.93-.1h-.18l-.64,0-.52,0h-.12c-.23,0-.46,0-.69,0Zm10.67,85.14-8.31-8-.8-.76-.79-.77-6.3-6.08-.79-.76-.79-.76-14-13.52a30.32,30.32,0,0,1-9.09-18.6c0-.48-.09-1-.12-1.45s-.05-1-.05-1.53a30.31,30.31,0,0,1,7.87-20.78h0c.18-.21.38-.42.57-.62s.3-.31.46-.46l.45-.44.43-.41c.48-.44,1-.86,1.48-1.26.16-.14.33-.27.49-.39l.61-.45a3.69,3.69,0,0,1,.4-.29l0,0a28.46,28.46,0,0,1,3.72-2.24l.16-.08a1.51,1.51,0,0,1,.22-.11l.47-.22.29-.14.25-.11c.11-.06.23-.1.34-.15l.39-.17c.77-.32,1.56-.61,2.35-.86h.06l.14-.05.41-.13c.22-.07.43-.13.65-.18l.29-.08.46-.12.76-.18c.29-.06.58-.13.87-.17l.11,0,.58-.1.58-.09c.38-.06.77-.1,1.16-.14l.44,0h.1l.61-.05.58,0,.45,0,.46,0h1.37l.71,0H185l.37,0h.07l.63,0,.3,0h.07l.4,0,.41,0,.42,0,.24,0H188l.43.06.59.11c.24,0,.5.09.75.15l.37.08.37.08c.46.11.93.23,1.39.37l.69.2a26.71,26.71,0,0,1,2.71,1c.63.26,1.25.55,1.86.85l1,.53a3.72,3.72,0,0,1,.39.21l0,0,.34.21.06,0c.2.11.41.24.61.37l.38.24.18.12.53.36a27.35,27.35,0,0,1,3.87,3.15l.57.56,0,0a30.26,30.26,0,0,1,8.66,20.52c0,.26,0,.52,0,.79s0,.49,0,.74c0,.48,0,1-.07,1.46a30.28,30.28,0,0,1-8.41,18.91l-13.52,14-6.3-6.08,13.5-14a21.72,21.72,0,0,0,4.75-22.47h0a20.32,20.32,0,0,0-1.18-2.66,21.38,21.38,0,0,0-4.11-5.49l-.4-.37-.4-.36-.41-.35-.45-.35-.26-.21a0,0,0,0,1,0,0c-.17-.12-.33-.25-.5-.36a.1.1,0,0,0-.05,0l0,0c-.24-.18-.49-.34-.75-.51l-.09-.06c-.15-.1-.29-.19-.44-.27l-.36-.21-.25-.15-.66-.36-.11,0-.26-.13-.29-.14-.3-.14-.28-.13-.62-.26-.06,0a0,0,0,0,0,0,0l-.06,0c-.33-.13-.65-.24-1-.35l-.49-.17-.78-.23h0l-.66-.17-.16,0h0l-.56-.12-.08,0-.31,0-.38-.07c-.13,0-.26,0-.39-.06l-.68-.09c-.25,0-.51-.06-.77-.07l-.17,0-.7,0c-.28,0-.55,0-.83,0h-.6l-.46,0-.36,0-.33,0-.41,0-.38,0h0l-.41.06-.26,0a4,4,0,0,0-.46.07l-.52.09c-.36.07-.7.15-1,.24l-.51.13-1,.31c-.17.06-.34.11-.51.18l-.5.18-.5.2-.5.21c-.66.3-1.31.62-1.94,1l-.71.42-.69.45-.45.32-.39.28A22,22,0,0,0,167.8,115a21.1,21.1,0,0,0-5,8.33h0a21.93,21.93,0,0,0-1.05,6.71,21.6,21.6,0,0,0,6.59,15.59l14,13.51.79.76.79.76,6.31,6.08.78.77.8.76,8.31,8-6.08,6.3Zm-10.17-25-14-13.5a19.48,19.48,0,0,1-.5-27.52l.35-.36.36-.34.36-.33c.12-.12.25-.23.37-.33s.52-.43.79-.63a14.33,14.33,0,0,1,1.23-.86l.42-.26a4.92,4.92,0,0,1,.43-.26c.15-.08.29-.17.44-.24a6.54,6.54,0,0,1,.59-.3c.2-.11.4-.2.6-.29s.24-.11.36-.15l0,0L176,112l.18-.07.25-.09.19-.08.46-.16.64-.2.37-.1.43-.12.11,0a3.94,3.94,0,0,1,.47-.1h0a2.83,2.83,0,0,1,.4-.08l.41-.08.37-.06.26,0,.45-.06.65-.06h.06l.66,0h1.78l.83.06.7.07.24,0,.68.1h0l.8.15.79.19.67.18.2.06.68.22.44.16.05,0,.43.17.07,0,.11,0a2.63,2.63,0,0,1,.35.15c.16.06.32.14.47.21.32.15.63.3.93.47l.45.26.45.26c.15.09.3.18.44.28.44.28.87.59,1.28.91a19.07,19.07,0,0,1,1.6,1.38,19.49,19.49,0,0,1,.49,27.53l-13.5,14Zm8.46,42.59-6.3-6.08,8.06-8.36,1.53-1.58,6.08-6.3.77-.8.76-.79,13.51-14a30.22,30.22,0,0,1,18.61-9.08h0c.48-.06,1-.1,1.45-.13s1,0,1.53,0h.3a30.29,30.29,0,0,1,21.07,8.45l0,0,0,0c.57.55,1.11,1.11,1.62,1.69l.47.54.44.54c.15.18.3.36.43.54,0,0,0,0,0,0q.33.42.63.84h0l.59.85c.1.17.21.33.31.49s.14.23.22.34q.33.54.63,1.08l0,0a.08.08,0,0,0,0,0,0,0,0,0,1,0,0c.09.15.18.31.26.47l.24.47c.15.27.28.54.41.82s.28.61.41.92.18.41.26.62a1.8,1.8,0,0,1,.08.21s0,.08.05.13q.15.36.27.72a1.59,1.59,0,0,1,.07.2c0,.06.05.13.08.2s0,.1,0,.14.05.14.07.2l0,.1a.3.3,0,0,1,0,.1l.18.56v0a1.72,1.72,0,0,1,.07.21v0h0l0,.05a.3.3,0,0,1,0,.1,0,0,0,0,1,0,0,1.06,1.06,0,0,1,.06.19.75.75,0,0,1,0,.16h0c0,.06,0,.11,0,.16l.06.24.05.17c0,.07,0,.15.05.23h0a0,0,0,0,0,0,0v0l0,.1a2,2,0,0,1,.05.24c0,.15.07.29.1.44a1.89,1.89,0,0,1,.05.23v0a3.4,3.4,0,0,1,.07.34l0,.12a.38.38,0,0,1,0,.1c0,.12.05.24.07.36l0,.17c0,.18.06.35.08.52a.13.13,0,0,1,0,.06s0,.06,0,.09V179q0,.08,0,.18a1.1,1.1,0,0,1,0,.18h0a.06.06,0,0,1,0,0v0l0,.21.06.49v.07q0,.32.06.63a.28.28,0,0,1,0,.09V181h0l0,.31c0,.08,0,.16,0,.24h0v.07a.76.76,0,0,1,0,.15c0,.1,0,.19,0,.29v.13c0,.14,0,.28,0,.42v.21c0,.11,0,.23,0,.35v.71c0,.24,0,.47,0,.7s0,.29,0,.44l-.06.82c0,.14,0,.27,0,.41l0,.3c0,.16,0,.32-.05.48l0,.22-.06.44a.59.59,0,0,1,0,.13v0c0,.11,0,.22-.05.33s0,0,0,0a5.43,5.43,0,0,1-.09.56v0c-.05.25-.1.5-.14.76l-.12.56c-.13.57-.27,1.13-.42,1.69s-.29,1-.46,1.48-.34,1-.54,1.47-.28.7-.44,1.05l-.24.52c-.08.18-.16.35-.25.52s-.16.35-.25.52l-.27.51a30,30,0,0,1-4.86,6.64c-.39.4-.78.79-1.19,1.16v0a30,30,0,0,1-9,5.76,30.66,30.66,0,0,1-11,2.31h-1.52c-.49,0-1,0-1.46-.07a30.28,30.28,0,0,1-18.87-8.41l-14-13.55,6.09-6.3,14,13.53a21.56,21.56,0,0,0,15,6.05,21.77,21.77,0,0,0,10-2.43h0a21.16,21.16,0,0,0,4.77-3.36l0,0,.05,0,0,0,.67-.7a21.63,21.63,0,0,0-6.15-34.53c-.48-.23-1-.44-1.45-.64s-.83-.31-1.25-.45h0a22,22,0,0,0-6.72-1.05A21.58,21.58,0,0,0,223,168.34l-13.5,14-.76.8-.77.78-6.07,6.31-.77.79-.76.79-8.07,8.36ZM130,215.73a30.43,30.43,0,0,1-21.88-51.51l1-1.07a30,30,0,0,1,9.12-5.88,30.46,30.46,0,0,1,11-2.31h1.53c.49,0,1,0,1.46.07a30.29,30.29,0,0,1,18.88,8.41l14,13.54-6.07,6.31-14-13.53A21.73,21.73,0,0,0,122.63,165a21.29,21.29,0,0,0-2.64,1.15h0a21.24,21.24,0,0,0-5,3.64l-.47.49a21.62,21.62,0,0,0,6.09,34.5,21.07,21.07,0,0,0,2.71,1.1,21.81,21.81,0,0,0,22.37-5.52l13.49-14,.76-.79.76-.79,6.09-6.3.76-.79.76-.79,8.07-8.36,6.3,6.08L174.56,183l-.76.8-.76.79-6.08,6.3-.77.79-.76.79-13.5,14a30.25,30.25,0,0,1-18.64,9.08c-.48,0-1,.1-1.46.12s-1,.05-1.52.05Zm108.62-12.91a19.32,19.32,0,0,1-13.5-5.43l-14-13.53,13.5-14a19.46,19.46,0,0,1,28,27l-.64.67,0,0a19.29,19.29,0,0,1-13.31,5.23Zm-108.6,1.94a19.42,19.42,0,0,1-14-32.94l.51-.54a19.54,19.54,0,0,1,27,.06l14,13.52-13.49,14a19.29,19.29,0,0,1-14,5.92Zm54.41-12.2-8.31-8,8.06-8.36,8.31,8-8.06,8.36Zm.84,67.72a21.66,21.66,0,0,0,13.07-4.35l.87-.7c.28-.23.55-.48.82-.73h0l.41-.4.4-.4.15-.16a21.61,21.61,0,0,0,3.77-5.48,22.74,22.74,0,0,0,1.06-2.69,21.75,21.75,0,0,0-5.55-22.28l-14-13.51-.8-.77-.79-.76L178.44,202l-.8-.76-.79-.76-8.31-8,6.08-6.3,8.31,8,.79.77.79.76,6.31,6.08.79.76.79.77,14,13.52a30.25,30.25,0,0,1,9.08,18.59c.05.48.1,1,.12,1.46s0,1,0,1.52A30.25,30.25,0,0,1,207.94,259l-.76.79a30.38,30.38,0,0,1-52.26-20.31c0-.27,0-.54,0-.82s0-.47,0-.71c0-.49,0-1,.07-1.46a30.2,30.2,0,0,1,8.41-18.93l13.51-14,6.3,6.09-13.49,14A21.74,21.74,0,0,0,165,246.13a21.25,21.25,0,0,0,1.19,2.68,21.61,21.61,0,0,0,4.08,5.43,21.54,21.54,0,0,0,15,6Zm0-2.19a19.44,19.44,0,0,1-14-32.95l13.49-14,14,13.52a19.49,19.49,0,0,1,.62,27.38l-.11.11-.35.35c-.36.35-.72.68-1.09,1l-.4.33c-.43.35-.87.67-1.32,1s-.8.51-1.22.75h0c-.18.1-.36.2-.55.29-.34.18-.69.36-1,.52a19.64,19.64,0,0,1-8,1.7Z"/><path class="cls-2" d="M185.28,271.84a33.18,33.18,0,0,1-28.42-16,30.52,30.52,0,0,1-1.69-3.19,33.27,33.27,0,0,1-3-15.33c0-.49,0-1,.08-1.47s.1-.94.16-1.41a32.81,32.81,0,0,1,9-18.84L174.48,202,167,194.85l-13.09,13.56a32.73,32.73,0,0,1-18.53,9.68c-.46.08-.93.15-1.41.2s-1,.11-1.46.14c-.85.06-1.69.09-2.51.09a33.1,33.1,0,0,1-12.93-2.59,33.5,33.5,0,0,1-3.25-1.58,33.28,33.28,0,0,1-7.71-52.07l1.11-1.15A33.18,33.18,0,0,1,113,156.8a32.36,32.36,0,0,1,3.15-1.65,33,33,0,0,1,13.88-3c.46,0,.92,0,1.37,0s1,0,1.48.09l1.4.15a32.79,32.79,0,0,1,18.8,9l13.6,13.12,7.24-7.49L160.31,154a32.83,32.83,0,0,1-9.68-18.5c-.08-.47-.14-.94-.19-1.41s-.11-1-.15-1.46c0-.64-.08-1.29-.09-1.94a33.27,33.27,0,0,1,2.55-13.45l0-.09a30.33,30.33,0,0,1,1.44-3h0l.07-.14a33.48,33.48,0,0,1,4.49-6.26l.07-.08.63-.65c.77-.79,1.61-1.58,2.5-2.33.34-.3.7-.59,1.06-.87l.48-.37c.38-.28.77-.56,1.16-.82l.47-.32.66-.42.5-.31.65-.37.58-.33.47-.25.12-.06c.4-.21.8-.4,1.21-.59l.47-.21.13-.06.94-.4.94-.36.63-.23.64-.21.47-.15.16,0,.66-.2c.86-.23,1.75-.44,2.62-.61l.67-.12.66-.11.59-.08.72-.09.52,0c.47,0,.89-.08,1.31-.1l.48,0c.76,0,1.55,0,2.31,0l.66,0h.25l.45,0,.66,0,.16,0c.32,0,.64.06,1,.1s.9.11,1.34.18l.07.62-.1.59-.07-.61-.09.59q-.65-.11-1.29-.18l-.91-.1h-.15l-.66,0-.51,0h-.12l-.67,0c-.75,0-1.49,0-2.24,0l-.45,0c-.41,0-.82,0-1.22.09l-.54.06-.74.08-.52.08-.66.11-.63.11c-.84.16-1.7.36-2.54.59l-.62.18-.16,0-.45.15-.63.2-.6.22-.91.34-.88.38-.6.27c-.39.18-.77.36-1.15.56l-.12.07c-.15.08-.3.15-.45.24l-.57.31c-.19.11-.38.21-.56.33l-.55.33-.63.4-.46.31c-.38.26-.74.52-1.1.79l-.48.37c-.35.26-.68.53-1,.82a29.14,29.14,0,0,0-2.41,2.26l-.67.68a32,32,0,0,0-4.27,5.93l-.07.13a30.17,30.17,0,0,0-1.49,3.09l0,.1a32,32,0,0,0-2.42,12.87c0,.63,0,1.25.09,1.87,0,.47.08.94.14,1.41s.11.91.18,1.36a31.68,31.68,0,0,0,9.33,17.83L175.59,167l-8.9,9.22-14.46-14a31.64,31.64,0,0,0-18.12-8.68c-.45-.05-.9-.11-1.35-.14s-.95-.07-1.43-.09l-1.32,0a31.81,31.81,0,0,0-13.38,2.89,31.67,31.67,0,0,0-8.51,5.72L107,163.12a32,32,0,0,0,7.44,50.18,30.91,30.91,0,0,0,3.12,1.52,31.92,31.92,0,0,0,12.47,2.5c.79,0,1.61,0,2.42-.08l1.41-.14c.46,0,.91-.11,1.35-.19a31.53,31.53,0,0,0,17.87-9.34L167,193.15l9.18,8.85-13.93,14.44a31.66,31.66,0,0,0-8.7,18.15c-.06.46-.11.91-.15,1.37s-.07.94-.09,1.41a32.25,32.25,0,0,0,2.95,14.78,28.3,28.3,0,0,0,1.63,3.07,32.06,32.06,0,0,0,50.43,5.67l.87-.9a31.17,31.17,0,0,0,4.14-5.84,29.5,29.5,0,0,0,1.49-3.1,31.76,31.76,0,0,0,2.45-12.94c0-.63,0-1.26-.09-1.88s-.08-.95-.13-1.42-.12-.9-.2-1.35a31.64,31.64,0,0,0-9.32-17.82L193.08,201.7l8.89-9.22,14.47,14a31.71,31.71,0,0,0,18.11,8.68l1.37.14c.46,0,.93.07,1.4.09a31.63,31.63,0,0,0,14.59-2.79h0l.1-.05a30.93,30.93,0,0,0,3-1.55l.07-.05a31.3,31.3,0,0,0,5.45-4.09l1.18-1.22a32.18,32.18,0,0,0,3.82-39.66l-.53-.8-.55-.77c-.13-.18-.26-.34-.39-.51-.31-.4-.63-.8-1-1.18l-.52-.6c-.35-.39-.71-.78-1.08-1.15l-.57-.57-.13-.13.33-.51-.42.43a31.67,31.67,0,0,0-6.37-4.7h-.45v-.25c-1-.51-1.88-.94-2.77-1.32a31.92,31.92,0,0,0-12.43-2.48c-.82,0-1.64,0-2.44.09-.48,0-1,.08-1.42.13l-1.36.19a31.61,31.61,0,0,0-17.83,9.34l-13.93,14.44-9.17-8.86,13.93-14.44a31.69,31.69,0,0,0,8.7-18.14c.06-.46.11-.91.14-1.36s.07-.94.09-1.41a32.24,32.24,0,0,0-2.91-14.76,31,31,0,0,0-1.58-3l0,0a32.11,32.11,0,0,0-4.61-6l-.62-.59a31.45,31.45,0,0,0-3.9-3.22c-.7-.48-1.41-.94-2.11-1.35-.36-.21-.72-.42-1.09-.62s-.73-.38-1.11-.56l-.61-.29c-.57-.26-1.16-.5-1.75-.74l-.67-.25c-.44-.15-.9-.31-1.35-.45l-1-.31L191,99l-.79-.18-.21,0-.48-.09-.68-.13-.06-.62.09-.59.11,0,.76.14.5.1.22,0,.73.17.1,0,1,.25,1.06.31,1.41.47.7.26c.61.25,1.22.5,1.81.77l.62.3c.4.19.78.38,1.16.59s.77.41,1.14.63c.73.43,1.46.91,2.18,1.41a33,33,0,0,1,4.05,3.33l.63.6a33.24,33.24,0,0,1,4.76,6.13l0,.06a33.21,33.21,0,0,1,4.7,18.48q0,.74-.09,1.47t-.15,1.41a32.9,32.9,0,0,1-9,18.82l-13.1,13.58,7.45,7.19,13.1-13.57a32.67,32.67,0,0,1,18.5-9.69c.47-.08.94-.14,1.41-.2s1-.1,1.47-.14c.83-.06,1.68-.09,2.53-.09a33.11,33.11,0,0,1,12.89,2.58,32.5,32.5,0,0,1,3.07,1.47h.45v.25a33.6,33.6,0,0,1,6.43,4.77l.25.25.58.57c.39.39.76.79,1.13,1.2l.54.62q.51.6,1,1.23l.4.53c.2.26.39.53.58.8l.54.81a33.38,33.38,0,0,1-4,41.16l-1.2,1.25a33.08,33.08,0,0,1-5.62,4.23l-.06,0a30.69,30.69,0,0,1-3.06,1.61l-.1,0a33,33,0,0,1-13.84,3c-.46,0-.92,0-1.39,0s-1,0-1.45-.08-.95-.09-1.42-.15a32.8,32.8,0,0,1-18.79-9L202,194.17l-7.23,7.5,13.59,13.11A32.81,32.81,0,0,1,218,233.26c.08.46.14.93.2,1.41s.1,1,.14,1.47.08,1.29.09,2a33,33,0,0,1-2.54,13.42,30.77,30.77,0,0,1-1.55,3.22,33,33,0,0,1-4.31,6.08l-.88.91A32.89,32.89,0,0,1,185.28,271.84Zm0-2.2a30.88,30.88,0,0,1-31-30.15c0-.28,0-.56,0-.84s0-.48,0-.72c0-.5,0-1,.07-1.49A31,31,0,0,1,163,217.13l13.92-14.44,7.17,6.92L170.15,224a21.23,21.23,0,0,0-4.6,21.89,19.45,19.45,0,0,0,1.16,2.6,20.68,20.68,0,0,0,4,5.28A21.14,21.14,0,0,0,198,255.45c.29-.22.57-.45.85-.68s.49-.41.72-.63l0-.08.19-.13.81-.82a20.63,20.63,0,0,0,3.65-5.32,19.56,19.56,0,0,0,1-2.62,21.16,21.16,0,0,0-5.39-21.66l-32.22-31.08,6.91-7.17,32.23,31.1a31,31,0,0,1,9.27,19c.05.49.09,1,.12,1.49s.05,1,.05,1.55a30.9,30.9,0,0,1-7.88,21l-.78.8A30.76,30.76,0,0,1,185.28,269.64Zm-8.36-65.25L163.83,218a29.78,29.78,0,0,0-8.24,18.56c0,.48-.06,1-.07,1.43,0,.24,0,.47,0,.7s0,.54,0,.8a29.82,29.82,0,0,0,51.23,19.91l.76-.78a29.65,29.65,0,0,0,7.56-20.21c0-.5,0-1,0-1.49s-.07-1-.12-1.43a29.78,29.78,0,0,0-8.9-18.22L174.63,187l-5.24,5.44,31.35,30.25a22.34,22.34,0,0,1,5.7,22.89,22.61,22.61,0,0,1-1.09,2.76,22,22,0,0,1-3.87,5.64l-1,1,0,0,0,0c-.26.24-.53.48-.81.71s-.59.49-.89.71a22.4,22.4,0,0,1-21.63,2.93,22.14,22.14,0,0,1-11.45-10.24,20.5,20.5,0,0,1-1.22-2.76,22.43,22.43,0,0,1,4.85-23.14l13.08-13.55Zm8.38,54.3a20,20,0,0,1-14.43-34l13.91-14.42,14.43,13.93a20.11,20.11,0,0,1,.64,28.23l-.11.12-.36.36c-.36.36-.74.7-1.12,1l-.4.33c-.46.37-.91.7-1.38,1-.31.21-.63.41-.95.6h0l-.31.17-.12.07h0l-.42.23c-.36.19-.73.37-1.09.53A20.09,20.09,0,0,1,185.3,258.69ZM184.81,212l-13.08,13.55a18.83,18.83,0,0,0,13.57,31.93,19,19,0,0,0,7.79-1.64c.34-.16.68-.32,1-.5l.22-.12V255h.44c.36-.2.7-.42,1-.65s.87-.61,1.29-.95l.37-.31c.37-.31.72-.63,1.07-1l.34-.35.1-.11a18.91,18.91,0,0,0-.6-26.53ZM130,216.33a31,31,0,0,1-22.31-52.52l1-1.07a30.44,30.44,0,0,1,9.32-6,31.06,31.06,0,0,1,11.17-2.36q.8,0,1.56,0c.5,0,1,0,1.49.08A31,31,0,0,1,151.54,163L166,177l-6.91,7.16-14.45-13.94A21,21,0,0,0,130,164.31a21.21,21.21,0,0,0-7.19,1.25,21,21,0,0,0-7.47,4.67l-.46.48a21,21,0,0,0,5.92,33.54,19.93,19.93,0,0,0,2.64,1.06A21.15,21.15,0,0,0,145.21,200l31.1-32.23,7.17,6.91-31.12,32.25a31,31,0,0,1-19,9.27c-.5,0-1,.1-1.5.12s-1,0-1.55,0Zm0-60.78h-.74a29.85,29.85,0,0,0-19.68,8l-1,1A29.79,29.79,0,0,0,130,215.13h.25c.52,0,1,0,1.51-.05s1-.07,1.44-.12a29.72,29.72,0,0,0,18.27-8.9l30.28-31.39-5.44-5.24-30.27,31.37a22.05,22.05,0,0,1-16,6.77,22.12,22.12,0,0,1-9.75-2.23,22,22,0,0,1-5.7-4,22.3,22.3,0,0,1-.57-31.48l.48-.49a21.81,21.81,0,0,1,5.19-3.75,23.07,23.07,0,0,1,2.72-1.2,22.59,22.59,0,0,1,7.6-1.32,22.12,22.12,0,0,1,15.45,6.22l13.59,13.11,5.25-5.44L150.7,163.87a29.79,29.79,0,0,0-18.5-8.24c-.48,0-.95-.06-1.43-.07Zm108.65,58.83h-.8c-.49,0-1,0-1.48-.08a31,31,0,0,1-19.25-8.57l-14.47-14,6.92-7.17L224,198.54a20.91,20.91,0,0,0,14.61,5.88,21.24,21.24,0,0,0,7.17-1.24,24.27,24.27,0,0,0,2.49-1.08l.09,0a20.53,20.53,0,0,0,4.63-3.27l.08-.07.67-.71a21.12,21.12,0,0,0-.53-29.78,21.22,21.22,0,0,0-5.45-3.79c-.47-.23-.94-.43-1.41-.62s-.75-.28-1.13-.41l-.09,0a21.17,21.17,0,0,0-21.7,5.38L192.36,201l-7.17-6.91,31.13-32.27a31,31,0,0,1,19-9.26c.49-.06,1-.1,1.49-.13s1-.05,1.56-.05h.3A30.86,30.86,0,0,1,260.1,161l.09.08c.6.59,1.16,1.17,1.67,1.75l.48.55.46.56.44.56c.24.31.45.59.66.88l.11.16c.13.2.26.39.4.58l.63,1c.22.35.43.72.64,1.09l.07.12c.08.15.17.3.24.46l.24.46c.15.28.29.56.42.85s.29.63.42.94.19.42.27.64l.09.21-.52.34.56-.23c.1.25.19.5.28.75l.14.41.06.17s0,.05,0,.12l0,.1c0,.09,0,.14.06.19s.08.25.13.4h0l.12.47a.64.64,0,0,1,0,.07l0,.12,0,.12.05.17,0,.09a1.24,1.24,0,0,1,0,.16l.2.78a2.26,2.26,0,0,1,.07.28c0,.12.06.27.09.42s0,.1,0,.17l0,.12c0,.11,0,.21.06.31a.65.65,0,0,1,0,.17s0,0,0,.09,0,.21.06.34l0,.17.09.52.05.38,0,.17,0,.31.06.46v.18c0,.16.05.38.06.59v.13l0,.34,0,.4c0,.16,0,.25,0,.34l-.59.18.59,0c0,.11,0,.21,0,.31l0,.71v.71c0,.25,0,.49,0,.73s0,.29,0,.45,0,.37,0,.56l0,.26,0,.43c0,.1,0,.21,0,.32s0,.2,0,.32l0,.37c0,.18,0,.32-.06.46a.87.87,0,0,0,0,.1v.09c0,.11,0,.22-.05.33s-.06.37-.09.56l0,.17c0,.13-.06.36-.11.58l-.05.3-.09.39c-.12.57-.27,1.15-.43,1.72s-.29,1-.46,1.51-.35,1-.55,1.49-.29.72-.45,1.08c-.08.17-.16.36-.25.54s-.16.34-.25.52l-.27.54c-.07.15-.17.33-.27.51a30.55,30.55,0,0,1-4.95,6.77c-.39.4-.8.8-1.21,1.18a30.3,30.3,0,0,1-9.17,5.89,30.92,30.92,0,0,1-11.19,2.36Zm-34.3-22.65L218,204.86a29.79,29.79,0,0,0,18.49,8.24c.48,0,.95.06,1.43.07s1,0,1.5,0a29.82,29.82,0,0,0,10.76-2.27,29.42,29.42,0,0,0,8.8-5.64c.41-.38.8-.77,1.18-1.16a28.94,28.94,0,0,0,4.76-6.51c.09-.16.18-.32.26-.49l.22-.43c.12-.25.2-.41.27-.58s.17-.35.24-.51c.16-.35.3-.69.43-1s.37-1,.53-1.44.31-1,.45-1.45.29-1.1.41-1.65c0-.13.06-.25.08-.37l.06-.29.12-.64c0-.22.06-.39.08-.57l0-.13c0-.07,0-.16,0-.25l0-.19c0-.13,0-.26.05-.38l.05-.42,0-.3c0-.12,0-.21,0-.3s0-.27,0-.4v-.26c0-.18,0-.37,0-.55s0-.29,0-.43,0-.45,0-.68v-.62l0-.77v-.26L269,182l-.6,0c0-.1,0-.21,0-.31l0-.45c0-.12,0-.21,0-.31v-.11c0-.25,0-.46-.06-.66l0-.11c0-.14,0-.29-.05-.43l0-.35a.39.39,0,0,0,0-.09l0,0,0-.36c0-.17-.05-.33-.08-.5l0-.19-.06-.32,0-.17-.07-.33,0-.06v-.15c0,.06,0,0,0-.06s-.08-.33-.11-.47l0-.19-.12-.46a1.46,1.46,0,0,1,0-.17l-.13-.48h-.15l0-.66c-.07-.24-.13-.41-.19-.59l-.32-1c-.08-.23-.17-.46-.26-.69l-.11-.26c-.11-.28-.19-.47-.28-.67s-.27-.62-.41-.92-.25-.52-.38-.78l-.25-.48a4.13,4.13,0,0,0-.2-.37l-.12-.22c-.17-.3-.37-.65-.59-1l-.61-.95c-.16-.24-.32-.48-.49-.71l-.11-.16c-.16-.23-.33-.45-.5-.67l-.09-.13-.36-.44c-.14-.19-.29-.36-.43-.52l-.47-.54c-.49-.56-1-1.11-1.59-1.66a29.7,29.7,0,0,0-20.72-8.35h-.28c-.52,0-1,0-1.51,0s-1,.07-1.42.12a29.8,29.8,0,0,0-18.26,8.9l-30.29,31.4,5.44,5.25,30.28-31.38a22,22,0,0,1,16-6.78,22.44,22.44,0,0,1,6.82,1l.09,0c.44.14.87.3,1.29.46s1,.42,1.49.66a22.38,22.38,0,0,1,5.76,4,22.31,22.31,0,0,1,.57,31.47l-.8.82a21.19,21.19,0,0,1-4.82,3.42l-.09.05a20.54,20.54,0,0,1-2.71,1.18,22.34,22.34,0,0,1-23-4.9l-13.59-13.11Zm65.08-11.67v.08A.19.19,0,0,0,269.44,180.06Zm-2.27-5.37h0ZM130.05,205.36a20,20,0,0,1-14.43-34l.51-.53a20.13,20.13,0,0,1,27.82,0l14.45,13.94-13.91,14.41A19.88,19.88,0,0,1,130.05,205.36Zm0-38.85a18.72,18.72,0,0,0-13,5.21l-.5.51a18.83,18.83,0,0,0,13.57,31.93,18.69,18.69,0,0,0,13.58-5.73l13.07-13.55-13.59-13.11A18.78,18.78,0,0,0,130,166.51Zm108.63,36.91a19.93,19.93,0,0,1-13.92-5.6l-14.46-13.95,13.92-14.42a20.06,20.06,0,0,1,28.87,27.86l-.64.67A20,20,0,0,1,238.65,203.42ZM212,183.84,225.56,197a18.92,18.92,0,0,0,26,.19l.66-.67a18.87,18.87,0,0,0-27.15-26.2Zm-27.5,9.56-9.17-8.86,8.9-9.22,9.17,8.86ZM177,184.51l7.45,7.2,7.23-7.5L184.23,177Zm17.08-1-32.23-31.09a31,31,0,0,1-9.26-19c-.06-.5-.1-1-.13-1.49s0-1,0-1.56a30.84,30.84,0,0,1,8-21.18l.08-.08.54-.59c.17-.18.32-.33.47-.47s.3-.3.46-.45l.44-.41c.49-.45,1-.89,1.51-1.29.16-.14.33-.27.51-.4l.61-.46a4.5,4.5,0,0,1,.42-.3l0,0a29.23,29.23,0,0,1,3.77-2.27l.12-.06.3-.14a3.8,3.8,0,0,1,.45-.22l.29-.13a1.67,1.67,0,0,1,.23-.11l.29-.13.49-.21a25.15,25.15,0,0,1,2.4-.87l.12,0,.5-.16.67-.19.3-.07.44-.12.66-.16.11,0c.31-.07.61-.14.91-.19l.13,0c.16,0,.37-.07.58-.1s.37-.07.58-.09c.39-.06.78-.11,1.18-.15l.45,0,.73,0,.59,0,.45,0,.48,0h1.38l.73,0H185l.37,0c.29,0,.51,0,.72.06l.32,0h.1l.22,0h.13l.38,0,.48.06.21,0,.14,0a.79.79,0,0,1,.23,0l.15,0,.62.11.76.15.39.09.35.08c.48.11,1,.23,1.43.37l.7.21c.9.28,1.84.62,2.77,1,.64.27,1.27.57,1.89.88l1,.53.35.19.12.07.34.21.66.4.31.2.73.48a29.11,29.11,0,0,1,4,3.27l.58.57a30.92,30.92,0,0,1,8.85,21c0,.27,0,.54,0,.81s0,.5,0,.75c0,.5,0,1-.07,1.49a31,31,0,0,1-8.58,19.28L191.78,166l-7.17-6.91,13.92-14.43a21.26,21.26,0,0,0,4.66-21.75l-.08-.09v-.12a21.42,21.42,0,0,0-1.11-2.49,20.86,20.86,0,0,0-4-5.34l-.77-.7-.4-.34-.43-.35-.83-.62-.74-.5h0l-.11-.07-.39-.24-.35-.21-.25-.15-.65-.35-.1,0-.24-.12-.85-.4-.56-.24h0l-.1,0c-.37-.15-.68-.26-1-.37s-.33-.1-.48-.16l-.75-.21-.08,0-.6-.15-.18,0-.53-.11-.1,0-.28-.05-.36-.07-.39-.06-.67-.08-.74-.08h-.18c-.22,0-.45,0-.67,0-.47,0-.92,0-1.38,0l-.46,0-.35,0-.32,0-.39,0-.15,0-.22,0-.18,0-.25,0-.26,0-.45.07-.52.09c-.34.07-.67.14-1,.23l-.5.13c-.34.09-.67.19-1,.3l-.1,0-.38.14-.51.18-.47.2-.5.21a20.41,20.41,0,0,0-1.87.94l-.69.41-.67.44c-.15.1-.3.2-.44.31l-.39.27a22,22,0,0,0-2.49,2.22,21.07,21.07,0,0,0-3.82,5.48,19.62,19.62,0,0,0-1,2.61l-.14.42a21.35,21.35,0,0,0-.89,6.11,20.83,20.83,0,0,0,6.41,15.15L201,176.3Zm-28-77.7c-.13.08-.23.16-.33.23l-.56.42-.51.41c-.5.39-1,.81-1.46,1.24l-.42.4c-.16.14-.3.29-.45.43l-.42.43c-.21.22-.4.42-.58.63a29.67,29.67,0,0,0-7.76,20.4c0,.5,0,1,.05,1.5s.07,1,.12,1.43a29.83,29.83,0,0,0,8.9,18.22L194,181.76l5.24-5.43-31.35-30.25a22.07,22.07,0,0,1-6.77-16,22.31,22.31,0,0,1,1.05-6.8v-.51h.17a21.47,21.47,0,0,1,1-2.35,22.2,22.2,0,0,1,4-5.79,22.93,22.93,0,0,1,2.65-2.35l.11-.08.3-.22.46-.31.7-.47.73-.43c.64-.36,1.31-.7,2-1l.51-.22.52-.21.51-.19.42-.14.1,0,1.06-.32.54-.14c.35-.09.71-.16,1.07-.24l.53-.09.51-.08.23,0,.31,0,.23,0a.78.78,0,0,1,.19,0h.12l.44,0,.34,0,.37,0,.46,0c.54,0,1,0,1.48,0l.71,0,.18,0,.79.07.69.09.43.07.38.07.31.06.15,0,.44.09.11,0,.16,0,.65.17h0l.74.22.57.19,1,.34h0l.13.06.64.28.22.09-.11.61.25-.54.25.11.29.15.26.12.1.06.69.36.27.16.37.22.44.27.1.07c.26.17.52.34.77.52l.34.24.37.29.17.13c.14.11.3.23.45.36l.42.36.26.22.57.53a22.13,22.13,0,0,1,4.22,5.64,22.42,22.42,0,0,1,1.2,2.7v0a22.46,22.46,0,0,1-4.87,23.1l-13.09,13.56,5.44,5.25,13.1-13.58a29.77,29.77,0,0,0,8.24-18.54c0-.48.06-1,.07-1.43,0-.24,0-.48,0-.72s0-.52,0-.78a29.68,29.68,0,0,0-8.48-20.11c-.21-.22-.39-.4-.58-.58a28.29,28.29,0,0,0-3.79-3.09l-.68-.45.22-.57-.32.51-.29-.19c-.21-.13-.4-.25-.6-.36l-.11-.07-.28-.17c-.18-.1-.29-.17-.4-.22-.35-.2-.68-.37-1-.53-.59-.3-1.2-.58-1.82-.84a25.25,25.25,0,0,0-2.66-1c-.23-.08-.44-.14-.67-.2-.46-.14-.91-.26-1.37-.36L190,101a2.21,2.21,0,0,0-.35-.08l-.75-.15-.58-.1-.16,0-.24,0-.3,0-.43-.06-.38,0-.15,0-.24,0-.15,0H186l-.62,0-.42,0h-.2l-.69,0h-1.33l-.44,0h-.45l-.56,0-.62,0-.52,0-1.14.14-.57.09-.56.1-.13,0a8.33,8.33,0,0,0-.84.17l-.12,0-.63.15-.43.12-.3.07-.62.18-.39.12-.21.07c-.75.23-1.52.51-2.32.84l-.37.16-.33.15-.23.1-.3.14a5.18,5.18,0,0,0-.47.23l-.2.09-.18.1a26.22,26.22,0,0,0-3.64,2.19Zm17.8,52.66L169.46,144.5a20.09,20.09,0,0,1-.51-28.37l.72-.71.4-.37c.11-.1.24-.22.38-.33s.52-.43.8-.64c.44-.34.86-.63,1.27-.89l.43-.27.46-.27c.14-.08.29-.17.44-.24s.4-.21.6-.31l.62-.3.38-.16.38-.16.19-.07a1.38,1.38,0,0,1,.23-.09l.22-.08.44-.16.68-.21.39-.11a4.15,4.15,0,0,1,.45-.12h0l.09,0a3.73,3.73,0,0,1,.52-.11,4.35,4.35,0,0,1,.45-.1l.4-.07.26,0,.11,0,.3,0,.44,0,.67-.07h.11l.65,0h.34a14.72,14.72,0,0,1,1.48,0c.29,0,.57,0,.85,0l.72.07.27,0,.65.09h0c.28,0,.56.1.83.16a8.09,8.09,0,0,1,.82.19c.23,0,.46.12.69.19a1.19,1.19,0,0,1,.23.07l.68.22.46.16.07,0,.43.17-.12.6.23-.55.13,0,.3.13.49.22c.31.15.63.31,1,.49l.47.26.46.27.45.29a16,16,0,0,1,1.32.94c.57.44,1.12.92,1.65,1.42a20.09,20.09,0,0,1,.5,28.37Zm-1.36-47.17-.71,0h-.1l-.58.06-.43,0-.25,0-.12,0-.23,0-.41.07-.37.08c-.23,0-.36.08-.49.11l-.16,0-.38.1L178,112l-.7.22-.43.16-.13,0-.28.11-.51.2-.4.18-.58.27c-.19.1-.38.19-.56.3s-.29.15-.43.23-.27.15-.4.24l-.42.26c-.39.25-.78.52-1.19.84a9.12,9.12,0,0,0-.76.6,3.88,3.88,0,0,0-.36.32c-.14.11-.24.21-.35.31l-.7.69a18.9,18.9,0,0,0,.48,26.68l13.57,13.09L197,143.16a18.88,18.88,0,0,0-.48-26.67,19.57,19.57,0,0,0-1.54-1.35c-.41-.31-.83-.61-1.24-.87l-.42-.27-.45-.27-.44-.24c-.29-.16-.59-.32-.89-.46l-.45-.2-.28-.12.1-.61-.22.56-.13-.06-.4-.15-.1,0-.38-.14-.67-.22-.17,0-.67-.18-.76-.18-.78-.15-.67-.1-.22,0-.69-.06-.8-.06q-.7,0-1.41,0h-.26Z"/><path class="cls-1" d="M213.77,130.06c0,.24,0,.49,0,.74,0,.48,0,1-.07,1.46a30.28,30.28,0,0,1-8.41,18.91l-13.52,14-6.3-6.08,13.5-14a21.72,21.72,0,0,0,4.75-22.47h0a20.32,20.32,0,0,0-1.18-2.66,21.38,21.38,0,0,0-4.11-5.49l-.4-.37-.4-.36-.41-.35-.45-.35-.26-.21a0,0,0,0,1,0,0l-.55-.4,0,0c-.24-.18-.49-.34-.75-.51l-.09-.06c-.15-.1-.29-.19-.44-.27l-.36-.21-.25-.15-.66-.36-.11,0c-.18-.1-.36-.18-.55-.27l-.3-.14-.28-.13-.62-.26-.06,0h0l-.06,0c-.33-.13-.65-.24-1-.35l-.49-.17-.78-.23h0l-.66-.17-.16,0h0c-.18,0-.37-.08-.56-.12l-.08,0-.31,0-.38-.07c-.13,0-.26,0-.39-.06l-.68-.09c-.25,0-.51-.06-.77-.07l-.17,0-.7,0c-.28,0-.55,0-.83,0h-.6l-.46,0-.36,0-.33,0-.41,0-.38,0h0l-.41.06-.26,0a4,4,0,0,0-.46.07l-.52.09c-.36.07-.7.15-1,.24l-.51.13c-.35.09-.69.2-1,.31a5.17,5.17,0,0,0-.51.18,4.24,4.24,0,0,0-.5.18l-.5.2a4.4,4.4,0,0,0-.5.21,20.73,20.73,0,0,0-1.94,1c-.24.13-.47.27-.71.42s-.46.29-.69.45l-.45.32-.39.28A22,22,0,0,0,167.8,115a21.1,21.1,0,0,0-5,8.33h0a21.93,21.93,0,0,0-1.05,6.71,21.6,21.6,0,0,0,6.59,15.59l14,13.51.79.76.79.76,6.31,6.08.78.77.8.76,8.31,8-6.08,6.3-8.31-8-.8-.76-.79-.77-6.3-6.08-.79-.76-.79-.76-14-13.52a30.32,30.32,0,0,1-9.09-18.6c0-.48-.09-1-.12-1.45s-.05-1-.05-1.53a30.31,30.31,0,0,1,7.87-20.78h0l.6-.62c.14-.16.29-.31.45-.46l.46-.45.47-.44c.31-.28.62-.56.94-.83.64-.54,1.3-1,2-1.52l0,0,1-.68c.65-.43,1.31-.82,2-1.19l.34-.18.37-.19.16-.08a1.51,1.51,0,0,1,.22-.11l.47-.22.29-.14.18-.08h0l.73-.32.74-.29.08,0c.53-.2,1.06-.38,1.59-.56h.06c.32-.11.65-.21,1-.3l.2-.06.31-.08.46-.12.76-.18.87-.17.11,0,.58-.1.58-.09c.38-.06.77-.1,1.16-.14l.44,0h.1l.61-.05.58,0,.45,0,.46,0h1.37l.71,0H185l.37,0h.07l.63,0,.3,0h.07l.4,0,.41,0,.42,0,.24,0H188l.43.06.59.11.75.15.37.08.37.08c.46.11.93.24,1.39.37l.69.2c.92.29,1.82.62,2.71,1,.63.26,1.25.55,1.86.85l1,.53.39.21.39.23.06,0c.2.11.41.24.61.37l.38.24.18.12.53.36c.23.15.46.32.68.48l.55.41.3.23.51.41.2.17.61.52c.34.3.67.61,1,.93l.59.56,0,0a30.26,30.26,0,0,1,8.66,20.52C213.77,129.53,213.77,129.79,213.77,130.06Z"/><path class="cls-2" d="M194.07,183.46l-32.23-31.09a31,31,0,0,1-9.26-19c-.06-.5-.1-1-.13-1.49s0-1,0-1.56a30.84,30.84,0,0,1,8-21.18l.64-.67c.16-.16.31-.32.47-.47l.94-.9,1-.85c.62-.52,1.27-1,2-1.55l.08,0,1-.67c.69-.44,1.37-.85,2-1.2l.33-.18.39-.21.13-.06a1.92,1.92,0,0,1,.29-.14,3.8,3.8,0,0,1,.45-.22l.29-.13.31-.14.62-.27.77-.31c.62-.23,1.15-.42,1.7-.6l1.06-.32.2-.06.33-.08.45-.12.66-.16.11,0,.89-.18.15,0,.56-.1c.19,0,.39-.07.6-.09.39-.06.78-.11,1.18-.15l.45,0,.73,0,.59,0,.45,0,.48,0h1.38l.73,0H185l.37,0c.29,0,.51,0,.72.06l.32,0h.1l.22,0h.13l.39,0,.47.06.22,0,.51.08.62.11.75.15.4.09.34.08c.49.11,1,.24,1.43.37l.71.21c.94.3,1.87.64,2.77,1,.64.27,1.27.57,1.89.88l1,.53.4.22.38.23.69.42.32.21.79.52c.24.16.47.33.7.5s.38.27.56.42l.3.23.52.42.2.16.63.54c.34.3.68.62,1,.94l.58.57a30.89,30.89,0,0,1,8.87,21c0,.27,0,.54,0,.81s0,.5,0,.75c0,.5,0,1-.07,1.49a31,31,0,0,1-8.58,19.28L191.78,166l-7.17-6.91,13.92-14.43a21.26,21.26,0,0,0,4.66-21.75l-.08-.09v-.12a22.2,22.2,0,0,0-1.11-2.49,20.86,20.86,0,0,0-4-5.34l-.77-.7c-.14-.13-.27-.24-.4-.34l-.43-.35-.37-.29-.44-.32-.76-.51h0l-.11-.07-.39-.24-.35-.21-.25-.15-.65-.35-.1,0q-.27-.15-.54-.27l-.55-.25-.56-.24h0l-.1,0c-.37-.15-.68-.26-1-.37s-.33-.1-.48-.16l-.75-.21-.07,0-.61-.15-.18,0-.53-.11-.1,0-.28-.05-.36-.07-.39-.06-.67-.08-.74-.08h-.18c-.22,0-.45,0-.67,0-.47,0-.92,0-1.38,0l-.46,0-.35,0-.32,0-.39,0-.15,0-.22,0-.18,0-.25,0-.26,0-.45.07-.52.09c-.34.07-.67.14-1,.23l-.49.13c-.35.09-.68.19-1,.3-.17,0-.33.1-.48.16l-.5.19-.49.2a4.17,4.17,0,0,0-.47.19c-.67.3-1.3.62-1.9,1a7.66,7.66,0,0,0-.68.41c-.24.14-.45.28-.67.43l-.44.31-.4.28a21.48,21.48,0,0,0-6.31,7.7,19.62,19.62,0,0,0-1,2.61l-.14.42a21.35,21.35,0,0,0-.89,6.11,20.83,20.83,0,0,0,6.41,15.15L201,176.3Zm-28-77.71c-.7.5-1.31,1-1.89,1.46l-.93.82-.91.86-.44.45-.6.62a29.71,29.71,0,0,0-7.74,20.39c0,.5,0,1,.05,1.5s.07,1,.12,1.42a29.83,29.83,0,0,0,8.9,18.23L194,181.76l5.24-5.43-31.35-30.25a22.07,22.07,0,0,1-6.77-16,22.36,22.36,0,0,1,1.05-6.8v-.51h.17a21.47,21.47,0,0,1,1-2.35,22.2,22.2,0,0,1,4-5.79,22.93,22.93,0,0,1,2.65-2.35l.41-.3.47-.32c.22-.16.46-.31.7-.46s.49-.3.74-.44c.62-.35,1.29-.69,2-1l.53-.22.49-.2.55-.2a4.79,4.79,0,0,1,.5-.17c.34-.12.69-.22,1.05-.32l.54-.14c.34-.09.7-.16,1.06-.24l.54-.1.5-.07.23,0,.31,0,.23,0a.78.78,0,0,1,.19,0h.12l.44,0,.34,0,.37,0,.46,0c.53,0,1,0,1.48,0l.71,0,.18,0,.79.07.69.09.43.07.38.07.31.06.15,0,.44.09.11,0,.16,0,.65.17h0l.73.22.58.19,1,.34h0l.12.06.65.28.22.09-.11.61.25-.54.25.11.56.28.09,0,.69.36.27.16.37.22.44.27.1.07c.26.17.52.34.77.52s.41.29.59.43l.12.1.17.13c.14.11.3.23.45.36l.41.35.26.23.58.53a22.13,22.13,0,0,1,4.22,5.64,22.42,22.42,0,0,1,1.2,2.7v0a22.46,22.46,0,0,1-4.87,23.1l-13.09,13.56,5.44,5.25,13.1-13.58a29.77,29.77,0,0,0,8.24-18.54c0-.48.06-1,.07-1.43,0-.24,0-.48,0-.72s0-.52,0-.78a29.68,29.68,0,0,0-8.48-20.11l-.6-.58c-.32-.31-.65-.62-1-.91l-.6-.52-.18-.15-.52-.41-.28-.22L201,106l-.68-.48-.69-.46-.37-.24c-.21-.13-.4-.25-.6-.36l-.44-.27-.38-.2c-.32-.19-.65-.36-1-.52-.59-.3-1.2-.58-1.82-.84-.86-.36-1.75-.69-2.66-1l-.68-.21c-.45-.13-.9-.25-1.36-.35L190,101a2.21,2.21,0,0,0-.35-.08l-.75-.15-.58-.1-.7-.11-.43-.06-.38,0-.15,0-.24,0-.15,0H186l-.62,0-.42,0h-.2l-.69,0h-1.33l-.44,0h-.45l-.56,0-.62,0-.52,0-1.14.14-.57.09-.58.1-.21-.56.11.59-.86.17-.11,0-.63.15-.43.12-.31.08-.2,0c-.33.1-.65.19-1,.3l-.09,0c-.49.15-1,.34-1.53.53l-.81.33-.7.3-.19.09-.27.12a5.18,5.18,0,0,0-.47.23l-.2.09-.88.47c-.63.34-1.29.73-2,1.15l-1,.67Z"/><path class="cls-1" d="M269,183.29v.55c0,.15,0,.29,0,.43v.27c0,.14,0,.29,0,.44l-.06.82c0,.14,0,.27,0,.41l0,.3c0,.16,0,.32-.05.48s-.07.53-.11.79v0l0,.16a1,1,0,0,1,0,.17s0,0,0,0q-.13.87-.33,1.74c0,.19-.08.38-.13.56a28.3,28.3,0,0,1-1,3.44c-.07.22-.16.44-.25.67-.18.45-.36.89-.56,1.33-.1.22-.2.44-.31.66a30.13,30.13,0,0,1-1.77,3.18,29.54,29.54,0,0,1-3.72,4.7l-1.16,1.2v0a30,30,0,0,1-9,5.76,30.66,30.66,0,0,1-11,2.31h-1.52c-.49,0-1,0-1.46-.07a30.28,30.28,0,0,1-18.87-8.41l-14-13.55,6.09-6.3,14,13.53a21.56,21.56,0,0,0,15,6.05,21.77,21.77,0,0,0,10-2.43h0a21.16,21.16,0,0,0,4.77-3.36l0,0,.05,0,0,0,.67-.7a21.63,21.63,0,0,0-6.15-34.53c-.48-.23-1-.44-1.45-.64s-.83-.31-1.25-.45h0a22,22,0,0,0-6.72-1.05A21.58,21.58,0,0,0,223,168.34l-13.5,14-.76.8-.77.78-6.07,6.31-.77.79-.76.79-8.07,8.36-6.3-6.08,8.06-8.36,1.53-1.58,6.08-6.3.77-.8.76-.79,13.51-14a30.22,30.22,0,0,1,18.61-9.08h0c.48-.06,1-.1,1.45-.13s1,0,1.53,0h.3a30.29,30.29,0,0,1,21.07,8.45l0,0,0,0,1.62,1.69.47.54.44.54.43.54s0,0,0,0c.22.28.42.56.63.84h0l.59.85.31.49.22.34c.07.12.14.23.2.35l.37.62,0,.08,0,.06a.08.08,0,0,0,0,0,0,0,0,0,1,0,0l.26.47.24.47.05.11c.27.54.53,1.08.77,1.63l.26.62a1.8,1.8,0,0,1,.08.21s0,.08.05.13l.18.48a1.17,1.17,0,0,1,.09.24,1.59,1.59,0,0,1,.07.2,1.18,1.18,0,0,1,.07.2,1.21,1.21,0,0,1,.05.14c0,.07.05.14.07.2l.07.2.18.56v0a1.72,1.72,0,0,1,.07.21v0h0l0,.05h0s0,.06,0,.09a0,0,0,0,1,0,0l0,.06a.65.65,0,0,1,0,.13.75.75,0,0,1,0,.16h0a.17.17,0,0,1,0,.07l0,.09.06.24.05.17c0,.07,0,.15.05.23h0a0,0,0,0,0,0,0v0l0,.1a2,2,0,0,1,.05.24c0,.15.07.29.1.44a1.89,1.89,0,0,1,.05.23v0a3.4,3.4,0,0,1,.07.34l0,.12a.38.38,0,0,1,0,.1c0,.12.05.24.07.36l0,.17c0,.18.06.35.08.52a.13.13,0,0,1,0,.06s0,.06,0,.09V179q0,.08,0,.18v.13a.09.09,0,0,1,0,.05h0a.06.06,0,0,1,0,0v0l0,.21.06.49v0s0,.08,0,.12l0,.27a2.45,2.45,0,0,1,0,.27.31.31,0,0,1,0,.1v0h0c0,.15,0,.3,0,.45a.34.34,0,0,1,0,.1v.08a.76.76,0,0,1,0,.15c0,.1,0,.19,0,.29s0,.09,0,.13,0,.28,0,.42v.21c0,.11,0,.23,0,.35v.16Z"/><path class="cls-2" d="M238.66,214.38h-.8c-.49,0-1,0-1.48-.08a31,31,0,0,1-19.25-8.57l-14.47-14,6.92-7.17L224,198.54a20.91,20.91,0,0,0,14.61,5.88,21.24,21.24,0,0,0,7.17-1.24,23.35,23.35,0,0,0,2.49-1.08l.09,0a20.53,20.53,0,0,0,4.63-3.27l.08-.08.67-.7a21,21,0,0,0-6-33.57c-.47-.23-.94-.43-1.41-.62s-.75-.28-1.13-.41l-.09,0a21.17,21.17,0,0,0-21.7,5.38L192.36,201l-7.17-6.91,31.13-32.27a31,31,0,0,1,19-9.26c.49-.06,1-.1,1.49-.13s1-.05,1.56-.05h.3A30.88,30.88,0,0,1,260.1,161l.09.08,1.66,1.74.49.56.45.55c.15.18.29.37.43.55l0,.07c.24.31.43.57.62.83l.12.16c.13.19.26.38.38.57l.65,1c.07.12.15.24.22.37l.36.62.13.23.23.43.31.6c.27.55.53,1.1.78,1.66l.27.64.09.22-.52.34.56-.22c.06.16.13.33.19.5s.06.15.09.25l.14.4a1.89,1.89,0,0,1,.06.18h0s0,0,0,.11l.08.25.15.44h0l.15.58a.29.29,0,0,1,0,.09.48.48,0,0,1,0,.17s0,.06,0,.12l.23.73,0,.29c0,.07,0,.16.06.25s.07.3.1.45,0,.1,0,.17l0,.12c0,.11,0,.21.06.31a.65.65,0,0,1,0,.17s0,0,0,.09,0,.21.06.34l0,.17.09.52.09.62v0l0,.22.06.46v.15a.68.68,0,0,1,0,.12,1,1,0,0,1,0,.24,1.45,1.45,0,0,1,0,.27l0,.29c0,.11,0,.21,0,.32v.16l-.59.12.6,0c0,.11,0,.2,0,.29l-.59.18.59,0c0,.11,0,.21,0,.31v.14l-.6.12.6,0v.63l0,1-.6.17h.6c0,.25,0,.4,0,.56s0,.37,0,.56l0,.26,0,.43c0,.1,0,.21,0,.32s0,.2,0,.31l0,.15c0,.28-.07.55-.11.82v0h0l0,.17,0,.14,0,.13c-.08.54-.19,1.13-.32,1.72,0,.19-.09.38-.13.57a31.65,31.65,0,0,1-1.06,3.5c-.08.23-.17.46-.26.69-.18.45-.37.91-.58,1.36-.1.22-.2.45-.31.67a29,29,0,0,1-1.81,3.24,30.08,30.08,0,0,1-3.79,4.8l-1.15,1.2a30.48,30.48,0,0,1-9.2,5.91,30.92,30.92,0,0,1-11.19,2.36Zm-34.3-22.65L218,204.86a29.79,29.79,0,0,0,18.49,8.24c.48,0,.95.06,1.43.07s1,0,1.5,0a29.82,29.82,0,0,0,10.76-2.27,29.42,29.42,0,0,0,8.8-5.64l1.15-1.19a30.08,30.08,0,0,0,5.38-7.73l.3-.65c.19-.43.38-.86.55-1.3.09-.22.17-.44.25-.65a30.78,30.78,0,0,0,1-3.38l.12-.54q.19-.85.33-1.71l.07-.45c0-.29.06-.52.09-.74l0-.16,0-.3c0-.12,0-.21,0-.3s0-.27,0-.4v-.26c0-.18,0-.37,0-.55s0-.29,0-.43l0-1.23h0v-.15l0-.68v-.26L269,182l-.6,0c0-.1,0-.21,0-.31v-.26c0-.18,0-.27,0-.35V181l.59-.14-.6,0c0-.13,0-.2,0-.27s0-.2,0-.27l0-.19c0-.18,0-.33-.06-.47l-.11-.84c0-.17-.05-.33-.08-.5l0-.19-.06-.32,0-.17-.07-.33,0-.06v-.15c0,.06,0,0,0-.06s-.08-.33-.11-.47,0-.15,0-.22l-.11-.43a1.46,1.46,0,0,1,0-.17l-.14-.46v0h-.15v-.52a1,1,0,0,0-.05-.16c-.06-.22-.12-.39-.18-.57l-.32-1c0-.06-.05-.13-.08-.19s-.13-.35-.19-.5l-.09-.25c-.12-.28-.2-.48-.29-.68-.24-.55-.49-1.08-.75-1.61a1.22,1.22,0,0,1-.08-.17l-.21-.4-.21-.38-.08-.14a.43.43,0,0,0,0-.07c-.14-.26-.26-.46-.38-.66a3.37,3.37,0,0,0-.21-.34l-.61-1c-.16-.23-.31-.47-.48-.69l-.11-.16-.5-.67,0,0h0l-.42-.54-.9-1.05-1.6-1.68a29.73,29.73,0,0,0-20.71-8.33h-.28c-.52,0-1,0-1.51,0s-1,.07-1.42.12a29.8,29.8,0,0,0-18.26,8.9l-30.29,31.4,5.44,5.25,30.28-31.38a22,22,0,0,1,16-6.78,22.44,22.44,0,0,1,6.82,1l.09,0c.44.14.87.3,1.29.46s1,.42,1.49.66a22.24,22.24,0,0,1,6.33,35.48l-.79.82a21.47,21.47,0,0,1-4.83,3.42l-.09.05a20.54,20.54,0,0,1-2.71,1.18,22.34,22.34,0,0,1-23-4.9l-13.59-13.11Zm64.39-12.43-.25,0Zm-1.58-4.61h0Z"/><path class="cls-1" d="M182.63,174.65,174.56,183l-.76.8-.76.79-6.08,6.3-.77.79-.76.79-13.5,14a30.25,30.25,0,0,1-18.64,9.08c-.48,0-1,.1-1.46.12s-1,.05-1.52.05H130a30.43,30.43,0,0,1-21.88-51.51l1-1.07a30,30,0,0,1,9.12-5.88,30.46,30.46,0,0,1,11-2.31h1.53c.49,0,1,0,1.46.07a30.29,30.29,0,0,1,18.88,8.41l14,13.54-6.07,6.31-14-13.53A21.73,21.73,0,0,0,122.63,165a21.29,21.29,0,0,0-2.64,1.15h0a21.24,21.24,0,0,0-5,3.64l-.47.49a21.62,21.62,0,0,0,6.09,34.5,21.07,21.07,0,0,0,2.71,1.1,21.81,21.81,0,0,0,22.37-5.52l13.49-14,.76-.79.76-.79,6.09-6.3.76-.79.76-.79,8.07-8.36Z"/><path class="cls-2" d="M130,216.33a31,31,0,0,1-22.31-52.52l1-1.07a30.44,30.44,0,0,1,9.32-6,31.11,31.11,0,0,1,11.17-2.36q.8,0,1.56,0c.5,0,1,0,1.49.08A31,31,0,0,1,151.54,163L166,177l-6.91,7.16-14.45-13.94A21,21,0,0,0,130,164.31a21.21,21.21,0,0,0-7.19,1.25,21,21,0,0,0-7.47,4.67l-.46.48a21,21,0,0,0,5.92,33.54,19.93,19.93,0,0,0,2.64,1.06A21.15,21.15,0,0,0,145.21,200l31.1-32.23,7.17,6.91-31.12,32.25a31,31,0,0,1-19,9.27c-.5,0-1,.1-1.5.12s-1,0-1.55,0Zm0-60.78h-.74a29.85,29.85,0,0,0-19.68,8l-1,1A29.79,29.79,0,0,0,130,215.13h.25c.52,0,1,0,1.51-.05s1-.07,1.44-.12a29.72,29.72,0,0,0,18.27-8.9l30.28-31.39-5.44-5.24-30.27,31.37a22.05,22.05,0,0,1-16,6.77,22.12,22.12,0,0,1-9.75-2.23,22,22,0,0,1-5.7-4,22.3,22.3,0,0,1-.57-31.48l.48-.49a21.81,21.81,0,0,1,5.19-3.75,23.07,23.07,0,0,1,2.72-1.2,22.59,22.59,0,0,1,7.6-1.32,22.12,22.12,0,0,1,15.45,6.22l13.59,13.11,5.25-5.44L150.7,163.87a29.79,29.79,0,0,0-18.5-8.24c-.48,0-.95-.06-1.43-.07Z"/><path class="cls-1" d="M215.67,238.36A30.23,30.23,0,0,1,207.94,259l-.76.79a30.38,30.38,0,0,1-52.26-20.31c0-.27,0-.54,0-.82s0-.47,0-.71c0-.49,0-1,.07-1.46a30.2,30.2,0,0,1,8.41-18.93l13.51-14,6.3,6.09-13.49,14A21.74,21.74,0,0,0,165,246.13a21.25,21.25,0,0,0,1.19,2.68,21.61,21.61,0,0,0,4.08,5.43,21.54,21.54,0,0,0,15,6,21.66,21.66,0,0,0,13.07-4.35l.87-.7c.28-.23.55-.48.82-.73h0l.41-.4.4-.4.15-.16a21.61,21.61,0,0,0,3.77-5.48,22.74,22.74,0,0,0,1.06-2.69,21.75,21.75,0,0,0-5.55-22.28l-14-13.51-.8-.77-.79-.76L178.44,202l-.8-.76-.79-.76-8.31-8,6.08-6.3,8.31,8,.79.77.79.76,6.31,6.08.79.76.79.77,14,13.52a30.25,30.25,0,0,1,9.08,18.59c.05.48.1,1,.12,1.46S215.67,237.85,215.67,238.36Z"/><path class="cls-2" d="M185.28,269.64a30.88,30.88,0,0,1-31-30.15c0-.28,0-.56,0-.84s0-.48,0-.72c0-.5,0-1,.07-1.49A31,31,0,0,1,163,217.13l13.92-14.44,7.17,6.92L170.15,224a21.24,21.24,0,0,0-4.6,21.9,19.91,19.91,0,0,0,1.16,2.59,20.68,20.68,0,0,0,4,5.28A21.14,21.14,0,0,0,198,255.45c.29-.22.57-.45.85-.68s.49-.42.73-.63l0-.09.19-.13.8-.81a20.8,20.8,0,0,0,3.65-5.32,19.56,19.56,0,0,0,1-2.62,21.16,21.16,0,0,0-5.39-21.66l-32.22-31.08,6.91-7.17,32.23,31.1a31,31,0,0,1,9.27,19c.05.49.09,1,.12,1.49s.05,1,.05,1.55a30.9,30.9,0,0,1-7.88,21l-.78.8A30.76,30.76,0,0,1,185.28,269.64Zm-8.36-65.25L163.83,218a29.78,29.78,0,0,0-8.24,18.56c0,.48-.06,1-.07,1.43,0,.24,0,.47,0,.7s0,.54,0,.8a29.82,29.82,0,0,0,51.23,19.91l.76-.78a29.65,29.65,0,0,0,7.56-20.21h0c0-.5,0-1,0-1.49s-.07-1-.12-1.43a29.78,29.78,0,0,0-8.9-18.22L174.63,187l-5.24,5.44,31.35,30.25a22.34,22.34,0,0,1,5.7,22.89,22.61,22.61,0,0,1-1.09,2.76,22,22,0,0,1-3.87,5.64l-1,1h0l0,0c-.26.24-.52.47-.8.7s-.59.49-.89.71a22.4,22.4,0,0,1-21.63,2.93,22.14,22.14,0,0,1-11.45-10.24,20.5,20.5,0,0,1-1.22-2.76,22.43,22.43,0,0,1,4.85-23.14l13.08-13.55Z"/><path class="cls-6" d="M385.86,127.6l-10.55-14.15h-10.4V127.6H360.8V91.2h15.65a17.62,17.62,0,0,1,5.43.78A12.32,12.32,0,0,1,386,94.19a9.85,9.85,0,0,1,2.65,3.43,10.46,10.46,0,0,1,.94,4.45,10.92,10.92,0,0,1-.73,4.09,9.43,9.43,0,0,1-2.06,3.12,11.58,11.58,0,0,1-3.14,2.21,15,15,0,0,1-3.95,1.25l11.18,14.86Zm-2.81-30.7A11,11,0,0,0,376.17,95H364.91v14.82h11.2a12.85,12.85,0,0,0,3.76-.52,9,9,0,0,0,3-1.48,6.8,6.8,0,0,0,2-2.38,7,7,0,0,0,.71-3.18A6.39,6.39,0,0,0,383.05,96.9Z"/><path class="cls-6" d="M424.71,94.94H402.5v12.43h19.87v3.74H402.5v12.74H425v3.75H398.39V91.2h26.32Z"/><path class="cls-6" d="M436.82,102.6a4.66,4.66,0,0,0,1.51,1.9,11.09,11.09,0,0,0,3,1.56,35.91,35.91,0,0,0,4.94,1.33q6.07,1.35,9,3.75a8.14,8.14,0,0,1,2.88,6.61,9.58,9.58,0,0,1-3.47,7.56,11.59,11.59,0,0,1-3.91,2.08,16.57,16.57,0,0,1-5,.73,21.8,21.8,0,0,1-8-1.41,22.59,22.59,0,0,1-6.89-4.36l2.55-3a21.37,21.37,0,0,0,5.77,3.87,16.59,16.59,0,0,0,6.71,1.28,9.32,9.32,0,0,0,5.9-1.72,5.45,5.45,0,0,0,2.21-4.53,6.23,6.23,0,0,0-.41-2.32,4.74,4.74,0,0,0-1.46-1.85,10.5,10.5,0,0,0-2.9-1.51,37.59,37.59,0,0,0-4.71-1.3,37.73,37.73,0,0,1-5.45-1.56,13.36,13.36,0,0,1-3.83-2.14,7.72,7.72,0,0,1-2.24-2.91,9.76,9.76,0,0,1-.73-4,9,9,0,0,1,.88-4,9.17,9.17,0,0,1,2.5-3.15,12.18,12.18,0,0,1,3.79-2.09,14.67,14.67,0,0,1,4.79-.75,20.27,20.27,0,0,1,7,1.1,21.18,21.18,0,0,1,5.8,3.32l-2.39,3.17a17.94,17.94,0,0,0-5.12-3,15.75,15.75,0,0,0-5.39-.93,10.28,10.28,0,0,0-3.19.47A8.07,8.07,0,0,0,438.51,96,5.49,5.49,0,0,0,437,97.91a5.23,5.23,0,0,0-.54,2.35A6.21,6.21,0,0,0,436.82,102.6Z"/><path class="cls-6" d="M470.62,111.22V127.6h-4.11V91.2h4.11v16.17h21V91.2h4.11v36.4h-4.11V111.22Z"/><path class="cls-6" d="M539.94,127.6h-4.42L531.25,118H511.44l-4.31,9.62h-4.22L519.5,90.94h3.85ZM521.37,95.77l-8.32,18.57h16.59Z"/><path class="cls-7" d="M374.58,276.56a3.73,3.73,0,0,1-1.27,1.44,6,6,0,0,1-2,.87,10.91,10.91,0,0,1-2.58.28h-8v-16.8h7.79a6.37,6.37,0,0,1,4.06,1.18,3.84,3.84,0,0,1,1.47,3.17v.05a4.1,4.1,0,0,1-.18,1.27,3.79,3.79,0,0,1-.48,1,3.22,3.22,0,0,1-.69.78,4.34,4.34,0,0,1-.84.58,5.72,5.72,0,0,1,2.29,1.5,3.83,3.83,0,0,1,.84,2.63v.05A4.29,4.29,0,0,1,374.58,276.56Zm-4.14-9.24a1.48,1.48,0,0,0-.62-1.28,3.07,3.07,0,0,0-1.8-.45h-3.65v3.56h3.41a3.83,3.83,0,0,0,1.94-.42,1.46,1.46,0,0,0,.72-1.36Zm.94,6.72a1.59,1.59,0,0,0-.65-1.33,3.48,3.48,0,0,0-2.09-.49h-4.27v3.69h4.39a3.5,3.5,0,0,0,1.92-.44,1.52,1.52,0,0,0,.7-1.38Z"/><path class="cls-7" d="M386.52,272.46v6.69h-3.69v-6.62l-6.46-10.18h4.32l4,6.75,4.08-6.75H393Z"/><path class="cls-7" d="M412.68,279.15l-3.6-5.37h-2.9v5.37h-3.7v-16.8h7.68a6.83,6.83,0,0,1,4.67,1.47,5.13,5.13,0,0,1,1.67,4.08V268a5.23,5.23,0,0,1-1,3.32,5.71,5.71,0,0,1-2.6,1.88l4.1,6Zm.07-11.06a2.14,2.14,0,0,0-.76-1.8,3.42,3.42,0,0,0-2.14-.6h-3.67v4.82h3.74a3.08,3.08,0,0,0,2.1-.64,2.2,2.2,0,0,0,.73-1.73Z"/><path class="cls-7" d="M419.83,279.15v-16.8h12.65v3.29h-9v3.41h7.92v3.29h-7.92v3.53h9.12v3.28Z"/><path class="cls-7" d="M447.6,276.41a4.59,4.59,0,0,1-1.26,1.63,5.81,5.81,0,0,1-1.93,1,8.49,8.49,0,0,1-2.5.34,11.07,11.07,0,0,1-3.76-.66,9.83,9.83,0,0,1-3.36-2l2.18-2.62a11.45,11.45,0,0,0,2.36,1.49,6.33,6.33,0,0,0,2.66.55,3.21,3.21,0,0,0,1.78-.42,1.31,1.31,0,0,0,.64-1.16v-.05a1.47,1.47,0,0,0-.13-.64,1.37,1.37,0,0,0-.51-.51,5.31,5.31,0,0,0-1-.48c-.44-.16-1-.33-1.72-.51a23,23,0,0,1-2.31-.69,6.8,6.8,0,0,1-1.76-.95,4,4,0,0,1-1.12-1.41,4.91,4.91,0,0,1-.4-2.08v-.05a5,5,0,0,1,.43-2.08,4.71,4.71,0,0,1,1.21-1.59,5.3,5.3,0,0,1,1.85-1,7.46,7.46,0,0,1,2.37-.36,10.06,10.06,0,0,1,3.4.56,9.56,9.56,0,0,1,2.84,1.58L445.61,267a12.48,12.48,0,0,0-2.21-1.21,5.75,5.75,0,0,0-2.16-.44,2.61,2.61,0,0,0-1.62.42,1.28,1.28,0,0,0-.54,1v.05a1.46,1.46,0,0,0,.16.71,1.39,1.39,0,0,0,.56.54,5.39,5.39,0,0,0,1.12.45c.48.15,1.07.32,1.8.51a16.78,16.78,0,0,1,2.27.75,6.19,6.19,0,0,1,1.68,1,3.76,3.76,0,0,1,1,1.38,4.74,4.74,0,0,1,.35,1.9v.05A5.09,5.09,0,0,1,447.6,276.41Z"/><path class="cls-7" d="M461.79,279.15v-6.74H455v6.74h-3.7v-16.8H455V269h6.82v-6.65h3.69v16.8Z"/><path class="cls-7" d="M482,279.15l-1.54-3.76h-7.1l-1.54,3.76h-3.77l7.2-16.92h3.41l7.2,16.92Zm-5.09-12.48-2.23,5.45h4.46Z"/><path class="cls-7" d="M501.63,279.15v-11l-4.73,7.17h-.1l-4.68-7.1v10.89h-3.65v-16.8h4l4.41,7.11,4.42-7.11h4v16.8Z"/><path class="cls-7" d="M521.81,279.15l-1.54-3.76h-7.1l-1.54,3.76h-3.76l7.2-16.92h3.4l7.2,16.92Zm-5.09-12.48-2.23,5.45H519Z"/><path class="cls-7" d="M540.05,279.15l-8.14-10.68v10.68h-3.64v-16.8h3.4l7.88,10.35V262.35h3.64v16.8Z"/><path class="cls-7" d="M562.06,274.07a7.84,7.84,0,0,1-1.84,2.66,8.9,8.9,0,0,1-2.83,1.78,9.82,9.82,0,0,1-3.61.64h-6.55v-16.8h6.55a10,10,0,0,1,3.61.64,8.52,8.52,0,0,1,2.83,1.76,7.94,7.94,0,0,1,1.84,2.66,8.34,8.34,0,0,1,.65,3.3v0A8.51,8.51,0,0,1,562.06,274.07Zm-3.22-3.32a5.48,5.48,0,0,0-.37-2,4.74,4.74,0,0,0-1-1.6,4.55,4.55,0,0,0-1.6-1.05,5.47,5.47,0,0,0-2.06-.37h-2.86v10.13h2.86a5.68,5.68,0,0,0,2.06-.36,4.5,4.5,0,0,0,1.6-1,4.9,4.9,0,0,0,1-1.59,5.33,5.33,0,0,0,.37-2Z"/><path class="cls-7" d="M566.16,279.15v-16.8h3.7v16.8Z"/><path class="cls-8" d="M390.43,152.59a26.08,26.08,0,0,1,8.35,1.35,24.57,24.57,0,0,1,11.14,7.58,28.58,28.58,0,0,1,4.8,8.54A30.73,30.73,0,0,1,437.47,153a32.26,32.26,0,0,1,5-.39,25.61,25.61,0,0,1,8.36,1.35A24.59,24.59,0,0,1,462,161.52a27.51,27.51,0,0,1,5.86,12.1,62.76,62.76,0,0,1,1.05,13.15v38.69H466V186.77a61.34,61.34,0,0,0-1-12.48,25.5,25.5,0,0,0-5.18-10.85,21.44,21.44,0,0,0-9.89-6.72,25.27,25.27,0,0,0-12-1,27.78,27.78,0,0,0-22,19,71.53,71.53,0,0,1,.77,12v38.69h-2.88V186.77a67.53,67.53,0,0,0-.87-12.48,24.32,24.32,0,0,0-5.28-10.85,20.8,20.8,0,0,0-9.79-6.72,25.27,25.27,0,0,0-12-1,27.89,27.89,0,0,0-22,18.91v50.79h-2.88v-71h2.88v13.24a33,33,0,0,1,6.24-7.48,30.43,30.43,0,0,1,15.26-7.2A32.26,32.26,0,0,1,390.43,152.59Z"/><path class="cls-8" d="M548.54,225.46h-2.88V212.21a31.42,31.42,0,0,1-6.14,7.49,30.5,30.5,0,0,1-15.27,7.2,35.37,35.37,0,0,1-5.08.38,29.26,29.26,0,0,1-8.26-1.34l-.1-.1a24.35,24.35,0,0,1-11.13-7.58,27.23,27.23,0,0,1-5.76-12.1A62,62,0,0,1,492.86,193V154.42h2.88V193a61.94,61.94,0,0,0,1,12.57,25.46,25.46,0,0,0,5.19,10.85,21.65,21.65,0,0,0,9.88,6.72,24.41,24.41,0,0,0,12,.87,26.81,26.81,0,0,0,13.83-6.53,27.63,27.63,0,0,0,8.06-12.29V154.42h2.88v71Z"/><path class="cls-8" d="M641.66,129.07h2.88v96.39h-2.88V202.32a43.26,43.26,0,0,1-16.13,19.87h-.09a34.93,34.93,0,0,1-35.47-.14,35.93,35.93,0,0,1-11.29-10.42,36.31,36.31,0,0,1-5.9-14.16,37.92,37.92,0,0,1,.15-15.31,36.4,36.4,0,0,1,11.32-19.87,35.74,35.74,0,0,1,20.93-9.41,32.61,32.61,0,0,1,3.65-.19,35.64,35.64,0,0,1,29.95,16.41,30.44,30.44,0,0,1,2.88,5.38Zm-32.83,26.5a28.37,28.37,0,0,0-3.36.19,33.21,33.21,0,0,0-19.3,8.64,34.71,34.71,0,0,0-10.46,18.34,34.13,34.13,0,0,0-.1,14.2A34.91,34.91,0,0,0,581.08,210a32.87,32.87,0,0,0,10.37,9.5,32,32,0,0,0,13.35,4.42,30.57,30.57,0,0,0,19.1-4.13,40.93,40.93,0,0,0,13-14.3,35.63,35.63,0,0,0,4.7-17.76,32.78,32.78,0,0,0-32.73-32.16Z"/><path class="cls-8" d="M690.23,153.07h.39a11.07,11.07,0,0,1,2,.19l-.39,2.79a18.26,18.26,0,0,0-20,14.78c-.13.77-.22,1.54-.28,2.31v52.32h-2.89V154.61H672v8.83a20.27,20.27,0,0,1,5.66-6.24A20.58,20.58,0,0,1,690.23,153.07Z"/><path class="cls-8" d="M734.59,152.69a35.64,35.64,0,0,1,29.95,16.41,30.44,30.44,0,0,1,2.88,5.38V154.42h2.88v71h-2.88V202.32a43.32,43.32,0,0,1-16.13,19.87h-.1a34.94,34.94,0,0,1-35.47-.14,36,36,0,0,1-17.18-24.58,37.92,37.92,0,0,1,.14-15.31A36.48,36.48,0,0,1,710,162.29a35.74,35.74,0,0,1,20.93-9.41A32.61,32.61,0,0,1,734.59,152.69Zm0,2.88a28.13,28.13,0,0,0-3.36.19,33.18,33.18,0,0,0-19.3,8.64,34.74,34.74,0,0,0-10.46,18.43,33.7,33.7,0,0,0-.1,14.11A34.75,34.75,0,0,0,706.84,210a32.87,32.87,0,0,0,10.37,9.5,31.92,31.92,0,0,0,13.35,4.42,30.57,30.57,0,0,0,19.1-4.13,40.93,40.93,0,0,0,13-14.3,35.63,35.63,0,0,0,4.7-17.76,32.79,32.79,0,0,0-32.73-32.16Z"/><path class="cls-6" d="M784.86,137.39h-1.1v-8.78h-3.29v-1h7.68v1h-3.29Z"/><path class="cls-6" d="M794.94,134.7h-.05l-3.57-5.24v7.93h-1.08v-9.8h1.12l3.57,5.35,3.57-5.35h1.12v9.8h-1.11v-7.94Z"/></g></svg>