<svg xmlns="http://www.w3.org/2000/svg" viewBox="0 0 1083.32 366.66"><defs><style>.cls-1{fill:#ffbe00;}.cls-2{fill:#583a0b;}.cls-3{fill:#cc7400;}.cls-4{fill:#5b2812;}</style></defs><g id="Contents"><path class="cls-1" d="M307.43,168.72q-1.37-3.6-3-7a82.47,82.47,0,0,0-9.1-14.62c.07-2.22.06-4.47-.05-6.72a85.1,85.1,0,0,0-1.17-10.43,82.3,82.3,0,0,0-7-21.59A85.63,85.63,0,0,0,275.3,99c-2.19-1.44-4.43-2.75-6.69-3.95a82,82,0,0,0-15.82-6.39h0c-1.26-1.86-2.6-3.67-4-5.45a85.43,85.43,0,0,0-7-7.68,81.92,81.92,0,0,0-18.42-13.44,82.1,82.1,0,0,0-15.09-.64q-3.91.18-7.73.74A80.62,80.62,0,0,0,184,66.31q-3.16-1.16-6.47-2a82.68,82.68,0,0,0-10.17-2.09,81.63,81.63,0,0,0-22.78-.06A83.44,83.44,0,0,0,132,70.44c-2,1.64-4,3.36-5.83,5.14a83,83,0,0,0-11,13.07c-2.15.62-4.31,1.35-6.44,2.15a85.09,85.09,0,0,0-9.45,4.28,82.37,82.37,0,0,0-18.49,13.36,83.88,83.88,0,0,0-5.27,14.15c-.68,2.51-1.24,5-1.68,7.55a82.63,82.63,0,0,0-1.19,17.05q-2.07,2.67-3.94,5.52a83.31,83.31,0,0,0-5.13,9,81.89,81.89,0,0,0-7.12,21.53,83.39,83.39,0,0,0,4.07,14.66c.91,2.4,1.93,4.75,3,7a83.28,83.28,0,0,0,9.1,14.62c-.07,2.22-.06,4.46.05,6.72a83.67,83.67,0,0,0,1.17,10.46,82.44,82.44,0,0,0,7,21.59,83.1,83.1,0,0,0,11.83,9.36c2.18,1.42,4.41,2.74,6.66,3.93A82.68,82.68,0,0,0,115.23,278h0q1.89,2.79,4,5.45a80.83,80.83,0,0,0,7,7.66,82,82,0,0,0,18.28,13.43,83.11,83.11,0,0,0,15.19.65h0c2.61-.12,5.19-.37,7.75-.73a81.6,81.6,0,0,0,16.58-4.12q3.13,1.13,6.42,2a84.87,84.87,0,0,0,10.16,2.1,83,83,0,0,0,15.62.73q3.66-.18,7.24-.68A83.5,83.5,0,0,0,236,296.2c2-1.62,4-3.33,5.81-5.12a81.81,81.81,0,0,0,11-13.12c2.13-.61,4.27-1.32,6.39-2.13a85.4,85.4,0,0,0,9.47-4.28,82,82,0,0,0,18.44-13.33,82.92,82.92,0,0,0,5.27-14.14c.68-2.51,1.25-5,1.69-7.57a81.91,81.91,0,0,0,1.2-17.08q2.07-2.62,3.91-5.45a84.58,84.58,0,0,0,5.16-9,82.42,82.42,0,0,0,7.13-21.55A83.92,83.92,0,0,0,307.43,168.72Zm-26.81,6.34a81.87,81.87,0,0,0-16.55-17.77c-.31-.25-.61-.5-.93-.74q-3-2.31-6.17-4.34a83.08,83.08,0,0,0-18.22-8.66,83,83,0,0,0-2.68-20,75.49,75.49,0,0,1,22.61,5.56,77.14,77.14,0,0,1,8.36,4.12,75,75,0,0,1,20,16.61A74.24,74.24,0,0,1,280.62,175.06ZM258.67,237.6c-.05.66-.12,1.32-.18,2-.27,2.43-.65,4.83-1.14,7.18a74.09,74.09,0,0,1-9.61,24.17,74.84,74.84,0,0,1-26,1.74,82.22,82.22,0,0,0,11.81-21.28c.13-.35.27-.71.39-1.06q1.28-3.56,2.22-7.22a82.4,82.4,0,0,0,2.62-20A82.4,82.4,0,0,0,257,214.35,74.68,74.68,0,0,1,258.67,237.6Zm-67.61,24.69a75.57,75.57,0,0,1-7-4.79,74.25,74.25,0,0,1-13-12.77,70.46,70.46,0,0,1-4.8-6.81,72.65,72.65,0,0,1-5.52-10.63,79.59,79.59,0,0,0,9.29-1.11,80.6,80.6,0,0,0,9.39-2.22c1.53-.46,3-1,4.53-1.51q2.26.84,4.61,1.53a84,84,0,0,0,18.71,3.31,84.58,84.58,0,0,0,8.73.06h.29a83.67,83.67,0,0,0,14.27-1.94,74.66,74.66,0,0,1-2.94,18,72.55,72.55,0,0,1-2.83,8,75,75,0,0,1-12.25,19.73A75.49,75.49,0,0,1,191.06,262.29ZM120.35,271a73.9,73.9,0,0,1-9.7-24.19,82.12,82.12,0,0,0,23.92,4.68c2.53.12,5.06.11,7.58,0l1.11-.07A81.14,81.14,0,0,0,155,249.81q4.07-.85,8.07-2.1A82.35,82.35,0,0,0,177,262.3,75.39,75.39,0,0,1,120.35,271ZM91.74,183.34a72.6,72.6,0,0,1-4.33-8.24A74.68,74.68,0,0,1,81,149.89a73.61,73.61,0,0,1,20-16.73,82.51,82.51,0,0,0,2.94,24.2,77.79,77.79,0,0,0,2.75,8.27,82.61,82.61,0,0,0,9.59,17.68,81.69,81.69,0,0,0-9.61,17.75A75.18,75.18,0,0,1,91.74,183.34Zm43-60q2.82-.14,5.64-.06a73.41,73.41,0,0,1,18,2.73,71.73,71.73,0,0,1,7.88,2.69A74,74,0,0,1,177,134.1a81.35,81.35,0,0,0-13.17,13.69c-1,1.27-1.9,2.56-2.78,3.88-1.56.44-3.09.92-4.62,1.47a81.42,81.42,0,0,0-17.07,8.32,81.48,81.48,0,0,0-7.09,5.08l-.24.18a85.15,85.15,0,0,0-10.4,9.93,74.42,74.42,0,0,1-8.15-16.21,76.21,76.21,0,0,1-2.39-8.17,75,75,0,0,1-1.68-23.21,75.5,75.5,0,0,1,13.55-4.18,76.36,76.36,0,0,1,8.95-1.32C132.84,123.47,133.8,123.41,134.75,123.36ZM162,88.88A74.94,74.94,0,0,1,184,75a74.21,74.21,0,0,1,22,13.9,82.51,82.51,0,0,0-22,10.24,80.08,80.08,0,0,0-7,5.18,82.28,82.28,0,0,0-13.87,14.6,81.75,81.75,0,0,0-19.85-3.65A75.78,75.78,0,0,1,162,88.88Zm65.55,34.41a74,74,0,0,1,3,18,75.47,75.47,0,0,1-1.9,20.18,80,80,0,0,0-8.17-4.56,75.81,75.81,0,0,0-8.91-3.71q-2.28-.81-4.56-1.46-1.34-2-2.8-3.91A82.21,82.21,0,0,0,191,134.09a81.06,81.06,0,0,0-7-5.19c-.07-.06-.16-.1-.24-.16a85,85,0,0,0-12.65-6.82,74.25,74.25,0,0,1,20-17.59,74.81,74.81,0,0,1,21.46-8.73,75.63,75.63,0,0,1,12.17,19.66A72.27,72.27,0,0,1,227.55,123.29ZM224,175.11a75,75,0,0,1-4,7.66l-.2.34a2.3,2.3,0,0,1-.15.23,72.49,72.49,0,0,1-6.79,9.42,76.14,76.14,0,0,1,0,11.6,2.11,2.11,0,0,0,0,.25c0,.1,0,.21,0,.33a69.31,69.31,0,0,1-1.28,8.66q-.58,2.85-1.41,5.67-3-.08-5.89-.39a73.31,73.31,0,0,1-8.55-1.43l-.41-.09-.23-.05A75,75,0,0,1,184,213.74a74,74,0,0,1-11,3.55,2.61,2.61,0,0,1-.27.06l-.27.08a80.47,80.47,0,0,1-8.65,1.46c-1.94.21-3.88.35-5.84.4-.57-1.91-1-3.81-1.45-5.72a74.32,74.32,0,0,1-1.28-8.56,3,3,0,0,1,0-.42,1,1,0,0,1,0-.24,73.24,73.24,0,0,1-.05-11.66,73.32,73.32,0,0,1-6.77-9.38,2.72,2.72,0,0,1-.16-.25c-.07-.1-.12-.2-.18-.3a72.43,72.43,0,0,1-4-7.67q-1.22-2.68-2.21-5.48,2.43-1.68,5-3.13a69.61,69.61,0,0,1,7.88-3.92l.26-.11.22-.09a73,73,0,0,1,11.06-3.64,74.33,74.33,0,0,1,6.83-9.35l.19-.22.13-.15a70.54,70.54,0,0,1,6.17-6.3c1.44-1.34,3-2.6,4.52-3.81,1.58,1.22,3.11,2.5,4.57,3.82a73.49,73.49,0,0,1,6.12,6.24h0a1.71,1.71,0,0,0,.18.2l.18.23a72.75,72.75,0,0,1,6.84,9.36,73.06,73.06,0,0,1,11,3.62l.24.09.21.09.81.35a74.87,74.87,0,0,1,7.1,3.58q2.53,1.44,5,3.11C225.58,171.48,224.85,173.31,224,175.11Zm-110.6,31.15A73.52,73.52,0,0,1,121.59,190a72.76,72.76,0,0,1,5-6.66,73.5,73.5,0,0,1,8.41-8.52,83,83,0,0,0,3.94,8.5,79,79,0,0,0,5,8.24c.9,1.31,1.85,2.59,2.82,3.85-.06,1.61-.07,3.23,0,4.85a82.26,82.26,0,0,0,.79,9.61,80,80,0,0,0,1.85,9.19,78.46,78.46,0,0,0,2.63,8.32l.1.28a82.43,82.43,0,0,0,6.25,13,73.78,73.78,0,0,1-18,2.76,68.2,68.2,0,0,1-8.46-.23,74.23,74.23,0,0,1-22.59-5.56,74.57,74.57,0,0,1,.2-14.24,77.25,77.25,0,0,1,1.51-8.9A73.15,73.15,0,0,1,113.44,206.26Zm141.14-.07a74,74,0,0,1-16.18,8.41,71.83,71.83,0,0,1-8,2.48A73.07,73.07,0,0,1,218.63,219a83.68,83.68,0,0,0,1.82-9.18,82.2,82.2,0,0,0,.77-9.63c0-1.59,0-3.18,0-4.77,1-1.27,1.94-2.55,2.85-3.88a81.13,81.13,0,0,0,5-8.22,83.59,83.59,0,0,0,6.69-16.85c0-.1.05-.2.08-.29a82.7,82.7,0,0,0,2.57-14.16,74.59,74.59,0,0,1,22.92,13.52,74.77,74.77,0,0,1,14.95,17.72,75.14,75.14,0,0,1-15,17.7A73.57,73.57,0,0,1,254.58,206.19ZM259,99.46a75.14,75.14,0,0,1,21.43,13.78,74.21,74.21,0,0,1,6.49,24.62,82.51,82.51,0,0,0-20.65-14.28c-.79-.39-1.6-.77-2.41-1.13-2.14-1-4.31-1.83-6.5-2.6a82.18,82.18,0,0,0-24-4.67A83.2,83.2,0,0,0,221.67,94c1.52-.16,3-.29,4.58-.36A74.53,74.53,0,0,1,259,99.46Zm-50.34-29.9a74.16,74.16,0,0,1,12.14.4,73.9,73.9,0,0,1,19.79,16.15,83.57,83.57,0,0,0-25.17.59,82.62,82.62,0,0,0-20.09-15.3A75.75,75.75,0,0,1,208.65,69.56ZM137.1,76.78a73.85,73.85,0,0,1,10-6.8,74,74,0,0,1,25.5,1.44,83.56,83.56,0,0,0-38.12,43.81,84.88,84.88,0,0,0-13.25,1.69,83.37,83.37,0,0,0-10.57,2.94,74.72,74.72,0,0,1,9.64-24.16,73.25,73.25,0,0,1,7.07-9.61A74.45,74.45,0,0,1,137.1,76.78ZM109,99.46a83.72,83.72,0,0,0-7.22,24.08,82,82,0,0,0-20.75,14.4,74.64,74.64,0,0,1,2.35-13.21,75.79,75.79,0,0,1,4.13-11.44A74.27,74.27,0,0,1,109,99.46ZM68.17,195a74.48,74.48,0,0,1-3.38-11.75,74,74,0,0,1,9.27-23.71,83.21,83.21,0,0,0,8.32,23.76,86.27,86.27,0,0,0,5,8.25A82.91,82.91,0,0,0,104,209.35a81.6,81.6,0,0,0-2.5,13.11,85,85,0,0,0-.48,11,74.2,74.2,0,0,1-20-16.63,71.91,71.91,0,0,1-6.94-9.71A74.57,74.57,0,0,1,68.17,195Zm29,65.87a74.39,74.39,0,0,1-9.59-7.44,74.21,74.21,0,0,1-6.5-24.67,82.7,82.7,0,0,0,20.66,14.29A81.81,81.81,0,0,0,109,267.22,75.15,75.15,0,0,1,97.18,260.89Zm75.49,34.36a74.81,74.81,0,0,1-13.33,1.85h0a73.84,73.84,0,0,1-12.12-.4,73.86,73.86,0,0,1-19.78-16.15,83.24,83.24,0,0,0,25.15-.58,78.24,78.24,0,0,0,9.34-2.21,82,82,0,0,0,17-7.14c1.76-1,3.49-2,5.17-3.15a83.9,83.9,0,0,0,22,10.27,73.47,73.47,0,0,1-33.39,17.51Zm58.26-5.39a74.28,74.28,0,0,1-10.06,6.83c-1.66.19-3.33.34-5,.42a75.15,75.15,0,0,1-20.46-1.85,83.15,83.15,0,0,0,20-15.29,82,82,0,0,0,18.42,1.17q3.39-.17,6.79-.61A74.07,74.07,0,0,1,230.93,289.86ZM259,267.15A82.75,82.75,0,0,0,266.25,243c.13-.85.24-1.72.33-2.58.25-2.33.4-4.66.46-7a82.29,82.29,0,0,0-3-24.23,83.42,83.42,0,0,0,16.53-17.75A74.22,74.22,0,0,1,287,228.69,76.9,76.9,0,0,1,284.58,242a74.33,74.33,0,0,1-4.12,11.41A74.15,74.15,0,0,1,259,267.15ZM294,207.07a82.8,82.8,0,0,0-8.34-23.78A82.32,82.32,0,0,0,294,159.5a75.69,75.69,0,0,1,9.28,23.89A74.32,74.32,0,0,1,294,207.07Z"/><path class="cls-2" d="M385.86,127.6l-10.55-14.14h-10.4V127.6H360.8V91.2h15.65a17.62,17.62,0,0,1,5.43.78A12.32,12.32,0,0,1,386,94.19a9.85,9.85,0,0,1,2.65,3.43,10.46,10.46,0,0,1,.94,4.45,10.92,10.92,0,0,1-.73,4.09,9.43,9.43,0,0,1-2.06,3.12,11.58,11.58,0,0,1-3.14,2.21,14.59,14.59,0,0,1-3.95,1.25l11.18,14.86Zm-2.81-30.7a11,11,0,0,0-6.88-1.9H364.91v14.81h11.2a12.85,12.85,0,0,0,3.76-.52,9.19,9.19,0,0,0,3-1.48,6.91,6.91,0,0,0,2-2.38,7,7,0,0,0,.71-3.18A6.39,6.39,0,0,0,383.05,96.9Z"/><path class="cls-2" d="M424.71,94.94H402.5v12.43h19.87v3.74H402.5v12.74H425v3.75H398.39V91.2h26.32Z"/><path class="cls-2" d="M436.82,102.6a4.66,4.66,0,0,0,1.51,1.9,11.09,11.09,0,0,0,3,1.56,35.91,35.91,0,0,0,4.94,1.33q6.07,1.35,9,3.75a8.14,8.14,0,0,1,2.88,6.61,9.58,9.58,0,0,1-3.47,7.56,11.59,11.59,0,0,1-3.91,2.08,16.27,16.27,0,0,1-5,.73,21.8,21.8,0,0,1-8-1.41,22.59,22.59,0,0,1-6.89-4.36l2.55-3a21.66,21.66,0,0,0,5.77,3.88,16.77,16.77,0,0,0,6.71,1.27,9.32,9.32,0,0,0,5.9-1.72,5.45,5.45,0,0,0,2.21-4.53,6.23,6.23,0,0,0-.41-2.32,4.74,4.74,0,0,0-1.46-1.85,10.5,10.5,0,0,0-2.9-1.51,37.59,37.59,0,0,0-4.71-1.3,37.73,37.73,0,0,1-5.45-1.56,13.36,13.36,0,0,1-3.83-2.14,7.72,7.72,0,0,1-2.24-2.91,9.76,9.76,0,0,1-.73-4,9,9,0,0,1,.88-4,9.17,9.17,0,0,1,2.5-3.15,12.18,12.18,0,0,1,3.79-2.09,14.67,14.67,0,0,1,4.79-.75,20.27,20.27,0,0,1,7,1.1,21.33,21.33,0,0,1,5.8,3.32l-2.39,3.17a17.94,17.94,0,0,0-5.12-3,15.75,15.75,0,0,0-5.39-.93,10.23,10.23,0,0,0-3.19.47A8.07,8.07,0,0,0,438.51,96,5.49,5.49,0,0,0,437,97.91a5.23,5.23,0,0,0-.54,2.35A6.21,6.21,0,0,0,436.82,102.6Z"/><path class="cls-2" d="M470.62,111.22V127.6h-4.11V91.2h4.11v16.17h21V91.2h4.11v36.4h-4.11V111.22Z"/><path class="cls-2" d="M539.94,127.6h-4.42L531.25,118H511.44l-4.31,9.62h-4.22L519.5,90.94h3.85ZM521.37,95.77l-8.32,18.57h16.59Z"/><path class="cls-3" d="M374.58,276.56a3.73,3.73,0,0,1-1.27,1.44,6,6,0,0,1-2,.87,10.91,10.91,0,0,1-2.58.28h-8v-16.8h7.79a6.37,6.37,0,0,1,4.06,1.18,3.84,3.84,0,0,1,1.47,3.17v.05a3.95,3.95,0,0,1-.65,2.26,3.49,3.49,0,0,1-.7.78,4.34,4.34,0,0,1-.84.58,5.72,5.72,0,0,1,2.29,1.5,3.83,3.83,0,0,1,.84,2.63v.05A4.29,4.29,0,0,1,374.58,276.56Zm-4.14-9.24a1.48,1.48,0,0,0-.62-1.28,3.07,3.07,0,0,0-1.8-.45h-3.65v3.56h3.41a3.83,3.83,0,0,0,1.94-.42,1.46,1.46,0,0,0,.72-1.36Zm.94,6.72a1.59,1.59,0,0,0-.65-1.33,3.48,3.48,0,0,0-2.09-.49h-4.27v3.69h4.39a3.5,3.5,0,0,0,1.92-.44,1.52,1.52,0,0,0,.7-1.38Z"/><path class="cls-3" d="M386.52,272.46v6.69h-3.69v-6.62l-6.46-10.18h4.32l4,6.75,4.08-6.75H393Z"/><path class="cls-3" d="M412.68,279.15l-3.6-5.37h-2.9v5.37h-3.7v-16.8h7.68a6.83,6.83,0,0,1,4.67,1.47,5.13,5.13,0,0,1,1.67,4.08V268a5.23,5.23,0,0,1-1,3.32,5.71,5.71,0,0,1-2.6,1.88l4.1,6Zm.07-11.06a2.14,2.14,0,0,0-.76-1.8,3.42,3.42,0,0,0-2.14-.6h-3.67v4.82h3.74a3.08,3.08,0,0,0,2.1-.64,2.2,2.2,0,0,0,.73-1.73Z"/><path class="cls-3" d="M419.83,279.15v-16.8h12.65v3.29h-9v3.41h7.92v3.29h-7.92v3.53h9.12v3.28Z"/><path class="cls-3" d="M447.61,276.41a4.73,4.73,0,0,1-1.27,1.63,5.81,5.81,0,0,1-1.93,1,8.49,8.49,0,0,1-2.5.34,11.07,11.07,0,0,1-3.76-.66,9.83,9.83,0,0,1-3.36-2l2.18-2.62a11.45,11.45,0,0,0,2.36,1.49,6.33,6.33,0,0,0,2.66.55,3.21,3.21,0,0,0,1.78-.42,1.31,1.31,0,0,0,.64-1.16v-.05a1.47,1.47,0,0,0-.13-.64,1.37,1.37,0,0,0-.51-.51,5.31,5.31,0,0,0-1-.48c-.44-.16-1-.33-1.72-.51a23,23,0,0,1-2.31-.69,6.8,6.8,0,0,1-1.76-.95,4,4,0,0,1-1.12-1.41,4.91,4.91,0,0,1-.4-2.08v-.05a5,5,0,0,1,.43-2.08,4.71,4.71,0,0,1,1.21-1.59,5.3,5.3,0,0,1,1.85-1,7.46,7.46,0,0,1,2.37-.36,10.06,10.06,0,0,1,3.4.56,9.56,9.56,0,0,1,2.84,1.58L445.61,267a12.48,12.48,0,0,0-2.21-1.21,5.75,5.75,0,0,0-2.16-.44,2.61,2.61,0,0,0-1.62.42,1.28,1.28,0,0,0-.54,1v.05a1.46,1.46,0,0,0,.16.71,1.39,1.39,0,0,0,.56.54,5.39,5.39,0,0,0,1.12.45c.48.15,1.07.32,1.8.51a16.78,16.78,0,0,1,2.27.75,6.19,6.19,0,0,1,1.68,1,3.76,3.76,0,0,1,1,1.38,4.74,4.74,0,0,1,.35,1.9v.05A5.24,5.24,0,0,1,447.61,276.41Z"/><path class="cls-3" d="M461.79,279.15v-6.74H455v6.74h-3.7v-16.8H455V269h6.82v-6.65h3.69v16.8Z"/><path class="cls-3" d="M482,279.15l-1.54-3.76h-7.1l-1.54,3.76h-3.77l7.2-16.92h3.41l7.2,16.92Zm-5.09-12.48-2.23,5.45h4.46Z"/><path class="cls-3" d="M501.63,279.15v-11l-4.73,7.17h-.1l-4.68-7.1v10.89h-3.65v-16.8h4l4.41,7.11,4.42-7.11h4v16.8Z"/><path class="cls-3" d="M521.81,279.15l-1.54-3.76h-7.1l-1.54,3.76h-3.76l7.2-16.92h3.4l7.2,16.92Zm-5.09-12.48-2.23,5.45H519Z"/><path class="cls-3" d="M540.05,279.15l-8.14-10.68v10.68h-3.64v-16.8h3.4l7.88,10.35V262.35h3.64v16.8Z"/><path class="cls-3" d="M562.06,274.07a7.84,7.84,0,0,1-1.84,2.66,8.9,8.9,0,0,1-2.83,1.78,9.82,9.82,0,0,1-3.61.64h-6.55v-16.8h6.55a10,10,0,0,1,3.61.64,8.52,8.52,0,0,1,2.83,1.76,7.94,7.94,0,0,1,1.84,2.66,8.34,8.34,0,0,1,.65,3.3v0A8.51,8.51,0,0,1,562.06,274.07Zm-3.22-3.32a5.48,5.48,0,0,0-.37-2,4.74,4.74,0,0,0-1-1.6,4.55,4.55,0,0,0-1.6-1.05,5.47,5.47,0,0,0-2.06-.37h-2.86v10.13h2.86a5.68,5.68,0,0,0,2.06-.36,4.5,4.5,0,0,0,1.6-1,4.9,4.9,0,0,0,1-1.59,5.33,5.33,0,0,0,.37-2Z"/><path class="cls-3" d="M566.16,279.15v-16.8h3.7v16.8Z"/><path class="cls-4" d="M363.46,153l28.41,68.25,19-42.62L400.7,154l2.6-1.05,9.21,22.08,9.79-21.89,2.6,1.25L414.05,178.7l17.66,42.53,30.43-68.06,2.69,1.25-31.78,71-1.44,3.07-1.24-3.07-17.95-43.2-19.3,43.2-1.34,3.07-1.35-3.07L360.77,154Z"/><path class="cls-4" d="M509.76,152.69a35.9,35.9,0,0,1,20.74,6.38A37,37,0,0,1,544,175.63a34.76,34.76,0,0,1,2.5,10.18c.13.83.08,1.33-.15,1.49a4.15,4.15,0,0,1-1.87.24H475.78c-.07.7-.1,1.4-.1,2.11a33.31,33.31,0,0,0,1.06,8.35v.29a33.66,33.66,0,0,0,12.14,18.29A34.2,34.2,0,0,0,527,219.07a33.46,33.46,0,0,0,12.29-12.43l1.63,2.78a37,37,0,0,1-67-10.65.34.34,0,0,0-.05-.19.48.48,0,0,1,0-.2,35.5,35.5,0,0,1-1.06-8.73,36.86,36.86,0,0,1,37-37Zm0,2.88a32.84,32.84,0,0,0-22.32,8.35,33.2,33.2,0,0,0-11.38,20.74h67.49a36.59,36.59,0,0,0-2.69-9,34,34,0,0,0-31.1-20.06Z"/><path class="cls-4" d="M605.57,152.69a35.64,35.64,0,0,1,29.95,16.41,30.44,30.44,0,0,1,2.88,5.38V154.42h2.88v71H638.4V202.32a43.32,43.32,0,0,1-16.13,19.87h-.1a34.94,34.94,0,0,1-35.47-.14,36,36,0,0,1-17.18-24.58,37.92,37.92,0,0,1,.14-15.31A36.48,36.48,0,0,1,581,162.29a35.74,35.74,0,0,1,20.93-9.41A32.61,32.61,0,0,1,605.57,152.69Zm0,2.88a28.13,28.13,0,0,0-3.36.19,33.18,33.18,0,0,0-19.3,8.64,34.67,34.67,0,0,0-10.46,18.43,33.7,33.7,0,0,0-.1,14.11A34.75,34.75,0,0,0,577.82,210a32.87,32.87,0,0,0,10.37,9.5,31.92,31.92,0,0,0,13.34,4.42,30.58,30.58,0,0,0,19.11-4.13,40.93,40.93,0,0,0,13-14.3,35.63,35.63,0,0,0,4.7-17.76,32.78,32.78,0,0,0-32.73-32.16Z"/><path class="cls-4" d="M660.29,153l28.41,68.25,30.43-68.06,2.6,1.25-31.78,71-1.34,3.07-1.35-3.07L657.6,154Z"/><path class="cls-4" d="M766.75,152.69a35.9,35.9,0,0,1,20.74,6.38A36.91,36.91,0,0,1,801,175.63a34.76,34.76,0,0,1,2.5,10.18c.13.83.08,1.33-.15,1.49a4.15,4.15,0,0,1-1.87.24H732.77c-.07.7-.1,1.4-.1,2.11a33.31,33.31,0,0,0,1.06,8.35v.29a33.66,33.66,0,0,0,12.14,18.29A34.2,34.2,0,0,0,784,219.07a33.46,33.46,0,0,0,12.29-12.43l1.63,2.78a37,37,0,0,1-67-10.65.34.34,0,0,0-.05-.19.48.48,0,0,1,0-.2,35.5,35.5,0,0,1-1.06-8.73,36.86,36.86,0,0,1,37-37Zm0,2.88a32.84,32.84,0,0,0-22.32,8.35,33.2,33.2,0,0,0-11.38,20.74h67.49a36.59,36.59,0,0,0-2.69-9,34,34,0,0,0-31.1-20.06Z"/><path class="cls-4" d="M837.41,152.69a25.07,25.07,0,0,1,3.16.19,17.1,17.1,0,0,1,10.56,5.71,17.47,17.47,0,0,1,4.52,11.09l-2.88.1a14.75,14.75,0,0,0-12.58-14,14.16,14.16,0,0,0-7.1.67,13,13,0,0,0-6,3.94,13.36,13.36,0,0,0-3.07,6.33,13,13,0,0,0,.58,7,16.46,16.46,0,0,0,5.57,7.2,40.7,40.7,0,0,0,8.16,4.9h.09q6.82,3.45,8.93,4.7a24.38,24.38,0,0,1,7.68,7.11,18.14,18.14,0,0,1,3.17,9.4,17.9,17.9,0,0,1-2.11,9.6,19,19,0,0,1-6.72,7.25A18.58,18.58,0,0,1,840,226.8a19.33,19.33,0,0,1-14-5.09,21.14,21.14,0,0,1-6.81-13.25,19.7,19.7,0,0,1-.2-3.93l2.88.09a15.44,15.44,0,0,0,.2,3.46,17.8,17.8,0,0,0,5.85,11.42,16.24,16.24,0,0,0,12,4.42,15.28,15.28,0,0,0,8-2.45,15.92,15.92,0,0,0,7.39-14.35,15.32,15.32,0,0,0-2.64-7.87,21.67,21.67,0,0,0-6.82-6.24q-2-1.24-8.73-4.61a51.64,51.64,0,0,1-8.74-5.18,19.52,19.52,0,0,1-6.43-8.45A15.92,15.92,0,0,1,825,158.45a17,17,0,0,1,7.11-4.8A17.64,17.64,0,0,1,837.41,152.69Z"/><path class="cls-2" d="M872.86,137.39h-1.1v-8.78h-3.29v-1h7.68v1h-3.29Z"/><path class="cls-2" d="M882.94,134.7h-.05l-3.57-5.24v7.93h-1.08v-9.8h1.12l3.57,5.35,3.57-5.35h1.12v9.8h-1.11v-7.94Z"/></g></svg>